<?xml version="1.0" encoding="UTF-8"?>
<svg id="Insights_Top" data-name="Insights Top" xmlns="http://www.w3.org/2000/svg" xmlns:xlink="http://www.w3.org/1999/xlink" viewBox="0 0 1600 1000">
  <defs>
    <style>
      .cls-1, .cls-2, .cls-3 {
        fill: #fff;
      }

      .cls-4 {
        fill: #e5d37c;
      }

      .cls-5 {
        fill: #7c9ced;
      }

      .cls-6 {
        fill: #9d92cb;
      }

      .cls-7 {
        fill: #b9efce;
      }

      .cls-8 {
        fill: #dd8983;
      }

      .cls-9 {
        fill: #444089;
      }

      .cls-10 {
        fill: #3a2496;
      }

      .cls-11 {
        fill: none;
        opacity: .1;
        stroke: #000;
        stroke-miterlimit: 10;
        stroke-width: 1.198px;
      }

      .cls-12 {
        opacity: .93;
      }

      .cls-2 {
        filter: url(#drop-shadow-63);
      }

      .cls-3 {
        filter: url(#drop-shadow-64);
      }
    </style>
    <filter id="drop-shadow-63" filterUnits="userSpaceOnUse">
      <feOffset dx="2" dy="5"/>
      <feGaussianBlur result="blur" stdDeviation="5"/>
      <feFlood flood-color="#000" flood-opacity=".1"/>
      <feComposite in2="blur" operator="in"/>
      <feComposite in="SourceGraphic"/>
    </filter>
    <filter id="drop-shadow-64" filterUnits="userSpaceOnUse">
      <feOffset dx="2" dy="5"/>
      <feGaussianBlur result="blur-2" stdDeviation="5"/>
      <feFlood flood-color="#000" flood-opacity=".1"/>
      <feComposite in2="blur-2" operator="in"/>
      <feComposite in="SourceGraphic"/>
    </filter>
  </defs>
  <rect class="cls-2" x="1011.102" y="107.432" width="318.598" height="260.85" rx="11.432" ry="11.432"/>
  <line class="cls-11" x1="1011.102" y1="161.301" x2="1329.7" y2="161.301"/>
  <g class="cls-12">
    <g>
      <path d="M1037.727,145.204v-15.993h10.777v2.787h-7.396v3.812h6.841v2.788h-6.841v3.818h7.427v2.788h-10.809Z"/>
      <path d="M1054.462,138.269v6.935h-3.327v-11.995h3.171v2.116h.141c.266-.697,.711-1.251,1.336-1.659,.624-.409,1.382-.613,2.272-.613,.833,0,1.559,.183,2.179,.547,.619,.364,1.101,.884,1.444,1.558,.344,.675,.516,1.478,.516,2.409v7.638h-3.327v-7.044c.006-.734-.182-1.309-.562-1.722-.381-.414-.903-.621-1.57-.621-.447,0-.842,.097-1.183,.289-.342,.192-.606,.473-.797,.839-.19,.367-.288,.809-.293,1.324Z"/>
      <path d="M1070.214,149.952c-1.077,0-2-.147-2.769-.441-.768-.294-1.378-.693-1.831-1.198s-.747-1.073-.883-1.703l3.077-.413c.094,.239,.242,.463,.445,.671s.473,.376,.809,.504,.745,.191,1.229,.191c.724,0,1.321-.176,1.792-.527,.472-.352,.707-.938,.707-1.761v-2.194h-.141c-.146,.333-.364,.648-.655,.944-.292,.297-.667,.539-1.125,.727s-1.005,.281-1.64,.281c-.901,0-1.72-.209-2.456-.629-.737-.419-1.323-1.062-1.758-1.929s-.651-1.964-.651-3.292c0-1.358,.221-2.493,.663-3.404s1.032-1.594,1.77-2.046c.736-.453,1.545-.68,2.425-.68,.671,0,1.233,.113,1.687,.34s.818,.508,1.098,.843c.278,.336,.493,.666,.644,.988h.125v-2.015h3.304v12.112c0,1.021-.25,1.874-.75,2.562s-1.19,1.204-2.073,1.55c-.883,.347-1.896,.52-3.042,.52Zm.07-7.419c.536,0,.99-.134,1.363-.402,.372-.268,.658-.653,.858-1.155,.2-.503,.301-1.105,.301-1.809s-.099-1.312-.297-1.831c-.197-.518-.483-.92-.858-1.206s-.831-.43-1.367-.43c-.547,0-1.007,.147-1.382,.441s-.659,.701-.852,1.222-.289,1.122-.289,1.804c0,.693,.098,1.29,.293,1.793,.195,.502,.479,.89,.852,1.163s.831,.41,1.378,.41Z"/>
      <path d="M1080.405,131.663c-.495,0-.918-.164-1.27-.492s-.526-.724-.526-1.188,.177-.86,.53-1.19c.354-.331,.776-.496,1.266-.496,.494,0,.917,.164,1.269,.492s.527,.724,.527,1.187-.176,.86-.527,1.191c-.352,.33-.774,.496-1.269,.496Zm-1.672,13.541v-11.995h3.327v11.995h-3.327Z"/>
      <path d="M1088.042,138.269v6.935h-3.327v-11.995h3.171v2.116h.141c.266-.697,.711-1.251,1.336-1.659,.624-.409,1.382-.613,2.272-.613,.833,0,1.559,.183,2.179,.547,.619,.364,1.101,.884,1.444,1.558,.344,.675,.516,1.478,.516,2.409v7.638h-3.327v-7.044c.006-.734-.182-1.309-.562-1.722-.381-.414-.903-.621-1.57-.621-.447,0-.842,.097-1.183,.289-.342,.192-.606,.473-.797,.839-.19,.367-.288,.809-.293,1.324Z"/>
      <path d="M1103.855,145.438c-1.233,0-2.295-.251-3.182-.754-.888-.502-1.571-1.216-2.051-2.14-.479-.924-.718-2.019-.718-3.284,0-1.233,.239-2.316,.718-3.248,.479-.932,1.155-1.658,2.027-2.179,.871-.521,1.896-.781,3.072-.781,.792,0,1.529,.126,2.214,.379,.685,.252,1.283,.631,1.797,1.136,.513,.506,.912,1.14,1.198,1.902s.43,1.654,.43,2.674v.914h-10.129v-2.062h6.997c0-.479-.104-.903-.312-1.273-.208-.369-.495-.659-.862-.87s-.793-.316-1.277-.316c-.505,0-.951,.116-1.339,.348s-.691,.541-.91,.929c-.219,.389-.33,.819-.336,1.293v1.96c0,.594,.111,1.106,.332,1.538,.222,.433,.535,.766,.941,1s.888,.352,1.444,.352c.37,0,.708-.052,1.016-.156,.307-.104,.57-.261,.788-.469,.219-.208,.386-.463,.5-.766l3.077,.203c-.156,.739-.476,1.384-.957,1.934-.481,.549-1.101,.976-1.858,1.28s-1.631,.457-2.62,.457Z"/>
      <path d="M1116.999,145.438c-1.233,0-2.295-.251-3.182-.754-.888-.502-1.571-1.216-2.051-2.14-.479-.924-.718-2.019-.718-3.284,0-1.233,.239-2.316,.718-3.248,.479-.932,1.155-1.658,2.027-2.179,.871-.521,1.896-.781,3.072-.781,.792,0,1.529,.126,2.214,.379,.685,.252,1.283,.631,1.797,1.136,.513,.506,.912,1.14,1.198,1.902s.43,1.654,.43,2.674v.914h-10.129v-2.062h6.997c0-.479-.104-.903-.312-1.273-.208-.369-.495-.659-.862-.87s-.793-.316-1.277-.316c-.505,0-.951,.116-1.339,.348s-.691,.541-.91,.929c-.219,.389-.33,.819-.336,1.293v1.96c0,.594,.111,1.106,.332,1.538,.222,.433,.535,.766,.941,1s.888,.352,1.444,.352c.37,0,.708-.052,1.016-.156,.307-.104,.57-.261,.788-.469,.219-.208,.386-.463,.5-.766l3.077,.203c-.156,.739-.476,1.384-.957,1.934-.481,.549-1.101,.976-1.858,1.28s-1.631,.457-2.62,.457Z"/>
      <path d="M1124.676,145.204v-11.995h3.226v2.093h.125c.219-.744,.586-1.308,1.102-1.69,.515-.383,1.108-.574,1.78-.574,.166,0,.346,.011,.539,.031,.192,.021,.361,.05,.507,.086v2.952c-.155-.047-.372-.089-.647-.125-.276-.036-.528-.055-.758-.055-.489,0-.926,.105-1.308,.316-.383,.211-.685,.503-.906,.878s-.332,.808-.332,1.297v6.786h-3.327Z"/>
      <path d="M1135.336,131.663c-.495,0-.918-.164-1.27-.492s-.526-.724-.526-1.188,.177-.86,.53-1.19c.354-.331,.776-.496,1.266-.496,.494,0,.917,.164,1.269,.492s.527,.724,.527,1.187-.176,.86-.527,1.191c-.352,.33-.774,.496-1.269,.496Zm-1.672,13.541v-11.995h3.327v11.995h-3.327Z"/>
      <path d="M1142.973,138.269v6.935h-3.327v-11.995h3.171v2.116h.141c.266-.697,.711-1.251,1.336-1.659,.624-.409,1.382-.613,2.272-.613,.833,0,1.559,.183,2.179,.547,.619,.364,1.101,.884,1.444,1.558,.344,.675,.516,1.478,.516,2.409v7.638h-3.327v-7.044c.006-.734-.182-1.309-.562-1.722-.381-.414-.903-.621-1.57-.621-.447,0-.842,.097-1.183,.289-.342,.192-.606,.473-.797,.839-.19,.367-.288,.809-.293,1.324Z"/>
      <path d="M1158.724,149.952c-1.077,0-2-.147-2.769-.441-.768-.294-1.378-.693-1.831-1.198s-.747-1.073-.883-1.703l3.077-.413c.094,.239,.242,.463,.445,.671s.473,.376,.809,.504,.745,.191,1.229,.191c.724,0,1.321-.176,1.792-.527,.472-.352,.707-.938,.707-1.761v-2.194h-.141c-.146,.333-.364,.648-.655,.944-.292,.297-.667,.539-1.125,.727s-1.005,.281-1.64,.281c-.901,0-1.72-.209-2.456-.629-.737-.419-1.323-1.062-1.758-1.929s-.651-1.964-.651-3.292c0-1.358,.221-2.493,.663-3.404s1.032-1.594,1.77-2.046c.736-.453,1.545-.68,2.425-.68,.671,0,1.233,.113,1.687,.34s.818,.508,1.098,.843c.278,.336,.493,.666,.644,.988h.125v-2.015h3.304v12.112c0,1.021-.25,1.874-.75,2.562s-1.19,1.204-2.073,1.55c-.883,.347-1.896,.52-3.042,.52Zm.07-7.419c.536,0,.99-.134,1.363-.402,.372-.268,.658-.653,.858-1.155,.2-.503,.301-1.105,.301-1.809s-.099-1.312-.297-1.831c-.197-.518-.483-.92-.858-1.206s-.831-.43-1.367-.43c-.547,0-1.007,.147-1.382,.441s-.659,.701-.852,1.222-.289,1.122-.289,1.804c0,.693,.098,1.29,.293,1.793,.195,.502,.479,.89,.852,1.163s.831,.41,1.378,.41Z"/>
      <path d="M1175.67,138.269v6.935h-3.327v-15.993h3.233v6.114h.141c.271-.708,.708-1.264,1.312-1.667,.604-.403,1.361-.605,2.272-.605,.833,0,1.561,.181,2.183,.543,.622,.361,1.106,.88,1.452,1.554,.347,.675,.517,1.479,.512,2.417v7.638h-3.327v-7.044c.006-.739-.181-1.314-.558-1.726-.378-.412-.905-.617-1.582-.617-.453,0-.853,.097-1.198,.289-.347,.192-.617,.473-.812,.839-.195,.367-.296,.809-.301,1.324Z"/>
      <path d="M1191.491,145.438c-1.213,0-2.261-.259-3.143-.777-.883-.518-1.563-1.241-2.043-2.171-.479-.93-.718-2.008-.718-3.237,0-1.238,.239-2.323,.718-3.252,.479-.93,1.16-1.653,2.043-2.171,.882-.519,1.93-.777,3.143-.777s2.261,.259,3.144,.777c.883,.518,1.563,1.241,2.042,2.171,.479,.929,.719,2.014,.719,3.252,0,1.229-.239,2.308-.719,3.237-.479,.93-1.159,1.653-2.042,2.171-.883,.519-1.931,.777-3.144,.777Zm.016-2.577c.552,0,1.013-.157,1.383-.473,.369-.314,.649-.746,.839-1.292,.19-.547,.285-1.169,.285-1.867s-.095-1.319-.285-1.866c-.189-.547-.47-.979-.839-1.296-.37-.317-.831-.477-1.383-.477-.557,0-1.024,.159-1.401,.477-.378,.317-.661,.749-.852,1.296s-.285,1.169-.285,1.866,.095,1.32,.285,1.867c.19,.546,.474,.978,.852,1.292,.377,.315,.845,.473,1.401,.473Z"/>
      <path d="M1205.947,133.208v2.499h-7.224v-2.499h7.224Zm-5.584-2.874h3.327v11.184c0,.307,.047,.545,.141,.714,.094,.17,.225,.288,.395,.355,.169,.067,.365,.102,.589,.102,.156,0,.312-.015,.469-.043s.276-.051,.359-.066l.523,2.476c-.167,.052-.401,.113-.703,.184s-.669,.113-1.101,.129c-.803,.031-1.504-.075-2.105-.32-.601-.244-1.068-.625-1.401-1.14-.333-.516-.497-1.167-.492-1.953v-11.62Z"/>
      <path d="M1223.189,136.628l-3.045,.188c-.053-.26-.164-.495-.336-.706s-.397-.38-.676-.508-.61-.191-.996-.191c-.515,0-.95,.108-1.304,.324-.354,.216-.531,.504-.531,.863,0,.286,.114,.528,.344,.726,.229,.198,.622,.356,1.18,.477l2.171,.438c1.166,.239,2.035,.625,2.608,1.155,.572,.531,.858,1.229,.858,2.094,0,.786-.23,1.476-.69,2.069-.461,.593-1.091,1.056-1.891,1.386-.799,.331-1.719,.496-2.761,.496-1.588,0-2.852-.332-3.791-.996-.939-.663-1.49-1.568-1.651-2.714l3.271-.172c.1,.484,.339,.854,.719,1.105,.38,.253,.867,.379,1.46,.379,.583,0,1.054-.113,1.41-.34s.537-.52,.543-.879c-.006-.302-.133-.55-.383-.745s-.636-.345-1.156-.449l-2.077-.414c-1.171-.234-2.042-.641-2.612-1.218-.57-.578-.854-1.315-.854-2.211,0-.771,.209-1.434,.628-1.991,.419-.557,1.011-.986,1.773-1.288s1.656-.453,2.682-.453c1.516,0,2.709,.32,3.581,.961,.872,.64,1.381,1.512,1.526,2.615Z"/>
      <path d="M1225.563,149.702v-16.493h3.28v2.015h.148c.146-.322,.358-.652,.637-.988,.278-.335,.643-.616,1.093-.843s1.012-.34,1.684-.34c.874,0,1.682,.228,2.421,.684,.739,.455,1.33,1.14,1.772,2.054,.442,.913,.664,2.058,.664,3.432,0,1.339-.215,2.467-.645,3.386s-1.013,1.614-1.749,2.085c-.737,.472-1.561,.707-2.472,.707-.646,0-1.194-.106-1.645-.32-.45-.213-.818-.482-1.104-.809-.286-.325-.505-.654-.656-.987h-.102v6.419h-3.327Zm3.257-10.496c0,.714,.099,1.336,.297,1.867,.198,.53,.484,.943,.859,1.237s.83,.441,1.366,.441c.542,0,1-.149,1.375-.449,.374-.299,.659-.716,.854-1.249,.195-.534,.293-1.149,.293-1.848,0-.692-.097-1.301-.289-1.827-.192-.525-.477-.937-.851-1.233-.375-.297-.836-.445-1.383-.445-.541,0-.998,.144-1.37,.43-.373,.286-.657,.692-.855,1.218-.198,.526-.297,1.146-.297,1.858Z"/>
      <path d="M1244.892,145.438c-1.213,0-2.261-.259-3.143-.777-.883-.518-1.563-1.241-2.043-2.171-.479-.93-.718-2.008-.718-3.237,0-1.238,.239-2.323,.718-3.252,.479-.93,1.16-1.653,2.043-2.171,.882-.519,1.93-.777,3.143-.777s2.261,.259,3.144,.777c.883,.518,1.563,1.241,2.042,2.171,.479,.929,.719,2.014,.719,3.252,0,1.229-.239,2.308-.719,3.237-.479,.93-1.159,1.653-2.042,2.171-.883,.519-1.931,.777-3.144,.777Zm.016-2.577c.552,0,1.013-.157,1.383-.473,.369-.314,.649-.746,.839-1.292,.19-.547,.285-1.169,.285-1.867s-.095-1.319-.285-1.866c-.189-.547-.47-.979-.839-1.296-.37-.317-.831-.477-1.383-.477-.557,0-1.024,.159-1.401,.477-.378,.317-.661,.749-.852,1.296s-.285,1.169-.285,1.866,.095,1.32,.285,1.867c.19,.546,.474,.978,.852,1.292,.377,.315,.845,.473,1.401,.473Z"/>
      <path d="M1259.347,133.208v2.499h-7.224v-2.499h7.224Zm-5.584-2.874h3.327v11.184c0,.307,.047,.545,.141,.714,.094,.17,.225,.288,.395,.355,.169,.067,.365,.102,.589,.102,.156,0,.312-.015,.469-.043s.276-.051,.359-.066l.523,2.476c-.167,.052-.401,.113-.703,.184s-.669,.113-1.101,.129c-.803,.031-1.504-.075-2.105-.32-.601-.244-1.068-.625-1.401-1.14-.333-.516-.497-1.167-.492-1.953v-11.62Z"/>
      <path d="M1271.326,136.628l-3.045,.188c-.053-.26-.164-.495-.336-.706s-.397-.38-.676-.508-.61-.191-.996-.191c-.515,0-.95,.108-1.304,.324-.354,.216-.531,.504-.531,.863,0,.286,.114,.528,.344,.726,.229,.198,.622,.356,1.18,.477l2.171,.438c1.166,.239,2.035,.625,2.608,1.155,.572,.531,.858,1.229,.858,2.094,0,.786-.23,1.476-.69,2.069-.461,.593-1.091,1.056-1.891,1.386-.799,.331-1.719,.496-2.761,.496-1.588,0-2.852-.332-3.791-.996-.939-.663-1.49-1.568-1.651-2.714l3.271-.172c.1,.484,.339,.854,.719,1.105,.38,.253,.867,.379,1.46,.379,.583,0,1.054-.113,1.41-.34s.537-.52,.543-.879c-.006-.302-.133-.55-.383-.745s-.636-.345-1.156-.449l-2.077-.414c-1.171-.234-2.042-.641-2.612-1.218-.57-.578-.854-1.315-.854-2.211,0-.771,.209-1.434,.628-1.991,.419-.557,1.011-.986,1.773-1.288s1.656-.453,2.682-.453c1.516,0,2.709,.32,3.581,.961,.872,.64,1.381,1.512,1.526,2.615Z"/>
    </g>
  </g>
  <g class="cls-12">
    <path d="M1087.285,192.337v-1.651l3.858-3.573c.328-.317,.604-.604,.829-.857,.224-.254,.394-.504,.511-.749,.116-.245,.175-.511,.175-.797,0-.317-.073-.592-.218-.823-.145-.23-.342-.409-.593-.534-.25-.125-.534-.188-.852-.188-.332,0-.622,.067-.868,.201-.247,.135-.438,.327-.572,.577-.134,.251-.201,.549-.201,.895h-2.176c0-.709,.161-1.325,.482-1.848,.32-.521,.771-.926,1.35-1.212,.578-.286,1.245-.429,2.001-.429,.776,0,1.453,.137,2.03,.41,.576,.273,1.025,.652,1.347,1.136s.481,1.037,.481,1.662c0,.409-.08,.813-.24,1.212-.161,.399-.446,.841-.855,1.326s-.986,1.066-1.73,1.744l-1.583,1.551v.074h4.553v1.874h-7.729Z"/>
    <path d="M1097.104,192.337l4.494-8.893v-.074h-5.235v-1.874h7.606v1.9l-4.499,8.94h-2.366Z"/>
    <path d="M1109.438,187.885v-1.895h7.495v1.895h-7.495Zm2.8,2.801v-7.496h1.896v7.496h-1.896Z"/>
    <path d="M1126.281,192.497c-.833,0-1.548-.178-2.146-.532-.598-.354-1.057-.848-1.376-1.479s-.479-1.358-.479-2.181c0-.833,.162-1.564,.484-2.194,.323-.63,.783-1.122,1.379-1.477,.597-.355,1.306-.532,2.128-.532,.71,0,1.331,.129,1.863,.386,.533,.258,.955,.62,1.266,1.086s.481,1.013,.514,1.641h-2.128c-.061-.406-.218-.733-.474-.982-.256-.248-.591-.373-1.004-.373-.349,0-.653,.095-.913,.283-.259,.189-.461,.464-.605,.823-.146,.36-.218,.796-.218,1.308,0,.519,.072,.96,.215,1.323s.345,.641,.606,.831c.261,.19,.566,.286,.915,.286,.258,0,.49-.053,.696-.159,.207-.105,.378-.26,.514-.463s.225-.447,.268-.733h2.128c-.035,.621-.204,1.167-.506,1.639-.302,.471-.717,.839-1.246,1.104s-1.156,.397-1.88,.397Z"/>
    <path d="M1135.036,192.497c-.822,0-1.532-.176-2.13-.527-.599-.351-1.06-.842-1.385-1.472-.324-.63-.487-1.361-.487-2.193,0-.84,.163-1.575,.487-2.205,.325-.63,.786-1.12,1.385-1.472,.598-.351,1.308-.526,2.13-.526s1.533,.176,2.131,.526c.599,.352,1.06,.842,1.384,1.472,.325,.63,.487,1.365,.487,2.205,0,.832-.162,1.563-.487,2.193-.324,.63-.785,1.121-1.384,1.472-.598,.352-1.309,.527-2.131,.527Zm.011-1.747c.374,0,.687-.106,.938-.32,.25-.214,.439-.506,.568-.876,.129-.371,.193-.792,.193-1.266s-.064-.895-.193-1.265c-.129-.371-.318-.663-.568-.879-.251-.215-.563-.323-.938-.323-.378,0-.694,.108-.95,.323-.256,.216-.448,.508-.577,.879-.129,.37-.193,.792-.193,1.265s.064,.895,.193,1.266c.129,.37,.321,.662,.577,.876s.572,.32,.95,.32Z"/>
    <path d="M1140.51,192.337v-8.131h2.149v1.435h.096c.169-.477,.451-.853,.847-1.127,.396-.275,.868-.413,1.419-.413,.558,0,1.032,.139,1.424,.415,.392,.277,.652,.652,.783,1.125h.085c.166-.466,.467-.839,.902-1.119,.436-.281,.952-.421,1.548-.421,.759,0,1.376,.24,1.851,.723,.475,.481,.712,1.163,.712,2.046v5.468h-2.25v-5.023c0-.452-.12-.79-.359-1.017-.24-.226-.54-.339-.9-.339-.409,0-.729,.13-.958,.39-.229,.259-.344,.601-.344,1.024v4.965h-2.187v-5.071c0-.398-.113-.716-.342-.952-.228-.237-.526-.355-.896-.355-.251,0-.476,.063-.675,.188-.2,.125-.357,.3-.475,.523-.116,.225-.174,.486-.174,.786v4.881h-2.256Z"/>
    <path d="M1154.103,192.337v-8.131h2.149v1.435h.096c.169-.477,.451-.853,.847-1.127,.396-.275,.868-.413,1.419-.413,.558,0,1.032,.139,1.424,.415,.392,.277,.652,.652,.783,1.125h.085c.166-.466,.467-.839,.902-1.119,.436-.281,.952-.421,1.548-.421,.759,0,1.376,.24,1.851,.723,.475,.481,.712,1.163,.712,2.046v5.468h-2.25v-5.023c0-.452-.12-.79-.359-1.017-.24-.226-.54-.339-.9-.339-.409,0-.729,.13-.958,.39-.229,.259-.344,.601-.344,1.024v4.965h-2.187v-5.071c0-.398-.113-.716-.342-.952-.228-.237-.526-.355-.896-.355-.251,0-.476,.063-.675,.188-.2,.125-.357,.3-.475,.523-.116,.225-.174,.486-.174,.786v4.881h-2.256Z"/>
    <path d="M1168.829,183.159c-.335,0-.621-.111-.859-.334-.238-.222-.357-.49-.357-.805s.12-.583,.359-.807c.24-.225,.526-.336,.857-.336,.336,0,.622,.111,.86,.333,.238,.223,.357,.49,.357,.805s-.119,.583-.357,.808c-.238,.224-.524,.336-.86,.336Zm-1.133,9.179v-8.131h2.256v8.131h-2.256Z"/>
    <path d="M1176.076,184.207v1.694h-4.896v-1.694h4.896Zm-3.785-1.948h2.255v7.581c0,.208,.032,.369,.096,.484,.063,.114,.152,.194,.268,.24,.114,.046,.248,.069,.399,.069,.105,0,.212-.01,.317-.029,.106-.02,.188-.034,.244-.045l.354,1.678c-.113,.035-.272,.077-.477,.124-.205,.048-.453,.077-.746,.088-.544,.021-1.02-.052-1.427-.217-.408-.166-.725-.424-.95-.773s-.337-.79-.334-1.323v-7.877Z"/>
    <path d="M1184.196,186.525l-2.064,.127c-.035-.176-.111-.336-.228-.479s-.27-.258-.458-.344c-.188-.087-.414-.13-.675-.13-.35,0-.645,.073-.884,.22-.24,.146-.36,.341-.36,.585,0,.193,.077,.357,.232,.492,.155,.134,.422,.241,.8,.322l1.472,.297c.79,.162,1.38,.424,1.768,.783,.389,.36,.583,.833,.583,1.419,0,.533-.156,1-.469,1.402s-.739,.716-1.281,.939c-.542,.225-1.165,.337-1.871,.337-1.076,0-1.933-.226-2.57-.675-.637-.45-1.01-1.063-1.119-1.84l2.218-.116c.067,.328,.229,.577,.487,.749,.257,.171,.587,.257,.989,.257,.396,0,.714-.077,.956-.23,.241-.153,.364-.353,.367-.596-.003-.205-.09-.373-.259-.506-.17-.132-.431-.233-.783-.304l-1.408-.281c-.794-.158-1.385-.434-1.771-.825-.387-.392-.58-.892-.58-1.498,0-.522,.143-.973,.426-1.35,.284-.378,.685-.669,1.202-.874,.517-.204,1.123-.307,1.818-.307,1.026,0,1.836,.217,2.427,.65,.591,.435,.937,1.025,1.035,1.773Z"/>
  </g>
  <g class="cls-12">
    <path d="M1087.285,228.426v-1.651l3.858-3.573c.328-.317,.604-.604,.829-.857,.224-.254,.394-.504,.511-.749,.116-.245,.175-.511,.175-.797,0-.317-.073-.592-.218-.823-.145-.23-.342-.409-.593-.534-.25-.125-.534-.188-.852-.188-.332,0-.622,.067-.868,.201-.247,.135-.438,.327-.572,.577-.134,.251-.201,.549-.201,.895h-2.176c0-.709,.161-1.325,.482-1.848,.32-.521,.771-.926,1.35-1.212,.578-.286,1.245-.429,2.001-.429,.776,0,1.453,.137,2.03,.41,.576,.273,1.025,.652,1.347,1.136s.481,1.037,.481,1.662c0,.409-.08,.813-.24,1.212-.161,.399-.446,.841-.855,1.326s-.986,1.066-1.73,1.744l-1.583,1.551v.074h4.553v1.874h-7.729Z"/>
    <path d="M1100.926,228.665c-.91-.004-1.692-.228-2.348-.672-.654-.445-1.157-1.089-1.508-1.933-.352-.844-.525-1.858-.521-3.044,0-1.182,.175-2.189,.526-3.022s.854-1.467,1.509-1.902c.654-.437,1.436-.654,2.342-.654s1.688,.219,2.343,.656,1.158,1.072,1.512,1.903c.353,.831,.527,1.838,.523,3.02,0,1.189-.176,2.206-.526,3.049-.352,.844-.854,1.488-1.506,1.933-.653,.444-1.435,.667-2.346,.667Zm0-1.9c.621,0,1.117-.312,1.488-.937,.37-.625,.554-1.562,.55-2.812,0-.822-.084-1.507-.251-2.054-.168-.547-.404-.958-.709-1.233-.306-.275-.665-.413-1.078-.413-.617,0-1.111,.31-1.481,.927-.371,.617-.558,1.542-.562,2.773,0,.833,.084,1.527,.252,2.083,.167,.556,.404,.973,.712,1.249,.307,.277,.667,.416,1.079,.416Z"/>
    <path d="M1110.83,223.974v-1.895h7.495v1.895h-7.495Zm2.8,2.801v-7.496h1.896v7.496h-1.896Z"/>
    <path d="M1127.673,228.585c-.833,0-1.548-.178-2.146-.532-.598-.354-1.057-.848-1.376-1.479s-.479-1.358-.479-2.181c0-.833,.162-1.564,.484-2.194,.323-.63,.783-1.122,1.379-1.477,.597-.355,1.306-.532,2.128-.532,.71,0,1.331,.129,1.863,.386,.533,.258,.955,.62,1.266,1.086s.481,1.013,.514,1.641h-2.128c-.061-.406-.218-.733-.474-.982-.256-.248-.591-.373-1.004-.373-.349,0-.653,.095-.913,.283-.259,.189-.461,.464-.605,.823-.146,.36-.218,.796-.218,1.308,0,.519,.072,.96,.215,1.323s.345,.641,.606,.831c.261,.19,.566,.286,.915,.286,.258,0,.49-.053,.696-.159,.207-.105,.378-.26,.514-.463s.225-.447,.268-.733h2.128c-.035,.621-.204,1.167-.506,1.639-.302,.471-.717,.839-1.246,1.104s-1.156,.397-1.88,.397Z"/>
    <path d="M1136.429,228.585c-.822,0-1.532-.176-2.13-.527-.599-.351-1.06-.842-1.385-1.472-.324-.63-.487-1.361-.487-2.193,0-.84,.163-1.575,.487-2.205,.325-.63,.786-1.12,1.385-1.472,.598-.351,1.308-.526,2.13-.526s1.533,.176,2.131,.526c.599,.352,1.06,.842,1.384,1.472,.325,.63,.487,1.365,.487,2.205,0,.832-.162,1.563-.487,2.193-.324,.63-.785,1.121-1.384,1.472-.598,.352-1.309,.527-2.131,.527Zm.011-1.747c.374,0,.687-.106,.938-.32,.25-.214,.439-.506,.568-.876,.129-.371,.193-.792,.193-1.266s-.064-.895-.193-1.265c-.129-.371-.318-.663-.568-.879-.251-.215-.563-.323-.938-.323-.378,0-.694,.108-.95,.323-.256,.216-.448,.508-.577,.879-.129,.37-.193,.792-.193,1.265s.064,.895,.193,1.266c.129,.37,.321,.662,.577,.876s.572,.32,.95,.32Z"/>
    <path d="M1141.901,228.426v-8.131h2.149v1.435h.096c.169-.477,.451-.853,.847-1.127,.396-.275,.868-.413,1.419-.413,.558,0,1.032,.139,1.424,.415,.392,.277,.652,.652,.783,1.125h.085c.166-.466,.467-.839,.902-1.119,.436-.281,.952-.421,1.548-.421,.759,0,1.376,.24,1.851,.723,.475,.481,.712,1.163,.712,2.046v5.468h-2.25v-5.023c0-.452-.12-.79-.359-1.017-.24-.226-.54-.339-.9-.339-.409,0-.729,.13-.958,.39-.229,.259-.344,.601-.344,1.024v4.965h-2.187v-5.071c0-.398-.113-.716-.342-.952-.228-.237-.526-.355-.896-.355-.251,0-.476,.063-.675,.188-.2,.125-.357,.3-.475,.523-.116,.225-.174,.486-.174,.786v4.881h-2.256Z"/>
    <path d="M1155.495,228.426v-8.131h2.149v1.435h.096c.169-.477,.451-.853,.847-1.127,.396-.275,.868-.413,1.419-.413,.558,0,1.032,.139,1.424,.415,.392,.277,.652,.652,.783,1.125h.085c.166-.466,.467-.839,.902-1.119,.436-.281,.952-.421,1.548-.421,.759,0,1.376,.24,1.851,.723,.475,.481,.712,1.163,.712,2.046v5.468h-2.25v-5.023c0-.452-.12-.79-.359-1.017-.24-.226-.54-.339-.9-.339-.409,0-.729,.13-.958,.39-.229,.259-.344,.601-.344,1.024v4.965h-2.187v-5.071c0-.398-.113-.716-.342-.952-.228-.237-.526-.355-.896-.355-.251,0-.476,.063-.675,.188-.2,.125-.357,.3-.475,.523-.116,.225-.174,.486-.174,.786v4.881h-2.256Z"/>
    <path d="M1170.222,219.248c-.335,0-.621-.111-.859-.334-.238-.222-.357-.49-.357-.805s.12-.583,.359-.807c.24-.225,.526-.336,.857-.336,.336,0,.622,.111,.86,.333,.238,.223,.357,.49,.357,.805s-.119,.583-.357,.808c-.238,.224-.524,.336-.86,.336Zm-1.133,9.179v-8.131h2.256v8.131h-2.256Z"/>
    <path d="M1177.468,220.295v1.694h-4.896v-1.694h4.896Zm-3.785-1.948h2.255v7.581c0,.208,.032,.369,.096,.484,.063,.114,.152,.194,.268,.24,.114,.046,.248,.069,.399,.069,.105,0,.212-.01,.317-.029,.106-.02,.188-.034,.244-.045l.354,1.678c-.113,.035-.272,.077-.477,.124-.205,.048-.453,.077-.746,.088-.544,.021-1.02-.052-1.427-.217-.408-.166-.725-.424-.95-.773s-.337-.79-.334-1.323v-7.877Z"/>
    <path d="M1185.589,222.614l-2.064,.127c-.035-.176-.111-.336-.228-.479s-.27-.258-.458-.344c-.188-.087-.414-.13-.675-.13-.35,0-.645,.073-.884,.22-.24,.146-.36,.341-.36,.585,0,.193,.077,.357,.232,.492,.155,.134,.422,.241,.8,.322l1.472,.297c.79,.162,1.38,.424,1.768,.783,.389,.36,.583,.833,.583,1.419,0,.533-.156,1-.469,1.402s-.739,.716-1.281,.939c-.542,.225-1.165,.337-1.871,.337-1.076,0-1.933-.226-2.57-.675-.637-.45-1.01-1.063-1.119-1.84l2.218-.116c.067,.328,.229,.577,.487,.749,.257,.171,.587,.257,.989,.257,.396,0,.714-.077,.956-.23,.241-.153,.364-.353,.367-.596-.003-.205-.09-.373-.259-.506-.17-.132-.431-.233-.783-.304l-1.408-.281c-.794-.158-1.385-.434-1.771-.825-.387-.392-.58-.892-.58-1.498,0-.522,.143-.973,.426-1.35,.284-.378,.685-.669,1.202-.874,.517-.204,1.123-.307,1.818-.307,1.026,0,1.836,.217,2.427,.65,.591,.435,.937,1.025,1.035,1.773Z"/>
  </g>
  <g class="cls-12">
    <path d="M1092.001,253.675v10.841h-2.292v-8.665h-.063l-2.482,1.556v-2.032l2.684-1.699h2.154Z"/>
    <path d="M1098.586,264.665c-.79,0-1.493-.137-2.109-.41s-1.101-.651-1.456-1.133c-.354-.482-.537-1.039-.548-1.67h2.309c.014,.265,.102,.496,.262,.695,.16,.2,.375,.354,.644,.464,.268,.109,.569,.164,.905,.164,.349,0,.657-.062,.926-.186,.269-.124,.479-.295,.63-.514s.228-.471,.228-.757c0-.289-.08-.546-.24-.771-.161-.224-.391-.399-.688-.526s-.652-.19-1.062-.19h-1.011v-1.684h1.011c.346,0,.652-.06,.919-.18,.266-.12,.474-.287,.621-.5,.148-.214,.223-.464,.223-.749,0-.272-.064-.511-.193-.718-.129-.206-.309-.368-.54-.484-.23-.116-.5-.175-.807-.175-.311,0-.595,.056-.853,.167s-.464,.27-.619,.474c-.155,.205-.238,.445-.249,.72h-2.196c.01-.624,.188-1.175,.534-1.651s.812-.85,1.4-1.119c.587-.271,1.252-.405,1.993-.405,.748,0,1.402,.136,1.964,.407,.561,.272,.997,.639,1.31,1.099,.312,.461,.467,.977,.463,1.549,.004,.606-.184,1.113-.563,1.519-.379,.406-.872,.664-1.479,.773v.085c.798,.102,1.405,.378,1.824,.828,.418,.45,.625,1.012,.621,1.686,.004,.618-.174,1.167-.531,1.646-.358,.479-.852,.857-1.479,1.133-.629,.275-1.349,.413-2.16,.413Z"/>
    <path d="M1108.305,260.064v-1.895h7.495v1.895h-7.495Zm2.8,2.801v-7.496h1.896v7.496h-1.896Z"/>
    <path d="M1125.148,264.675c-.833,0-1.548-.178-2.146-.532-.598-.354-1.057-.848-1.376-1.479s-.479-1.358-.479-2.181c0-.833,.162-1.564,.484-2.194,.323-.63,.783-1.122,1.379-1.477,.597-.355,1.306-.532,2.128-.532,.71,0,1.331,.129,1.863,.386,.533,.258,.955,.62,1.266,1.086s.481,1.013,.514,1.641h-2.128c-.061-.406-.218-.733-.474-.982-.256-.248-.591-.373-1.004-.373-.349,0-.653,.095-.913,.283-.259,.189-.461,.464-.605,.823-.146,.36-.218,.796-.218,1.308,0,.519,.072,.96,.215,1.323s.345,.641,.606,.831c.261,.19,.566,.286,.915,.286,.258,0,.49-.053,.696-.159,.207-.105,.378-.26,.514-.463s.225-.447,.268-.733h2.128c-.035,.621-.204,1.167-.506,1.639-.302,.471-.717,.839-1.246,1.104s-1.156,.397-1.88,.397Z"/>
    <path d="M1133.903,264.675c-.822,0-1.532-.176-2.13-.527-.599-.351-1.06-.842-1.385-1.472-.324-.63-.487-1.361-.487-2.193,0-.84,.163-1.575,.487-2.205,.325-.63,.786-1.12,1.385-1.472,.598-.351,1.308-.526,2.13-.526s1.533,.176,2.131,.526c.599,.352,1.06,.842,1.384,1.472,.325,.63,.487,1.365,.487,2.205,0,.832-.162,1.563-.487,2.193-.324,.63-.785,1.121-1.384,1.472-.598,.352-1.309,.527-2.131,.527Zm.011-1.747c.374,0,.687-.106,.938-.32,.25-.214,.439-.506,.568-.876,.129-.371,.193-.792,.193-1.266s-.064-.895-.193-1.265c-.129-.371-.318-.663-.568-.879-.251-.215-.563-.323-.938-.323-.378,0-.694,.108-.95,.323-.256,.216-.448,.508-.577,.879-.129,.37-.193,.792-.193,1.265s.064,.895,.193,1.266c.129,.37,.321,.662,.577,.876s.572,.32,.95,.32Z"/>
    <path d="M1139.377,264.516v-8.131h2.149v1.435h.096c.169-.477,.451-.853,.847-1.127,.396-.275,.868-.413,1.419-.413,.558,0,1.032,.139,1.424,.415,.392,.277,.652,.652,.783,1.125h.085c.166-.466,.467-.839,.902-1.119,.436-.281,.952-.421,1.548-.421,.759,0,1.376,.24,1.851,.723,.475,.481,.712,1.163,.712,2.046v5.468h-2.25v-5.023c0-.452-.12-.79-.359-1.017-.24-.226-.54-.339-.9-.339-.409,0-.729,.13-.958,.39-.229,.259-.344,.601-.344,1.024v4.965h-2.187v-5.071c0-.398-.113-.716-.342-.952-.228-.237-.526-.355-.896-.355-.251,0-.476,.063-.675,.188-.2,.125-.357,.3-.475,.523-.116,.225-.174,.486-.174,.786v4.881h-2.256Z"/>
    <path d="M1152.97,264.516v-8.131h2.149v1.435h.096c.169-.477,.451-.853,.847-1.127,.396-.275,.868-.413,1.419-.413,.558,0,1.032,.139,1.424,.415,.392,.277,.652,.652,.783,1.125h.085c.166-.466,.467-.839,.902-1.119,.436-.281,.952-.421,1.548-.421,.759,0,1.376,.24,1.851,.723,.475,.481,.712,1.163,.712,2.046v5.468h-2.25v-5.023c0-.452-.12-.79-.359-1.017-.24-.226-.54-.339-.9-.339-.409,0-.729,.13-.958,.39-.229,.259-.344,.601-.344,1.024v4.965h-2.187v-5.071c0-.398-.113-.716-.342-.952-.228-.237-.526-.355-.896-.355-.251,0-.476,.063-.675,.188-.2,.125-.357,.3-.475,.523-.116,.225-.174,.486-.174,.786v4.881h-2.256Z"/>
    <path d="M1167.696,255.337c-.335,0-.621-.111-.859-.334-.238-.222-.357-.49-.357-.805s.12-.583,.359-.807c.24-.225,.526-.336,.857-.336,.336,0,.622,.111,.86,.333,.238,.223,.357,.49,.357,.805s-.119,.583-.357,.808c-.238,.224-.524,.336-.86,.336Zm-1.133,9.179v-8.131h2.256v8.131h-2.256Z"/>
    <path d="M1174.943,256.385v1.694h-4.896v-1.694h4.896Zm-3.785-1.948h2.255v7.581c0,.208,.032,.369,.096,.484,.063,.114,.152,.194,.268,.24,.114,.046,.248,.069,.399,.069,.105,0,.212-.01,.317-.029,.106-.02,.188-.034,.244-.045l.354,1.678c-.113,.035-.272,.077-.477,.124-.205,.048-.453,.077-.746,.088-.544,.021-1.02-.052-1.427-.217-.408-.166-.725-.424-.95-.773s-.337-.79-.334-1.323v-7.877Z"/>
    <path d="M1183.063,258.704l-2.064,.127c-.035-.176-.111-.336-.228-.479s-.27-.258-.458-.344c-.188-.087-.414-.13-.675-.13-.35,0-.645,.073-.884,.22-.24,.146-.36,.341-.36,.585,0,.193,.077,.357,.232,.492,.155,.134,.422,.241,.8,.322l1.472,.297c.79,.162,1.38,.424,1.768,.783,.389,.36,.583,.833,.583,1.419,0,.533-.156,1-.469,1.402s-.739,.716-1.281,.939c-.542,.225-1.165,.337-1.871,.337-1.076,0-1.933-.226-2.57-.675-.637-.45-1.01-1.063-1.119-1.84l2.218-.116c.067,.328,.229,.577,.487,.749,.257,.171,.587,.257,.989,.257,.396,0,.714-.077,.956-.23,.241-.153,.364-.353,.367-.596-.003-.205-.09-.373-.259-.506-.17-.132-.431-.233-.783-.304l-1.408-.281c-.794-.158-1.385-.434-1.771-.825-.387-.392-.58-.892-.58-1.498,0-.522,.143-.973,.426-1.35,.284-.378,.685-.669,1.202-.874,.517-.204,1.123-.307,1.818-.307,1.026,0,1.836,.217,2.427,.65,.591,.435,.937,1.025,1.035,1.773Z"/>
  </g>
  <g class="cls-12">
    <path d="M1091.445,300.756c-.558-.004-1.095-.098-1.611-.281-.518-.183-.98-.481-1.39-.895-.409-.412-.733-.959-.972-1.641-.238-.681-.357-1.518-.357-2.509,.004-.911,.108-1.725,.315-2.443,.206-.718,.503-1.327,.89-1.829,.386-.501,.849-.883,1.389-1.146s1.146-.395,1.816-.395c.723,0,1.361,.141,1.916,.421,.554,.28,.999,.661,1.336,1.141,.338,.48,.541,1.019,.612,1.614h-2.261c-.088-.377-.273-.674-.556-.889-.282-.216-.632-.323-1.048-.323-.706,0-1.242,.307-1.607,.921s-.551,1.449-.558,2.504h.074c.162-.321,.382-.596,.658-.823,.277-.228,.593-.402,.948-.523,.354-.122,.729-.183,1.124-.183,.643,0,1.215,.15,1.716,.452s.896,.716,1.186,1.241c.289,.526,.434,1.128,.434,1.806,0,.733-.17,1.387-.511,1.958-.34,.572-.814,1.02-1.424,1.342-.608,.323-1.315,.482-2.12,.479Zm-.011-1.8c.354,0,.669-.085,.948-.254,.278-.17,.497-.399,.656-.688,.158-.289,.238-.614,.238-.974s-.079-.684-.235-.969c-.157-.286-.374-.514-.648-.684-.275-.169-.59-.254-.942-.254-.265,0-.51,.05-.733,.148-.225,.099-.42,.236-.588,.413-.167,.177-.299,.38-.395,.611-.095,.231-.143,.478-.143,.738,0,.35,.08,.669,.241,.958,.16,.289,.379,.521,.656,.693s.592,.26,.944,.26Z"/>
    <path d="M1101.021,296.156v-1.895h7.495v1.895h-7.495Zm2.8,2.801v-7.496h1.896v7.496h-1.896Z"/>
    <path d="M1117.865,300.767c-.833,0-1.548-.178-2.146-.532-.598-.354-1.057-.848-1.376-1.479s-.479-1.358-.479-2.181c0-.833,.162-1.564,.484-2.194,.323-.63,.783-1.122,1.379-1.477,.597-.355,1.306-.532,2.128-.532,.71,0,1.331,.129,1.863,.386,.533,.258,.955,.62,1.266,1.086s.481,1.013,.514,1.641h-2.128c-.061-.406-.218-.733-.474-.982-.256-.248-.591-.373-1.004-.373-.349,0-.653,.095-.913,.283-.259,.189-.461,.464-.605,.823-.146,.36-.218,.796-.218,1.308,0,.519,.072,.96,.215,1.323s.345,.641,.606,.831c.261,.19,.566,.286,.915,.286,.258,0,.49-.053,.696-.159,.207-.105,.378-.26,.514-.463s.225-.447,.268-.733h2.128c-.035,.621-.204,1.167-.506,1.639-.302,.471-.717,.839-1.246,1.104s-1.156,.397-1.88,.397Z"/>
    <path d="M1126.62,300.767c-.822,0-1.532-.176-2.13-.527-.599-.351-1.06-.842-1.385-1.472-.324-.63-.487-1.361-.487-2.193,0-.84,.163-1.575,.487-2.205,.325-.63,.786-1.12,1.385-1.472,.598-.351,1.308-.526,2.13-.526s1.533,.176,2.131,.526c.599,.352,1.06,.842,1.384,1.472,.325,.63,.487,1.365,.487,2.205,0,.832-.162,1.563-.487,2.193-.324,.63-.785,1.121-1.384,1.472-.598,.352-1.309,.527-2.131,.527Zm.011-1.747c.374,0,.687-.106,.938-.32,.25-.214,.439-.506,.568-.876,.129-.371,.193-.792,.193-1.266s-.064-.895-.193-1.265c-.129-.371-.318-.663-.568-.879-.251-.215-.563-.323-.938-.323-.378,0-.694,.108-.95,.323-.256,.216-.448,.508-.577,.879-.129,.37-.193,.792-.193,1.265s.064,.895,.193,1.266c.129,.37,.321,.662,.577,.876s.572,.32,.95,.32Z"/>
    <path d="M1132.093,300.608v-8.131h2.149v1.435h.096c.169-.477,.451-.853,.847-1.127,.396-.275,.868-.413,1.419-.413,.558,0,1.032,.139,1.424,.415,.392,.277,.652,.652,.783,1.125h.085c.166-.466,.467-.839,.902-1.119,.436-.281,.952-.421,1.548-.421,.759,0,1.376,.24,1.851,.723,.475,.481,.712,1.163,.712,2.046v5.468h-2.25v-5.023c0-.452-.12-.79-.359-1.017-.24-.226-.54-.339-.9-.339-.409,0-.729,.13-.958,.39-.229,.259-.344,.601-.344,1.024v4.965h-2.187v-5.071c0-.398-.113-.716-.342-.952-.228-.237-.526-.355-.896-.355-.251,0-.476,.063-.675,.188-.2,.125-.357,.3-.475,.523-.116,.225-.174,.486-.174,.786v4.881h-2.256Z"/>
    <path d="M1145.687,300.608v-8.131h2.149v1.435h.096c.169-.477,.451-.853,.847-1.127,.396-.275,.868-.413,1.419-.413,.558,0,1.032,.139,1.424,.415,.392,.277,.652,.652,.783,1.125h.085c.166-.466,.467-.839,.902-1.119,.436-.281,.952-.421,1.548-.421,.759,0,1.376,.24,1.851,.723,.475,.481,.712,1.163,.712,2.046v5.468h-2.25v-5.023c0-.452-.12-.79-.359-1.017-.24-.226-.54-.339-.9-.339-.409,0-.729,.13-.958,.39-.229,.259-.344,.601-.344,1.024v4.965h-2.187v-5.071c0-.398-.113-.716-.342-.952-.228-.237-.526-.355-.896-.355-.251,0-.476,.063-.675,.188-.2,.125-.357,.3-.475,.523-.116,.225-.174,.486-.174,.786v4.881h-2.256Z"/>
    <path d="M1160.413,291.429c-.335,0-.621-.111-.859-.334-.238-.222-.357-.49-.357-.805s.12-.583,.359-.807c.24-.225,.526-.336,.857-.336,.336,0,.622,.111,.86,.333,.238,.223,.357,.49,.357,.805s-.119,.583-.357,.808c-.238,.224-.524,.336-.86,.336Zm-1.133,9.179v-8.131h2.256v8.131h-2.256Z"/>
    <path d="M1167.66,292.477v1.694h-4.896v-1.694h4.896Zm-3.785-1.948h2.255v7.581c0,.208,.032,.369,.096,.484,.063,.114,.152,.194,.268,.24,.114,.046,.248,.069,.399,.069,.105,0,.212-.01,.317-.029,.106-.02,.188-.034,.244-.045l.354,1.678c-.113,.035-.272,.077-.477,.124-.205,.048-.453,.077-.746,.088-.544,.021-1.02-.052-1.427-.217-.408-.166-.725-.424-.95-.773s-.337-.79-.334-1.323v-7.877Z"/>
    <path d="M1175.78,294.795l-2.064,.127c-.035-.176-.111-.336-.228-.479s-.27-.258-.458-.344c-.188-.087-.414-.13-.675-.13-.35,0-.645,.073-.884,.22-.24,.146-.36,.341-.36,.585,0,.193,.077,.357,.232,.492,.155,.134,.422,.241,.8,.322l1.472,.297c.79,.162,1.38,.424,1.768,.783,.389,.36,.583,.833,.583,1.419,0,.533-.156,1-.469,1.402s-.739,.716-1.281,.939c-.542,.225-1.165,.337-1.871,.337-1.076,0-1.933-.226-2.57-.675-.637-.45-1.01-1.063-1.119-1.84l2.218-.116c.067,.328,.229,.577,.487,.749,.257,.171,.587,.257,.989,.257,.396,0,.714-.077,.956-.23,.241-.153,.364-.353,.367-.596-.003-.205-.09-.373-.259-.506-.17-.132-.431-.233-.783-.304l-1.408-.281c-.794-.158-1.385-.434-1.771-.825-.387-.392-.58-.892-.58-1.498,0-.522,.143-.973,.426-1.35,.284-.378,.685-.669,1.202-.874,.517-.204,1.123-.307,1.818-.307,1.026,0,1.836,.217,2.427,.65,.591,.435,.937,1.025,1.035,1.773Z"/>
  </g>
  <g class="cls-12">
    <path d="M1091.535,336.935c-.91-.004-1.692-.228-2.348-.672-.654-.445-1.157-1.089-1.508-1.933-.352-.844-.525-1.858-.521-3.044,0-1.182,.175-2.189,.526-3.022s.854-1.467,1.509-1.902c.654-.437,1.436-.654,2.342-.654s1.688,.219,2.343,.656,1.158,1.072,1.512,1.903c.353,.831,.527,1.838,.523,3.02,0,1.189-.176,2.206-.526,3.049-.352,.844-.854,1.488-1.506,1.933-.653,.444-1.435,.667-2.346,.667Zm0-1.9c.621,0,1.117-.312,1.488-.937,.37-.625,.554-1.562,.55-2.812,0-.822-.084-1.507-.251-2.054-.168-.547-.404-.958-.709-1.233-.306-.275-.665-.413-1.078-.413-.617,0-1.111,.31-1.481,.927-.371,.617-.558,1.542-.562,2.773,0,.833,.084,1.527,.252,2.083,.167,.556,.404,.973,.712,1.249,.307,.277,.667,.416,1.079,.416Z"/>
    <path d="M1101.439,332.245v-1.895h7.495v1.895h-7.495Zm2.8,2.801v-7.496h1.896v7.496h-1.896Z"/>
    <path d="M1118.283,336.856c-.833,0-1.548-.178-2.146-.532-.598-.354-1.057-.848-1.376-1.479s-.479-1.358-.479-2.181c0-.833,.162-1.564,.484-2.194,.323-.63,.783-1.122,1.379-1.477,.597-.355,1.306-.532,2.128-.532,.71,0,1.331,.129,1.863,.386,.533,.258,.955,.62,1.266,1.086s.481,1.013,.514,1.641h-2.128c-.061-.406-.218-.733-.474-.982-.256-.248-.591-.373-1.004-.373-.349,0-.653,.095-.913,.283-.259,.189-.461,.464-.605,.823-.146,.36-.218,.796-.218,1.308,0,.519,.072,.96,.215,1.323s.345,.641,.606,.831c.261,.19,.566,.286,.915,.286,.258,0,.49-.053,.696-.159,.207-.105,.378-.26,.514-.463s.225-.447,.268-.733h2.128c-.035,.621-.204,1.167-.506,1.639-.302,.471-.717,.839-1.246,1.104s-1.156,.397-1.88,.397Z"/>
    <path d="M1127.038,336.856c-.822,0-1.532-.176-2.13-.527-.599-.351-1.06-.842-1.385-1.472-.324-.63-.487-1.361-.487-2.193,0-.84,.163-1.575,.487-2.205,.325-.63,.786-1.12,1.385-1.472,.598-.351,1.308-.526,2.13-.526s1.533,.176,2.131,.526c.599,.352,1.06,.842,1.384,1.472,.325,.63,.487,1.365,.487,2.205,0,.832-.162,1.563-.487,2.193-.324,.63-.785,1.121-1.384,1.472-.598,.352-1.309,.527-2.131,.527Zm.011-1.747c.374,0,.687-.106,.938-.32,.25-.214,.439-.506,.568-.876,.129-.371,.193-.792,.193-1.266s-.064-.895-.193-1.265c-.129-.371-.318-.663-.568-.879-.251-.215-.563-.323-.938-.323-.378,0-.694,.108-.95,.323-.256,.216-.448,.508-.577,.879-.129,.37-.193,.792-.193,1.265s.064,.895,.193,1.266c.129,.37,.321,.662,.577,.876s.572,.32,.95,.32Z"/>
    <path d="M1132.512,336.697v-8.131h2.149v1.435h.096c.169-.477,.451-.853,.847-1.127,.396-.275,.868-.413,1.419-.413,.558,0,1.032,.139,1.424,.415,.392,.277,.652,.652,.783,1.125h.085c.166-.466,.467-.839,.902-1.119,.436-.281,.952-.421,1.548-.421,.759,0,1.376,.24,1.851,.723,.475,.481,.712,1.163,.712,2.046v5.468h-2.25v-5.023c0-.452-.12-.79-.359-1.017-.24-.226-.54-.339-.9-.339-.409,0-.729,.13-.958,.39-.229,.259-.344,.601-.344,1.024v4.965h-2.187v-5.071c0-.398-.113-.716-.342-.952-.228-.237-.526-.355-.896-.355-.251,0-.476,.063-.675,.188-.2,.125-.357,.3-.475,.523-.116,.225-.174,.486-.174,.786v4.881h-2.256Z"/>
    <path d="M1146.104,336.697v-8.131h2.149v1.435h.096c.169-.477,.451-.853,.847-1.127,.396-.275,.868-.413,1.419-.413,.558,0,1.032,.139,1.424,.415,.392,.277,.652,.652,.783,1.125h.085c.166-.466,.467-.839,.902-1.119,.436-.281,.952-.421,1.548-.421,.759,0,1.376,.24,1.851,.723,.475,.481,.712,1.163,.712,2.046v5.468h-2.25v-5.023c0-.452-.12-.79-.359-1.017-.24-.226-.54-.339-.9-.339-.409,0-.729,.13-.958,.39-.229,.259-.344,.601-.344,1.024v4.965h-2.187v-5.071c0-.398-.113-.716-.342-.952-.228-.237-.526-.355-.896-.355-.251,0-.476,.063-.675,.188-.2,.125-.357,.3-.475,.523-.116,.225-.174,.486-.174,.786v4.881h-2.256Z"/>
    <path d="M1160.831,327.518c-.335,0-.621-.111-.859-.334-.238-.222-.357-.49-.357-.805s.12-.583,.359-.807c.24-.225,.526-.336,.857-.336,.336,0,.622,.111,.86,.333,.238,.223,.357,.49,.357,.805s-.119,.583-.357,.808c-.238,.224-.524,.336-.86,.336Zm-1.133,9.179v-8.131h2.256v8.131h-2.256Z"/>
    <path d="M1168.078,328.566v1.694h-4.896v-1.694h4.896Zm-3.785-1.948h2.255v7.581c0,.208,.032,.369,.096,.484,.063,.114,.152,.194,.268,.24,.114,.046,.248,.069,.399,.069,.105,0,.212-.01,.317-.029,.106-.02,.188-.034,.244-.045l.354,1.678c-.113,.035-.272,.077-.477,.124-.205,.048-.453,.077-.746,.088-.544,.021-1.02-.052-1.427-.217-.408-.166-.725-.424-.95-.773s-.337-.79-.334-1.323v-7.877Z"/>
    <path d="M1176.198,330.884l-2.064,.127c-.035-.176-.111-.336-.228-.479s-.27-.258-.458-.344c-.188-.087-.414-.13-.675-.13-.35,0-.645,.073-.884,.22-.24,.146-.36,.341-.36,.585,0,.193,.077,.357,.232,.492,.155,.134,.422,.241,.8,.322l1.472,.297c.79,.162,1.38,.424,1.768,.783,.389,.36,.583,.833,.583,1.419,0,.533-.156,1-.469,1.402s-.739,.716-1.281,.939c-.542,.225-1.165,.337-1.871,.337-1.076,0-1.933-.226-2.57-.675-.637-.45-1.01-1.063-1.119-1.84l2.218-.116c.067,.328,.229,.577,.487,.749,.257,.171,.587,.257,.989,.257,.396,0,.714-.077,.956-.23,.241-.153,.364-.353,.367-.596-.003-.205-.09-.373-.259-.506-.17-.132-.431-.233-.783-.304l-1.408-.281c-.794-.158-1.385-.434-1.771-.825-.387-.392-.58-.892-.58-1.498,0-.522,.143-.973,.426-1.35,.284-.378,.685-.669,1.202-.874,.517-.204,1.123-.307,1.818-.307,1.026,0,1.836,.217,2.427,.65,.591,.435,.937,1.025,1.035,1.773Z"/>
  </g>
  <rect class="cls-8" x="1035.407" y="176.064" width="29.606" height="21.635" rx="3.424" ry="3.424"/>
  <rect class="cls-4" x="1035.407" y="212.462" width="29.606" height="21.635" rx="3.424" ry="3.424"/>
  <rect class="cls-7" x="1035.407" y="248.86" width="29.606" height="21.635" rx="3.424" ry="3.424"/>
  <rect class="cls-5" x="1035.407" y="285.258" width="29.606" height="21.635" rx="3.424" ry="3.424"/>
  <rect class="cls-9" x="1035.407" y="321.657" width="29.606" height="21.635" rx="3.424" ry="3.424"/>
  <rect class="cls-3" x="339.486" y="618.19" width="280.877" height="199.601" rx="9.389" ry="9.389"/>
  <g class="cls-12">
    <g>
      <path d="M368.804,639.969v15.993h-3.381v-15.993h3.381Z"/>
      <path d="M374.856,649.028v6.935h-3.327v-11.995h3.17v2.116h.141c.266-.697,.711-1.251,1.335-1.659,.625-.409,1.382-.613,2.272-.613,.833,0,1.56,.183,2.179,.547,.619,.364,1.101,.884,1.444,1.558,.344,.675,.516,1.478,.516,2.409v7.638h-3.327v-7.044c.005-.734-.183-1.309-.562-1.722-.38-.414-.903-.621-1.57-.621-.448,0-.842,.097-1.183,.289-.341,.192-.606,.473-.796,.839-.19,.367-.288,.809-.293,1.324Z"/>
      <path d="M395.184,647.387l-3.046,.188c-.052-.26-.164-.495-.335-.706-.172-.211-.397-.38-.676-.508s-.61-.191-.996-.191c-.516,0-.95,.108-1.304,.324s-.531,.504-.531,.863c0,.286,.115,.528,.344,.726,.229,.198,.622,.356,1.179,.477l2.171,.438c1.167,.239,2.036,.625,2.608,1.155,.573,.531,.859,1.229,.859,2.094,0,.786-.23,1.476-.691,2.069-.46,.593-1.091,1.056-1.89,1.386-.799,.331-1.72,.496-2.761,.496-1.588,0-2.852-.332-3.792-.996-.94-.663-1.49-1.568-1.652-2.714l3.272-.172c.099,.484,.338,.854,.718,1.105,.38,.253,.867,.379,1.46,.379,.583,0,1.053-.113,1.41-.34,.356-.227,.538-.52,.542-.879-.005-.302-.133-.55-.382-.745-.25-.195-.635-.345-1.156-.449l-2.078-.414c-1.171-.234-2.042-.641-2.612-1.218-.57-.578-.855-1.315-.855-2.211,0-.771,.209-1.434,.629-1.991,.419-.557,1.01-.986,1.772-1.288s1.657-.453,2.683-.453c1.515,0,2.708,.32,3.581,.961,.872,.64,1.381,1.512,1.527,2.615Z"/>
      <path d="M399.229,642.421c-.495,0-.918-.164-1.269-.492-.352-.328-.527-.724-.527-1.188s.177-.86,.531-1.19c.354-.331,.775-.496,1.265-.496,.494,0,.917,.164,1.269,.492,.351,.328,.527,.724,.527,1.187s-.176,.86-.527,1.191c-.352,.33-.775,.496-1.269,.496Zm-1.671,13.541v-11.995h3.327v11.995h-3.327Z"/>
      <path d="M408.943,660.71c-1.078,0-2.001-.147-2.769-.441-.768-.294-1.378-.693-1.832-1.198-.453-.505-.747-1.073-.882-1.703l3.077-.413c.094,.239,.242,.463,.445,.671s.473,.376,.808,.504c.336,.128,.746,.191,1.23,.191,.724,0,1.321-.176,1.792-.527s.707-.938,.707-1.761v-2.194h-.14c-.146,.333-.365,.648-.656,.944-.292,.297-.667,.539-1.125,.727s-1.005,.281-1.64,.281c-.9,0-1.719-.209-2.456-.629-.737-.419-1.322-1.062-1.757-1.929-.435-.867-.652-1.964-.652-3.292,0-1.358,.221-2.493,.664-3.404,.442-.911,1.032-1.594,1.769-2.046,.737-.453,1.545-.68,2.425-.68,.672,0,1.234,.113,1.687,.34s.819,.508,1.097,.843c.278,.336,.493,.666,.645,.988h.125v-2.015h3.304v12.112c0,1.021-.25,1.874-.75,2.562-.5,.688-1.191,1.204-2.073,1.55-.882,.347-1.896,.52-3.042,.52Zm.07-7.419c.537,0,.991-.134,1.363-.402,.373-.268,.659-.653,.859-1.155,.2-.503,.3-1.105,.3-1.809s-.099-1.312-.296-1.831c-.198-.518-.484-.92-.859-1.206-.375-.286-.83-.43-1.367-.43-.546,0-1.007,.147-1.382,.441-.375,.294-.659,.701-.852,1.222-.192,.521-.289,1.122-.289,1.804,0,.693,.097,1.29,.292,1.793,.195,.502,.479,.89,.852,1.163,.372,.273,.832,.41,1.378,.41Z"/>
      <path d="M420.79,649.028v6.935h-3.327v-15.993h3.233v6.114h.141c.271-.708,.708-1.264,1.312-1.667s1.361-.605,2.272-.605c.833,0,1.561,.181,2.183,.543,.622,.361,1.106,.88,1.453,1.554,.346,.675,.517,1.479,.512,2.417v7.638h-3.327v-7.044c.005-.739-.181-1.314-.559-1.726-.377-.412-.905-.617-1.582-.617-.453,0-.853,.097-1.199,.289s-.617,.473-.812,.839c-.195,.367-.295,.809-.301,1.324Z"/>
      <path d="M437.572,643.967v2.499h-7.224v-2.499h7.224Zm-5.584-2.874h3.327v11.184c0,.307,.047,.545,.14,.714,.094,.17,.226,.288,.395,.355s.366,.102,.59,.102c.156,0,.312-.015,.468-.043s.276-.051,.359-.066l.523,2.476c-.167,.052-.401,.113-.703,.184s-.669,.113-1.101,.129c-.802,.031-1.503-.075-2.104-.32-.602-.244-1.069-.625-1.402-1.14-.333-.516-.497-1.167-.492-1.953v-11.62Z"/>
      <path d="M449.552,647.387l-3.046,.188c-.052-.26-.164-.495-.335-.706-.172-.211-.397-.38-.676-.508s-.61-.191-.996-.191c-.516,0-.95,.108-1.304,.324s-.531,.504-.531,.863c0,.286,.115,.528,.344,.726,.229,.198,.622,.356,1.179,.477l2.171,.438c1.167,.239,2.036,.625,2.608,1.155,.573,.531,.859,1.229,.859,2.094,0,.786-.23,1.476-.691,2.069-.46,.593-1.091,1.056-1.89,1.386-.799,.331-1.72,.496-2.761,.496-1.588,0-2.852-.332-3.792-.996-.94-.663-1.49-1.568-1.652-2.714l3.272-.172c.099,.484,.338,.854,.718,1.105,.38,.253,.867,.379,1.46,.379,.583,0,1.053-.113,1.41-.34,.356-.227,.538-.52,.542-.879-.005-.302-.133-.55-.382-.745-.25-.195-.635-.345-1.156-.449l-2.078-.414c-1.171-.234-2.042-.641-2.612-1.218-.57-.578-.855-1.315-.855-2.211,0-.771,.209-1.434,.629-1.991,.419-.557,1.01-.986,1.772-1.288s1.657-.453,2.683-.453c1.515,0,2.708,.32,3.581,.961,.872,.64,1.381,1.512,1.527,2.615Z"/>
    </g>
  </g>
  <line class="cls-11" x1="339.486" y1="672.058" x2="620.363" y2="672.058"/>
  <g class="cls-12">
    <path d="M365.345,705.861v-10.841h1.312v9.676h5.04v1.165h-6.352Z"/>
    <path d="M375.953,706.051c-.516,0-.983-.098-1.403-.294-.42-.195-.753-.479-1-.852-.247-.373-.371-.823-.371-1.353,0-.466,.092-.845,.275-1.136s.429-.52,.736-.686c.307-.166,.646-.29,1.019-.373,.372-.083,.747-.149,1.125-.198,.494-.063,.896-.112,1.205-.146,.309-.034,.535-.091,.677-.173,.143-.081,.214-.222,.214-.423v-.043c0-.521-.142-.928-.426-1.217-.284-.29-.714-.435-1.289-.435-.597,0-1.064,.131-1.403,.392-.339,.262-.577,.54-.715,.837l-1.186-.424c.212-.494,.495-.88,.85-1.156,.354-.277,.743-.472,1.165-.583,.422-.11,.837-.166,1.247-.166,.261,0,.562,.03,.903,.093,.34,.062,.67,.188,.99,.378s.585,.479,.796,.863c.212,.385,.318,.899,.318,1.545v5.357h-1.25v-1.101h-.063c-.084,.176-.226,.365-.423,.566s-.46,.372-.789,.513c-.328,.142-.729,.212-1.202,.212Zm.19-1.122c.494,0,.911-.097,1.252-.291,.34-.194,.598-.444,.773-.752,.174-.307,.262-.63,.262-.969v-1.144c-.053,.063-.168,.121-.347,.173-.178,.051-.383,.095-.614,.132-.231,.037-.456,.069-.672,.096-.217,.026-.393,.048-.527,.065-.325,.043-.627,.11-.908,.204s-.506,.233-.678,.418c-.171,.186-.256,.437-.256,.755,0,.434,.161,.761,.484,.981,.323,.221,.733,.331,1.23,.331Z"/>
    <path d="M385.502,697.73v1.059h-4.213v-1.059h4.213Zm-2.985-1.948h1.25v7.75c0,.353,.052,.616,.156,.791s.238,.291,.402,.35,.338,.088,.521,.088c.138,0,.25-.009,.339-.024s.159-.029,.212-.04l.254,1.123c-.085,.031-.203,.064-.354,.098-.152,.033-.344,.05-.577,.05-.353,0-.698-.075-1.035-.228-.337-.151-.616-.383-.836-.693-.221-.311-.331-.702-.331-1.175v-8.089Z"/>
    <path d="M390.711,706.03c-.783,0-1.458-.173-2.024-.521s-1.002-.835-1.308-1.462c-.305-.626-.458-1.355-.458-2.188s.153-1.567,.458-2.205c.305-.637,.732-1.134,1.281-1.492s1.19-.537,1.924-.537c.423,0,.842,.07,1.254,.212,.413,.141,.789,.369,1.127,.686,.339,.315,.609,.732,.81,1.251,.201,.52,.302,1.158,.302,1.917v.529h-6.268v-1.08h4.997c0-.459-.091-.868-.272-1.229-.182-.359-.439-.644-.773-.852s-.726-.312-1.178-.312c-.498,0-.927,.122-1.289,.368-.362,.245-.64,.563-.833,.955-.194,.392-.291,.812-.291,1.26v.72c0,.614,.106,1.134,.32,1.56,.214,.425,.511,.748,.892,.969,.381,.22,.824,.33,1.329,.33,.328,0,.625-.047,.892-.14,.267-.094,.497-.235,.691-.424,.194-.188,.344-.424,.45-.707l1.207,.339c-.127,.41-.341,.769-.641,1.077-.3,.31-.67,.549-1.111,.721-.441,.171-.937,.256-1.488,.256Z"/>
    <path d="M401.743,699.551l-1.123,.317c-.07-.187-.174-.369-.31-.548-.136-.178-.32-.325-.553-.442-.233-.116-.531-.174-.895-.174-.498,0-.911,.113-1.241,.341s-.495,.517-.495,.865c0,.311,.113,.557,.339,.736,.226,.18,.579,.33,1.059,.45l1.207,.296c.727,.177,1.269,.445,1.625,.808,.356,.361,.535,.826,.535,1.395,0,.466-.133,.882-.399,1.249-.267,.367-.638,.656-1.114,.868-.477,.212-1.031,.317-1.662,.317-.83,0-1.516-.18-2.06-.539-.543-.36-.887-.886-1.032-1.578l1.186-.296c.113,.438,.327,.766,.643,.984s.729,.328,1.241,.328c.583,0,1.045-.124,1.39-.373s.516-.548,.516-.897c0-.282-.099-.52-.296-.712s-.501-.336-.911-.432l-1.355-.317c-.745-.177-1.291-.451-1.638-.823-.348-.372-.521-.839-.521-1.4,0-.458,.129-.864,.389-1.217,.259-.354,.614-.63,1.064-.831,.45-.201,.96-.302,1.532-.302,.805,0,1.437,.176,1.898,.529,.46,.353,.788,.818,.982,1.397Z"/>
    <path d="M407.311,697.73v1.059h-4.213v-1.059h4.213Zm-2.985-1.948h1.25v7.75c0,.353,.052,.616,.156,.791s.238,.291,.402,.35,.338,.088,.521,.088c.138,0,.25-.009,.339-.024s.159-.029,.212-.04l.254,1.123c-.085,.031-.203,.064-.354,.098-.152,.033-.344,.05-.577,.05-.353,0-.698-.075-1.035-.228-.337-.151-.616-.383-.836-.693-.221-.311-.331-.702-.331-1.175v-8.089Z"/>
    <path d="M415.781,706.051c-.516,0-.983-.098-1.403-.294-.42-.195-.753-.479-1-.852-.247-.373-.371-.823-.371-1.353,0-.466,.092-.845,.275-1.136s.429-.52,.736-.686c.307-.166,.646-.29,1.019-.373,.372-.083,.747-.149,1.125-.198,.494-.063,.896-.112,1.205-.146,.309-.034,.535-.091,.677-.173,.143-.081,.214-.222,.214-.423v-.043c0-.521-.142-.928-.426-1.217-.284-.29-.714-.435-1.289-.435-.597,0-1.064,.131-1.403,.392-.339,.262-.577,.54-.715,.837l-1.186-.424c.212-.494,.495-.88,.85-1.156,.354-.277,.743-.472,1.165-.583,.422-.11,.837-.166,1.247-.166,.261,0,.562,.03,.903,.093,.34,.062,.67,.188,.99,.378s.585,.479,.796,.863c.212,.385,.318,.899,.318,1.545v5.357h-1.25v-1.101h-.063c-.084,.176-.226,.365-.423,.566s-.46,.372-.789,.513c-.328,.142-.729,.212-1.202,.212Zm.19-1.122c.494,0,.911-.097,1.252-.291,.34-.194,.598-.444,.773-.752,.174-.307,.262-.63,.262-.969v-1.144c-.053,.063-.168,.121-.347,.173-.178,.051-.383,.095-.614,.132-.231,.037-.456,.069-.672,.096-.217,.026-.393,.048-.527,.065-.325,.043-.627,.11-.908,.204s-.506,.233-.678,.418c-.171,.186-.256,.437-.256,.755,0,.434,.161,.761,.484,.981,.323,.221,.733,.331,1.23,.331Z"/>
    <path d="M425.097,706.03c-.762,0-1.418-.18-1.969-.539-.551-.36-.974-.856-1.271-1.488-.296-.631-.445-1.353-.445-2.165,0-.825,.153-1.555,.458-2.188s.732-1.129,1.281-1.487,1.19-.537,1.924-.537c.572,0,1.087,.105,1.546,.317,.458,.212,.834,.508,1.127,.89,.293,.381,.475,.825,.545,1.334h-1.249c-.095-.371-.306-.7-.633-.987-.326-.288-.765-.432-1.315-.432-.487,0-.913,.126-1.278,.378-.365,.253-.649,.607-.852,1.064-.203,.457-.304,.992-.304,1.606,0,.628,.1,1.175,.299,1.641s.482,.828,.847,1.086c.365,.257,.794,.386,1.289,.386,.325,0,.62-.056,.884-.169s.489-.275,.672-.487c.183-.212,.314-.466,.392-.762h1.249c-.07,.479-.244,.911-.521,1.294-.277,.383-.642,.687-1.096,.91-.453,.225-.98,.336-1.58,.336Z"/>
    <path d="M433.651,697.73v1.059h-4.213v-1.059h4.213Zm-2.985-1.948h1.25v7.75c0,.353,.052,.616,.156,.791s.238,.291,.402,.35,.338,.088,.521,.088c.138,0,.25-.009,.339-.024s.159-.029,.212-.04l.254,1.123c-.085,.031-.203,.064-.354,.098-.152,.033-.344,.05-.577,.05-.353,0-.698-.075-1.035-.228-.337-.151-.616-.383-.836-.693-.221-.311-.331-.702-.331-1.175v-8.089Z"/>
    <path d="M436.171,696.375c-.244,0-.453-.083-.627-.249s-.262-.365-.262-.599,.087-.432,.262-.598,.384-.249,.627-.249,.452,.083,.627,.249,.262,.365,.262,.598-.087,.433-.262,.599-.384,.249-.627,.249Zm-.635,9.485v-8.131h1.249v8.131h-1.249Z"/>
    <path d="M445.72,697.73l-3.007,8.131h-1.271l-3.006-8.131h1.355l2.245,6.479h.084l2.245-6.479h1.355Z"/>
    <path d="M448.007,696.375c-.244,0-.453-.083-.627-.249s-.262-.365-.262-.599,.087-.432,.262-.598,.384-.249,.627-.249,.452,.083,.627,.249,.262,.365,.262,.598-.087,.433-.262,.599-.384,.249-.627,.249Zm-.635,9.485v-8.131h1.249v8.131h-1.249Z"/>
    <path d="M454.443,697.73v1.059h-4.213v-1.059h4.213Zm-2.985-1.948h1.25v7.75c0,.353,.052,.616,.156,.791s.238,.291,.402,.35,.338,.088,.521,.088c.138,0,.25-.009,.339-.024s.159-.029,.212-.04l.254,1.123c-.085,.031-.203,.064-.354,.098-.152,.033-.344,.05-.577,.05-.353,0-.698-.075-1.035-.228-.337-.151-.616-.383-.836-.693-.221-.311-.331-.702-.331-1.175v-8.089Z"/>
    <path d="M457.132,708.91c-.211,0-.4-.017-.566-.05-.166-.034-.28-.066-.344-.099l.317-1.101c.304,.077,.572,.105,.805,.085,.233-.021,.44-.125,.622-.31,.182-.186,.349-.484,.5-.897l.233-.636-3.006-8.173h1.355l2.245,6.479h.084l2.245-6.479h1.355l-3.451,9.316c-.156,.42-.348,.769-.577,1.046-.229,.276-.495,.482-.797,.616-.302,.135-.641,.201-1.019,.201Z"/>
  </g>
  <g>
    <rect class="cls-6" x="555.646" y="690.779" width="22.056" height="22.056" rx="11.028" ry="11.028"/>
    <rect class="cls-6" x="559.788" y="690.779" width="22.056" height="22.056" rx="11.028" ry="11.028"/>
    <rect class="cls-6" x="563.931" y="690.779" width="22.056" height="22.056" rx="11.028" ry="11.028"/>
    <rect class="cls-6" x="568.073" y="690.779" width="22.056" height="22.056" rx="11.028" ry="11.028"/>
    <rect class="cls-6" x="572.216" y="690.779" width="22.056" height="22.056" rx="11.028" ry="11.028"/>
    <rect class="cls-6" x="576.359" y="690.779" width="22.056" height="22.056" rx="11.028" ry="11.028"/>
    <rect class="cls-6" x="580.501" y="690.779" width="22.056" height="22.056" rx="11.028" ry="11.028"/>
  </g>
  <circle class="cls-1" cx="566.673" cy="701.807" r="7.309"/>
  <g class="cls-12">
    <path d="M374.068,772.421h-1.312c-.078-.378-.213-.709-.405-.995-.192-.286-.425-.526-.699-.723-.274-.196-.576-.343-.908-.442-.332-.099-.677-.147-1.038-.147-.656,0-1.25,.166-1.781,.497-.531,.332-.953,.82-1.265,1.467-.312,.646-.469,1.438-.469,2.376s.156,1.731,.469,2.377c.312,.646,.734,1.135,1.265,1.467,.531,.331,1.125,.497,1.781,.497,.36,0,.706-.049,1.038-.148,.332-.099,.634-.246,.908-.441,.273-.196,.506-.438,.699-.726,.192-.287,.327-.618,.405-.992h1.312c-.099,.554-.279,1.05-.54,1.487-.261,.438-.586,.81-.974,1.114-.388,.306-.823,.537-1.305,.696-.482,.158-.996,.238-1.543,.238-.924,0-1.747-.226-2.466-.678-.72-.452-1.287-1.094-1.699-1.927-.413-.833-.62-1.821-.62-2.965s.207-2.131,.62-2.964c.413-.833,.979-1.475,1.699-1.927,.72-.452,1.542-.678,2.466-.678,.547,0,1.062,.079,1.543,.238,.481,.159,.917,.391,1.305,.696,.388,.305,.713,.676,.974,1.111,.261,.436,.441,.933,.54,1.49Z"/>
    <path d="M376.017,779.875v-8.131h1.207v1.229h.085c.148-.402,.417-.729,.805-.979s.826-.376,1.312-.376c.092,0,.207,.002,.344,.005,.138,.004,.242,.01,.312,.017v1.271c-.042-.011-.138-.027-.288-.051-.15-.022-.308-.034-.474-.034-.395,0-.747,.082-1.056,.246-.309,.164-.553,.39-.73,.678-.178,.287-.268,.615-.268,.981v5.146h-1.249Z"/>
    <path d="M384.719,780.043c-.783,0-1.458-.173-2.024-.521s-1.002-.835-1.308-1.462c-.305-.626-.458-1.355-.458-2.188s.153-1.567,.458-2.205c.305-.637,.732-1.134,1.281-1.492s1.19-.537,1.924-.537c.423,0,.842,.07,1.254,.212,.413,.141,.789,.369,1.127,.686,.339,.315,.609,.732,.81,1.251,.201,.52,.302,1.158,.302,1.917v.529h-6.268v-1.08h4.997c0-.459-.091-.868-.272-1.229-.182-.359-.439-.644-.773-.852s-.726-.312-1.178-.312c-.498,0-.927,.122-1.289,.368-.362,.245-.64,.563-.833,.955-.194,.392-.291,.812-.291,1.26v.72c0,.614,.106,1.134,.32,1.56,.214,.425,.511,.748,.892,.969,.381,.22,.824,.33,1.329,.33,.328,0,.625-.047,.892-.14,.267-.094,.497-.235,.691-.424,.194-.188,.344-.424,.45-.707l1.207,.339c-.127,.41-.341,.769-.641,1.077-.3,.31-.67,.549-1.111,.721-.441,.171-.937,.256-1.488,.256Z"/>
    <path d="M392.384,780.065c-.516,0-.983-.098-1.403-.294-.42-.195-.753-.479-1-.852-.247-.373-.371-.823-.371-1.353,0-.466,.092-.845,.275-1.136s.429-.52,.736-.686c.307-.166,.646-.29,1.019-.373,.372-.083,.747-.149,1.125-.198,.494-.063,.896-.112,1.205-.146,.309-.034,.535-.091,.677-.173,.143-.081,.214-.222,.214-.423v-.043c0-.521-.142-.928-.426-1.217-.284-.29-.714-.435-1.289-.435-.597,0-1.064,.131-1.403,.392-.339,.262-.577,.54-.715,.837l-1.186-.424c.212-.494,.495-.88,.85-1.156,.354-.277,.743-.472,1.165-.583,.422-.11,.837-.166,1.247-.166,.261,0,.562,.03,.903,.093,.34,.062,.67,.188,.99,.378s.585,.479,.796,.863c.212,.385,.318,.899,.318,1.545v5.357h-1.25v-1.101h-.063c-.084,.176-.226,.365-.423,.566s-.46,.372-.789,.513c-.328,.142-.729,.212-1.202,.212Zm.19-1.122c.494,0,.911-.097,1.252-.291,.34-.194,.598-.444,.773-.752,.174-.307,.262-.63,.262-.969v-1.144c-.053,.063-.168,.121-.347,.173-.178,.051-.383,.095-.614,.132-.231,.037-.456,.069-.672,.096-.217,.026-.393,.048-.527,.065-.325,.043-.627,.11-.908,.204s-.506,.233-.678,.418c-.171,.186-.256,.437-.256,.755,0,.434,.161,.761,.484,.981,.323,.221,.733,.331,1.23,.331Z"/>
    <path d="M401.933,771.744v1.059h-4.213v-1.059h4.213Zm-2.985-1.948h1.25v7.75c0,.353,.052,.616,.156,.791s.238,.291,.402,.35,.338,.088,.521,.088c.138,0,.25-.009,.339-.024s.159-.029,.212-.04l.254,1.123c-.085,.031-.203,.064-.354,.098-.152,.033-.344,.05-.577,.05-.353,0-.698-.075-1.035-.228-.337-.151-.616-.383-.836-.693-.221-.311-.331-.702-.331-1.175v-8.089Z"/>
    <path d="M404.453,770.389c-.244,0-.453-.083-.627-.249s-.262-.365-.262-.599,.087-.432,.262-.598,.384-.249,.627-.249,.452,.083,.627,.249,.262,.365,.262,.598-.087,.433-.262,.599-.384,.249-.627,.249Zm-.635,9.485v-8.131h1.249v8.131h-1.249Z"/>
    <path d="M410.656,780.043c-.734,0-1.377-.174-1.929-.523s-.983-.838-1.292-1.467c-.309-.628-.463-1.361-.463-2.202,0-.847,.154-1.586,.463-2.218,.309-.632,.739-1.122,1.292-1.472,.552-.349,1.195-.523,1.929-.523s1.377,.175,1.93,.523c.552,.35,.983,.84,1.292,1.472s.463,1.371,.463,2.218c0,.841-.155,1.574-.463,2.202-.309,.629-.739,1.117-1.292,1.467s-1.195,.523-1.93,.523Zm0-1.122c.558,0,1.017-.143,1.376-.429,.36-.285,.626-.661,.799-1.127s.259-.971,.259-1.515-.086-1.05-.259-1.519c-.173-.47-.439-.849-.799-1.139-.36-.289-.819-.434-1.376-.434s-1.016,.145-1.376,.434c-.36,.29-.626,.669-.799,1.139-.173,.469-.259,.976-.259,1.519s.086,1.049,.259,1.515,.439,.842,.799,1.127c.36,.286,.818,.429,1.376,.429Z"/>
    <path d="M417.495,774.983v4.892h-1.249v-8.131h1.207v1.271h.106c.19-.413,.48-.745,.868-.998,.388-.252,.889-.378,1.503-.378,.55,0,1.032,.112,1.445,.336,.413,.224,.734,.562,.963,1.017,.229,.453,.344,1.025,.344,1.718v5.166h-1.249v-5.082c0-.639-.166-1.137-.498-1.495-.332-.358-.787-.537-1.366-.537-.399,0-.754,.086-1.067,.259-.312,.174-.558,.426-.738,.758-.18,.331-.27,.733-.27,1.206Z"/>
    <path d="M432.232,780.043c-.677,0-1.275-.172-1.794-.516-.519-.344-.924-.831-1.217-1.461s-.439-1.375-.439-2.236c0-.854,.146-1.596,.439-2.224s.7-1.113,1.223-1.455c.522-.343,1.126-.514,1.811-.514,.529,0,.948,.087,1.257,.262,.309,.175,.545,.372,.709,.593s.292,.401,.384,.543h.106v-4.002h1.249v10.841h-1.207v-1.249h-.148c-.092,.148-.222,.334-.392,.559-.169,.224-.411,.423-.725,.598-.314,.175-.732,.262-1.255,.262Zm.169-1.122c.501,0,.925-.131,1.271-.395,.346-.263,.609-.628,.789-1.096,.18-.467,.27-1.008,.27-1.622,0-.606-.088-1.139-.265-1.596-.176-.457-.438-.813-.783-1.069-.346-.256-.773-.384-1.281-.384-.529,0-.969,.135-1.321,.405-.351,.27-.614,.635-.789,1.096-.175,.46-.262,.977-.262,1.548,0,.579,.089,1.104,.267,1.575,.178,.471,.443,.845,.794,1.122s.788,.415,1.31,.415Z"/>
    <path d="M440.808,780.065c-.516,0-.983-.098-1.403-.294-.42-.195-.753-.479-1-.852-.247-.373-.371-.823-.371-1.353,0-.466,.092-.845,.275-1.136s.429-.52,.736-.686c.307-.166,.646-.29,1.019-.373,.372-.083,.747-.149,1.125-.198,.494-.063,.896-.112,1.205-.146,.309-.034,.535-.091,.677-.173,.143-.081,.214-.222,.214-.423v-.043c0-.521-.142-.928-.426-1.217-.284-.29-.714-.435-1.289-.435-.597,0-1.064,.131-1.403,.392-.339,.262-.577,.54-.715,.837l-1.186-.424c.212-.494,.495-.88,.85-1.156,.354-.277,.743-.472,1.165-.583,.422-.11,.837-.166,1.247-.166,.261,0,.562,.03,.903,.093,.34,.062,.67,.188,.99,.378s.585,.479,.796,.863c.212,.385,.318,.899,.318,1.545v5.357h-1.25v-1.101h-.063c-.084,.176-.226,.365-.423,.566s-.46,.372-.789,.513c-.328,.142-.729,.212-1.202,.212Zm.19-1.122c.494,0,.911-.097,1.252-.291,.34-.194,.598-.444,.773-.752,.174-.307,.262-.63,.262-.969v-1.144c-.053,.063-.168,.121-.347,.173-.178,.051-.383,.095-.614,.132-.231,.037-.456,.069-.672,.096-.217,.026-.393,.048-.527,.065-.325,.043-.627,.11-.908,.204s-.506,.233-.678,.418c-.171,.186-.256,.437-.256,.755,0,.434,.161,.761,.484,.981,.323,.221,.733,.331,1.23,.331Z"/>
    <path d="M450.356,771.744v1.059h-4.213v-1.059h4.213Zm-2.985-1.948h1.25v7.75c0,.353,.052,.616,.156,.791s.238,.291,.402,.35,.338,.088,.521,.088c.138,0,.25-.009,.339-.024s.159-.029,.212-.04l.254,1.123c-.085,.031-.203,.064-.354,.098-.152,.033-.344,.05-.577,.05-.353,0-.698-.075-1.035-.228-.337-.151-.616-.383-.836-.693-.221-.311-.331-.702-.331-1.175v-8.089Z"/>
    <path d="M455.565,780.043c-.783,0-1.458-.173-2.024-.521s-1.002-.835-1.308-1.462c-.305-.626-.458-1.355-.458-2.188s.153-1.567,.458-2.205c.305-.637,.732-1.134,1.281-1.492s1.19-.537,1.924-.537c.423,0,.842,.07,1.254,.212,.413,.141,.789,.369,1.127,.686,.339,.315,.609,.732,.81,1.251,.201,.52,.302,1.158,.302,1.917v.529h-6.268v-1.08h4.997c0-.459-.091-.868-.272-1.229-.182-.359-.439-.644-.773-.852s-.726-.312-1.178-.312c-.498,0-.927,.122-1.289,.368-.362,.245-.64,.563-.833,.955-.194,.392-.291,.812-.291,1.26v.72c0,.614,.106,1.134,.32,1.56,.214,.425,.511,.748,.892,.969,.381,.22,.824,.33,1.329,.33,.328,0,.625-.047,.892-.14,.267-.094,.497-.235,.691-.424,.194-.188,.344-.424,.45-.707l1.207,.339c-.127,.41-.341,.769-.641,1.077-.3,.31-.67,.549-1.111,.721-.441,.171-.937,.256-1.488,.256Z"/>
  </g>
  <g>
    <rect class="cls-6" x="555.646" y="764.792" width="22.056" height="22.056" rx="11.028" ry="11.028"/>
    <rect class="cls-6" x="559.788" y="764.792" width="22.056" height="22.056" rx="11.028" ry="11.028"/>
    <rect class="cls-6" x="563.931" y="764.792" width="22.056" height="22.056" rx="11.028" ry="11.028"/>
    <rect class="cls-6" x="568.073" y="764.792" width="22.056" height="22.056" rx="11.028" ry="11.028"/>
    <rect class="cls-6" x="572.216" y="764.792" width="22.056" height="22.056" rx="11.028" ry="11.028"/>
    <rect class="cls-6" x="576.359" y="764.792" width="22.056" height="22.056" rx="11.028" ry="11.028"/>
    <rect class="cls-6" x="580.501" y="764.792" width="22.056" height="22.056" rx="11.028" ry="11.028"/>
  </g>
  <circle class="cls-1" cx="566.673" cy="775.82" r="7.309"/>
  <g class="cls-12">
    <path d="M365.668,742.868v-10.841h6.542v1.164h-5.23v3.663h4.891v1.165h-4.891v3.684h5.314v1.165h-6.627Z"/>
    <path d="M375.662,737.976v4.892h-1.249v-8.131h1.207v1.271h.106c.19-.413,.48-.745,.868-.998,.388-.252,.889-.378,1.503-.378,.55,0,1.032,.112,1.445,.336,.413,.224,.734,.562,.963,1.017,.229,.453,.344,1.025,.344,1.718v5.166h-1.249v-5.082c0-.639-.166-1.137-.498-1.495-.332-.358-.787-.537-1.366-.537-.399,0-.754,.086-1.067,.259-.312,.174-.558,.426-.738,.758-.18,.331-.27,.733-.27,1.206Z"/>
    <path d="M386.418,746.086c-.604,0-1.122-.077-1.556-.23s-.795-.354-1.083-.604-.516-.515-.686-.797l.995-.698c.113,.147,.256,.318,.429,.511s.41,.359,.712,.503c.302,.143,.698,.214,1.188,.214,.656,0,1.198-.158,1.625-.477,.427-.317,.641-.814,.641-1.492v-1.651h-.106c-.092,.147-.221,.33-.389,.548-.167,.217-.407,.409-.72,.576-.312,.168-.733,.252-1.263,.252-.656,0-1.245-.155-1.765-.466s-.932-.763-1.233-1.355-.453-1.312-.453-2.159c0-.833,.146-1.56,.439-2.179s.7-1.099,1.223-1.439,1.126-.511,1.811-.511c.529,0,.95,.087,1.262,.262,.312,.175,.552,.372,.72,.593,.167,.221,.297,.401,.389,.543h.127v-1.292h1.207v8.364c0,.698-.158,1.268-.474,1.707s-.739,.762-1.271,.969c-.531,.206-1.121,.31-1.771,.31Zm-.042-4.468c.501,0,.925-.115,1.271-.345,.346-.229,.609-.559,.789-.989,.18-.431,.27-.946,.27-1.546,0-.586-.088-1.103-.265-1.551-.176-.448-.438-.8-.783-1.054-.346-.254-.773-.381-1.281-.381-.529,0-.969,.134-1.321,.402-.351,.269-.614,.628-.789,1.08-.175,.451-.262,.952-.262,1.503,0,.564,.089,1.063,.267,1.495,.178,.433,.443,.771,.794,1.017s.788,.368,1.31,.368Z"/>
    <path d="M392.855,733.382c-.244,0-.453-.083-.627-.249s-.262-.365-.262-.599,.087-.432,.262-.598,.384-.249,.627-.249,.452,.083,.627,.249,.262,.365,.262,.598-.087,.433-.262,.599-.384,.249-.627,.249Zm-.635,9.485v-8.131h1.249v8.131h-1.249Z"/>
    <path d="M397.004,737.976v4.892h-1.249v-8.131h1.207v1.271h.106c.19-.413,.48-.745,.868-.998,.388-.252,.889-.378,1.503-.378,.55,0,1.032,.112,1.445,.336,.413,.224,.734,.562,.963,1.017,.229,.453,.344,1.025,.344,1.718v5.166h-1.249v-5.082c0-.639-.166-1.137-.498-1.495-.332-.358-.787-.537-1.366-.537-.399,0-.754,.086-1.067,.259-.312,.174-.558,.426-.738,.758-.18,.331-.27,.733-.27,1.206Z"/>
    <path d="M407.888,743.037c-.783,0-1.458-.173-2.024-.521s-1.002-.835-1.308-1.462c-.305-.626-.458-1.355-.458-2.188s.153-1.567,.458-2.205c.305-.637,.732-1.134,1.281-1.492s1.19-.537,1.924-.537c.423,0,.842,.07,1.254,.212,.413,.141,.789,.369,1.127,.686,.339,.315,.609,.732,.81,1.251,.201,.52,.302,1.158,.302,1.917v.529h-6.268v-1.08h4.997c0-.459-.091-.868-.272-1.229-.182-.359-.439-.644-.773-.852s-.726-.312-1.178-.312c-.498,0-.927,.122-1.289,.368-.362,.245-.64,.563-.833,.955-.194,.392-.291,.812-.291,1.26v.72c0,.614,.106,1.134,.32,1.56,.214,.425,.511,.748,.892,.969,.381,.22,.824,.33,1.329,.33,.328,0,.625-.047,.892-.14,.267-.094,.497-.235,.691-.424,.194-.188,.344-.424,.45-.707l1.207,.339c-.127,.41-.341,.769-.641,1.077-.3,.31-.67,.549-1.111,.721-.441,.171-.937,.256-1.488,.256Z"/>
    <path d="M416.569,743.037c-.783,0-1.458-.173-2.024-.521s-1.002-.835-1.308-1.462c-.305-.626-.458-1.355-.458-2.188s.153-1.567,.458-2.205c.305-.637,.732-1.134,1.281-1.492s1.19-.537,1.924-.537c.423,0,.842,.07,1.254,.212,.413,.141,.789,.369,1.127,.686,.339,.315,.609,.732,.81,1.251,.201,.52,.302,1.158,.302,1.917v.529h-6.268v-1.08h4.997c0-.459-.091-.868-.272-1.229-.182-.359-.439-.644-.773-.852s-.726-.312-1.178-.312c-.498,0-.927,.122-1.289,.368-.362,.245-.64,.563-.833,.955-.194,.392-.291,.812-.291,1.26v.72c0,.614,.106,1.134,.32,1.56,.214,.425,.511,.748,.892,.969,.381,.22,.824,.33,1.329,.33,.328,0,.625-.047,.892-.14,.267-.094,.497-.235,.691-.424,.194-.188,.344-.424,.45-.707l1.207,.339c-.127,.41-.341,.769-.641,1.077-.3,.31-.67,.549-1.111,.721-.441,.171-.937,.256-1.488,.256Z"/>
    <path d="M421.841,742.868v-8.131h1.207v1.229h.085c.148-.402,.417-.729,.805-.979s.826-.376,1.312-.376c.092,0,.207,.002,.344,.005,.138,.004,.242,.01,.312,.017v1.271c-.042-.011-.138-.027-.288-.051-.15-.022-.308-.034-.474-.034-.395,0-.747,.082-1.056,.246-.309,.164-.553,.39-.73,.678-.178,.287-.268,.615-.268,.981v5.146h-1.249Z"/>
    <path d="M428.024,733.382c-.244,0-.453-.083-.627-.249s-.262-.365-.262-.599,.087-.432,.262-.598,.384-.249,.627-.249,.452,.083,.627,.249,.262,.365,.262,.598-.087,.433-.262,.599-.384,.249-.627,.249Zm-.635,9.485v-8.131h1.249v8.131h-1.249Z"/>
    <path d="M432.174,737.976v4.892h-1.249v-8.131h1.207v1.271h.106c.19-.413,.48-.745,.868-.998,.388-.252,.889-.378,1.503-.378,.55,0,1.032,.112,1.445,.336,.413,.224,.734,.562,.963,1.017,.229,.453,.344,1.025,.344,1.718v5.166h-1.249v-5.082c0-.639-.166-1.137-.498-1.495-.332-.358-.787-.537-1.366-.537-.399,0-.754,.086-1.067,.259-.312,.174-.558,.426-.738,.758-.18,.331-.27,.733-.27,1.206Z"/>
    <path d="M442.93,746.086c-.604,0-1.122-.077-1.556-.23s-.795-.354-1.083-.604-.516-.515-.686-.797l.995-.698c.113,.147,.256,.318,.429,.511s.41,.359,.712,.503c.302,.143,.698,.214,1.188,.214,.656,0,1.198-.158,1.625-.477,.427-.317,.641-.814,.641-1.492v-1.651h-.106c-.092,.147-.221,.33-.389,.548-.167,.217-.407,.409-.72,.576-.312,.168-.733,.252-1.263,.252-.656,0-1.245-.155-1.765-.466s-.932-.763-1.233-1.355-.453-1.312-.453-2.159c0-.833,.146-1.56,.439-2.179s.7-1.099,1.223-1.439,1.126-.511,1.811-.511c.529,0,.95,.087,1.262,.262,.312,.175,.552,.372,.72,.593,.167,.221,.297,.401,.389,.543h.127v-1.292h1.207v8.364c0,.698-.158,1.268-.474,1.707s-.739,.762-1.271,.969c-.531,.206-1.121,.31-1.771,.31Zm-.042-4.468c.501,0,.925-.115,1.271-.345,.346-.229,.609-.559,.789-.989,.18-.431,.27-.946,.27-1.546,0-.586-.088-1.103-.265-1.551-.176-.448-.438-.8-.783-1.054-.346-.254-.773-.381-1.281-.381-.529,0-.969,.134-1.321,.402-.351,.269-.614,.628-.789,1.08-.175,.451-.262,.952-.262,1.503,0,.564,.089,1.063,.267,1.495,.178,.433,.443,.771,.794,1.017s.788,.368,1.31,.368Z"/>
    <path d="M454.173,737.976v4.892h-1.249v-10.841h1.249v3.98h.106c.19-.42,.477-.754,.86-1.003,.383-.249,.894-.373,1.532-.373,.554,0,1.039,.11,1.456,.331,.417,.22,.74,.558,.972,1.011,.231,.453,.347,1.029,.347,1.729v5.166h-1.25v-5.082c0-.646-.167-1.146-.5-1.5-.333-.355-.795-.532-1.384-.532-.41,0-.775,.086-1.099,.259-.323,.174-.577,.426-.762,.758-.185,.331-.278,.733-.278,1.206Z"/>
    <path d="M465.035,743.037c-.734,0-1.377-.174-1.929-.523s-.983-.838-1.292-1.467c-.309-.628-.463-1.361-.463-2.202,0-.847,.154-1.586,.463-2.218,.309-.632,.739-1.122,1.292-1.472,.552-.349,1.195-.523,1.929-.523s1.377,.175,1.93,.523c.552,.35,.983,.84,1.292,1.472s.463,1.371,.463,2.218c0,.841-.155,1.574-.463,2.202-.309,.629-.739,1.117-1.292,1.467s-1.195,.523-1.93,.523Zm0-1.122c.558,0,1.017-.143,1.376-.429,.36-.285,.626-.661,.799-1.127s.259-.971,.259-1.515-.086-1.05-.259-1.519c-.173-.47-.439-.849-.799-1.139-.36-.289-.819-.434-1.376-.434s-1.016,.145-1.376,.434c-.36,.29-.626,.669-.799,1.139-.173,.469-.259,.976-.259,1.519s.086,1.049,.259,1.515,.439,.842,.799,1.127c.36,.286,.818,.429,1.376,.429Z"/>
    <path d="M474.161,734.737v1.059h-4.213v-1.059h4.213Zm-2.985-1.948h1.25v7.75c0,.353,.052,.616,.156,.791s.238,.291,.402,.35,.338,.088,.521,.088c.138,0,.25-.009,.339-.024s.159-.029,.212-.04l.254,1.123c-.085,.031-.203,.064-.354,.098-.152,.033-.344,.05-.577,.05-.353,0-.698-.075-1.035-.228-.337-.151-.616-.383-.836-.693-.221-.311-.331-.702-.331-1.175v-8.089Z"/>
    <path d="M485.997,736.558l-1.123,.317c-.07-.187-.174-.369-.31-.548-.136-.178-.32-.325-.553-.442-.233-.116-.531-.174-.895-.174-.498,0-.911,.113-1.241,.341s-.495,.517-.495,.865c0,.311,.113,.557,.339,.736,.226,.18,.579,.33,1.059,.45l1.207,.296c.727,.177,1.269,.445,1.625,.808,.356,.361,.535,.826,.535,1.395,0,.466-.133,.882-.399,1.249-.267,.367-.638,.656-1.114,.868-.477,.212-1.031,.317-1.662,.317-.83,0-1.516-.18-2.06-.539-.543-.36-.887-.886-1.032-1.578l1.186-.296c.113,.438,.327,.766,.643,.984s.729,.328,1.241,.328c.583,0,1.045-.124,1.39-.373s.516-.548,.516-.897c0-.282-.099-.52-.296-.712s-.501-.336-.911-.432l-1.355-.317c-.745-.177-1.291-.451-1.638-.823-.348-.372-.521-.839-.521-1.4,0-.458,.129-.864,.389-1.217,.259-.354,.614-.63,1.064-.831,.45-.201,.96-.302,1.532-.302,.805,0,1.437,.176,1.898,.529,.46,.353,.788,.818,.982,1.397Z"/>
    <path d="M488.029,745.917v-11.18h1.207v1.292h.148c.092-.142,.22-.322,.384-.543s.4-.418,.709-.593c.309-.175,.728-.262,1.257-.262,.685,0,1.288,.171,1.811,.514,.522,.342,.93,.827,1.223,1.455s.439,1.369,.439,2.224c0,.861-.146,1.606-.439,2.236s-.699,1.117-1.217,1.461c-.519,.344-1.117,.516-1.794,.516-.522,0-.94-.087-1.255-.262-.314-.175-.556-.374-.725-.598-.169-.225-.3-.41-.392-.559h-.106v4.298h-1.249Zm1.228-7.114c0,.614,.09,1.155,.27,1.622,.18,.468,.443,.833,.789,1.096,.346,.264,.769,.395,1.271,.395,.522,0,.959-.138,1.31-.415s.616-.651,.794-1.122c.178-.472,.268-.996,.268-1.575,0-.571-.087-1.088-.262-1.548-.175-.461-.438-.826-.789-1.096-.352-.271-.792-.405-1.321-.405-.508,0-.936,.128-1.281,.384s-.607,.612-.783,1.069c-.177,.457-.265,.989-.265,1.596Z"/>
    <path d="M500.416,743.037c-.734,0-1.377-.174-1.929-.523s-.983-.838-1.292-1.467c-.309-.628-.463-1.361-.463-2.202,0-.847,.154-1.586,.463-2.218,.309-.632,.739-1.122,1.292-1.472,.552-.349,1.195-.523,1.929-.523s1.377,.175,1.93,.523c.552,.35,.983,.84,1.292,1.472s.463,1.371,.463,2.218c0,.841-.155,1.574-.463,2.202-.309,.629-.739,1.117-1.292,1.467s-1.195,.523-1.93,.523Zm0-1.122c.558,0,1.017-.143,1.376-.429,.36-.285,.626-.661,.799-1.127s.259-.971,.259-1.515-.086-1.05-.259-1.519c-.173-.47-.439-.849-.799-1.139-.36-.289-.819-.434-1.376-.434s-1.016,.145-1.376,.434c-.36,.29-.626,.669-.799,1.139-.173,.469-.259,.976-.259,1.519s.086,1.049,.259,1.515,.439,.842,.799,1.127c.36,.286,.818,.429,1.376,.429Z"/>
    <path d="M509.542,734.737v1.059h-4.213v-1.059h4.213Zm-2.985-1.948h1.25v7.75c0,.353,.052,.616,.156,.791s.238,.291,.402,.35,.338,.088,.521,.088c.138,0,.25-.009,.339-.024s.159-.029,.212-.04l.254,1.123c-.085,.031-.203,.064-.354,.098-.152,.033-.344,.05-.577,.05-.353,0-.698-.075-1.035-.228-.337-.151-.616-.383-.836-.693-.221-.311-.331-.702-.331-1.175v-8.089Z"/>
    <path d="M517.038,736.558l-1.123,.317c-.07-.187-.174-.369-.31-.548-.136-.178-.32-.325-.553-.442-.233-.116-.531-.174-.895-.174-.498,0-.911,.113-1.241,.341s-.495,.517-.495,.865c0,.311,.113,.557,.339,.736,.226,.18,.579,.33,1.059,.45l1.207,.296c.727,.177,1.269,.445,1.625,.808,.356,.361,.535,.826,.535,1.395,0,.466-.133,.882-.399,1.249-.267,.367-.638,.656-1.114,.868-.477,.212-1.031,.317-1.662,.317-.83,0-1.516-.18-2.06-.539-.543-.36-.887-.886-1.032-1.578l1.186-.296c.113,.438,.327,.766,.643,.984s.729,.328,1.241,.328c.583,0,1.045-.124,1.39-.373s.516-.548,.516-.897c0-.282-.099-.52-.296-.712s-.501-.336-.911-.432l-1.355-.317c-.745-.177-1.291-.451-1.638-.823-.348-.372-.521-.839-.521-1.4,0-.458,.129-.864,.389-1.217,.259-.354,.614-.63,1.064-.831,.45-.201,.96-.302,1.532-.302,.805,0,1.437,.176,1.898,.529,.46,.353,.788,.818,.982,1.397Z"/>
  </g>
  <g>
    <rect class="cls-10" x="554.471" y="727.434" width="22.76" height="22.76" rx="11.38" ry="11.38"/>
    <rect class="cls-10" x="558.746" y="727.434" width="22.76" height="22.76" rx="11.38" ry="11.38"/>
    <rect class="cls-10" x="563.02" y="727.434" width="22.76" height="22.76" rx="11.38" ry="11.38"/>
    <rect class="cls-10" x="567.295" y="727.434" width="22.76" height="22.76" rx="11.38" ry="11.38"/>
    <rect class="cls-10" x="571.57" y="727.434" width="22.76" height="22.76" rx="11.38" ry="11.38"/>
    <rect class="cls-10" x="575.845" y="727.434" width="22.76" height="22.76" rx="11.38" ry="11.38"/>
    <rect class="cls-10" x="580.12" y="727.434" width="22.76" height="22.76" rx="11.38" ry="11.38"/>
  </g>
  <circle class="cls-1" cx="591.499" cy="738.814" r="7.542"/>
</svg>