<?xml version="1.0" encoding="UTF-8"?>
<svg id="Insights" xmlns="http://www.w3.org/2000/svg" xmlns:xlink="http://www.w3.org/1999/xlink" viewBox="0 0 1600 1000">
  <defs>
    <style>
      .cls-1 {
        fill: #f3edde;
      }

      .cls-2 {
        fill: #f2f5f8;
      }

      .cls-3, .cls-4, .cls-5, .cls-6 {
        fill: #fff;
      }

      .cls-7 {
        fill: #dd8983;
      }

      .cls-8 {
        stroke: #001346;
        stroke-linecap: round;
        stroke-linejoin: round;
        stroke-width: 1.167px;
      }

      .cls-8, .cls-9 {
        fill: none;
      }

      .cls-10 {
        opacity: .93;
      }

      .cls-11 {
        fill: #444089;
        filter: url(#drop-shadow-65);
      }

      .cls-12 {
        fill: #7c9ced;
        filter: url(#drop-shadow-64);
      }

      .cls-13 {
        filter: url(#drop-shadow-66);
      }

      .cls-13, .cls-14 {
        fill: #b9efce;
      }

      .cls-14 {
        filter: url(#drop-shadow-71);
      }

      .cls-15 {
        filter: url(#drop-shadow-68);
      }

      .cls-15, .cls-16 {
        fill: #e5d37c;
      }

      .cls-16 {
        filter: url(#drop-shadow-70);
      }

      .cls-9 {
        stroke: #fff;
        stroke-width: 2.456px;
      }

      .cls-9, .cls-4, .cls-5, .cls-6 {
        stroke-miterlimit: 10;
      }

      .cls-4 {
        filter: url(#drop-shadow-67);
      }

      .cls-4, .cls-5, .cls-6 {
        stroke: #c9c9c9;
        stroke-width: .977px;
      }

      .cls-5 {
        filter: url(#drop-shadow-69);
      }

      .cls-6 {
        filter: url(#drop-shadow-63);
      }
    </style>
    <filter id="drop-shadow-63" filterUnits="userSpaceOnUse">
      <feOffset dx="2" dy="5"/>
      <feGaussianBlur result="blur" stdDeviation="5"/>
      <feFlood flood-color="#000" flood-opacity=".1"/>
      <feComposite in2="blur" operator="in"/>
      <feComposite in="SourceGraphic"/>
    </filter>
    <filter id="drop-shadow-64" filterUnits="userSpaceOnUse">
      <feOffset dx="2" dy="5"/>
      <feGaussianBlur result="blur-2" stdDeviation="5"/>
      <feFlood flood-color="#000" flood-opacity=".1"/>
      <feComposite in2="blur-2" operator="in"/>
      <feComposite in="SourceGraphic"/>
    </filter>
    <filter id="drop-shadow-65" filterUnits="userSpaceOnUse">
      <feOffset dx="2" dy="5"/>
      <feGaussianBlur result="blur-3" stdDeviation="5"/>
      <feFlood flood-color="#000" flood-opacity=".1"/>
      <feComposite in2="blur-3" operator="in"/>
      <feComposite in="SourceGraphic"/>
    </filter>
    <filter id="drop-shadow-66" filterUnits="userSpaceOnUse">
      <feOffset dx="2" dy="5"/>
      <feGaussianBlur result="blur-4" stdDeviation="5"/>
      <feFlood flood-color="#000" flood-opacity=".1"/>
      <feComposite in2="blur-4" operator="in"/>
      <feComposite in="SourceGraphic"/>
    </filter>
    <filter id="drop-shadow-67" filterUnits="userSpaceOnUse">
      <feOffset dx="2" dy="5"/>
      <feGaussianBlur result="blur-5" stdDeviation="5"/>
      <feFlood flood-color="#000" flood-opacity=".1"/>
      <feComposite in2="blur-5" operator="in"/>
      <feComposite in="SourceGraphic"/>
    </filter>
    <filter id="drop-shadow-68" filterUnits="userSpaceOnUse">
      <feOffset dx="2" dy="5"/>
      <feGaussianBlur result="blur-6" stdDeviation="5"/>
      <feFlood flood-color="#000" flood-opacity=".1"/>
      <feComposite in2="blur-6" operator="in"/>
      <feComposite in="SourceGraphic"/>
    </filter>
    <filter id="drop-shadow-69" filterUnits="userSpaceOnUse">
      <feOffset dx="2" dy="5"/>
      <feGaussianBlur result="blur-7" stdDeviation="5"/>
      <feFlood flood-color="#000" flood-opacity=".1"/>
      <feComposite in2="blur-7" operator="in"/>
      <feComposite in="SourceGraphic"/>
    </filter>
    <filter id="drop-shadow-70" filterUnits="userSpaceOnUse">
      <feOffset dx="2" dy="5"/>
      <feGaussianBlur result="blur-8" stdDeviation="5"/>
      <feFlood flood-color="#000" flood-opacity=".1"/>
      <feComposite in2="blur-8" operator="in"/>
      <feComposite in="SourceGraphic"/>
    </filter>
    <filter id="drop-shadow-71" filterUnits="userSpaceOnUse">
      <feOffset dx="2" dy="5"/>
      <feGaussianBlur result="blur-9" stdDeviation="5"/>
      <feFlood flood-color="#000" flood-opacity=".1"/>
      <feComposite in2="blur-9" operator="in"/>
      <feComposite in="SourceGraphic"/>
    </filter>
  </defs>
  <g>
    <path class="cls-9" d="M355.783,407.276c-7.319-1.394-5.306-93.194,65.21-156.942"/>
    <polygon class="cls-3" points="426.223 262.113 434.571 239.087 410.456 243.367 426.223 262.113"/>
  </g>
  <g>
    <path class="cls-9" d="M393.752,424.121c5.01-5.523,103.956-15.623,111.675,76.681"/>
    <polygon class="cls-3" points="492.88 497.619 505.796 518.429 517.362 496.84 492.88 497.619"/>
  </g>
  <g>
    <path class="cls-9" d="M611.734,545.838c7.118-52.897,85.387-92.334,210.536-91.782"/>
    <polygon class="cls-3" points="818.529 466.361 839.896 454.39 818.847 441.868 818.529 466.361"/>
  </g>
  <g>
    <path class="cls-9" d="M624.559,567.074s93.091-18.365,103.073,52.629"/>
    <polygon class="cls-3" points="714.858 616.906 728.397 637.317 739.306 615.388 714.858 616.906"/>
  </g>
  <g>
    <path class="cls-9" d="M546.406,585.114s53.236,285.316,298.461,292.018"/>
    <polygon class="cls-3" points="841.21 889.244 862.5 877.135 841.37 864.749 841.21 889.244"/>
  </g>
  <g>
    <path class="cls-9" d="M752.315,697.454s-3.577,116.759,94.742,141.115"/>
    <polygon class="cls-3" points="841.252 849.737 864.401 841.737 845.9 825.687 841.252 849.737"/>
  </g>
  <g>
    <path class="cls-9" d="M857.155,682.145c8.143-.076,81.978-9.035,89.808,40.034"/>
    <polygon class="cls-3" points="934.129 719.015 947.073 739.807 958.611 718.203 934.129 719.015"/>
  </g>
  <g>
    <path class="cls-9" d="M857.155,665.112h107.892"/>
    <polygon class="cls-3" points="961.466 677.36 982.677 665.112 961.466 652.865 961.466 677.36"/>
  </g>
  <rect class="cls-6" x="302.137" y="174.097" width="197.076" height="58.612" rx="7.751" ry="7.751"/>
  <g class="cls-10">
    <path d="M325.345,211.868v-11.995h3.17v2.116h.141c.25-.703,.667-1.257,1.25-1.663s1.281-.609,2.093-.609c.823,0,1.523,.204,2.101,.613,.578,.408,.963,.962,1.156,1.659h.125c.245-.688,.688-1.237,1.332-1.651,.643-.414,1.404-.621,2.284-.621,1.119,0,2.029,.355,2.729,1.066,.7,.71,1.05,1.717,1.05,3.018v8.067h-3.319v-7.411c0-.666-.177-1.166-.531-1.499s-.797-.5-1.328-.5c-.604,0-1.075,.191-1.414,.574-.338,.382-.508,.886-.508,1.511v7.325h-3.225v-7.481c0-.588-.168-1.057-.503-1.405-.336-.349-.777-.523-1.324-.523-.37,0-.702,.093-.996,.277-.294,.185-.527,.442-.699,.772-.172,.331-.258,.718-.258,1.16v7.2h-3.327Z"/>
    <path d="M347.07,198.327c-.495,0-.918-.164-1.269-.492-.352-.328-.527-.724-.527-1.188s.177-.86,.531-1.19c.354-.331,.775-.496,1.265-.496,.494,0,.917,.164,1.269,.492,.351,.328,.527,.724,.527,1.187s-.176,.86-.527,1.191c-.352,.33-.775,.496-1.269,.496Zm-1.671,13.541v-11.995h3.327v11.995h-3.327Z"/>
    <path d="M355.801,212.063c-.911,0-1.735-.235-2.472-.707-.737-.471-1.32-1.166-1.749-2.085-.43-.919-.645-2.047-.645-3.386,0-1.374,.221-2.519,.664-3.432,.442-.914,1.032-1.599,1.769-2.054,.737-.456,1.545-.684,2.425-.684,.672,0,1.233,.113,1.683,.34s.815,.508,1.093,.843c.278,.336,.491,.666,.637,.988h.101v-6.013h3.319v15.993h-3.28v-1.921h-.14c-.156,.333-.376,.662-.66,.987-.284,.326-.651,.596-1.101,.809-.45,.214-.999,.32-1.644,.32Zm1.054-2.647c.537,0,.991-.147,1.363-.441,.373-.294,.659-.707,.859-1.237,.2-.531,.3-1.153,.3-1.867s-.099-1.332-.296-1.858c-.198-.525-.484-.932-.859-1.218-.375-.286-.83-.43-1.367-.43-.546,0-1.007,.148-1.382,.445-.375,.297-.659,.708-.852,1.233-.192,.526-.289,1.135-.289,1.827,0,.698,.097,1.313,.292,1.848,.195,.533,.479,.95,.852,1.249,.372,.3,.832,.449,1.378,.449Z"/>
    <path d="M369.771,212.063c-.911,0-1.735-.235-2.472-.707-.737-.471-1.32-1.166-1.749-2.085-.43-.919-.645-2.047-.645-3.386,0-1.374,.221-2.519,.664-3.432,.442-.914,1.032-1.599,1.769-2.054,.737-.456,1.545-.684,2.425-.684,.672,0,1.233,.113,1.683,.34s.815,.508,1.093,.843c.278,.336,.491,.666,.637,.988h.101v-6.013h3.319v15.993h-3.28v-1.921h-.14c-.156,.333-.376,.662-.66,.987-.284,.326-.651,.596-1.101,.809-.45,.214-.999,.32-1.644,.32Zm1.054-2.647c.537,0,.991-.147,1.363-.441,.373-.294,.659-.707,.859-1.237,.2-.531,.3-1.153,.3-1.867s-.099-1.332-.296-1.858c-.198-.525-.484-.932-.859-1.218-.375-.286-.83-.43-1.367-.43-.546,0-1.007,.148-1.382,.445-.375,.297-.659,.708-.852,1.233-.192,.526-.289,1.135-.289,1.827,0,.698,.097,1.313,.292,1.848,.195,.533,.479,.95,.852,1.249,.372,.3,.832,.449,1.378,.449Z"/>
    <path d="M382.649,195.875v15.993h-3.327v-15.993h3.327Z"/>
    <path d="M390.77,212.102c-1.234,0-2.294-.251-3.182-.754-.888-.502-1.571-1.216-2.05-2.14s-.719-2.019-.719-3.284c0-1.233,.24-2.316,.719-3.248s1.154-1.658,2.026-2.179,1.896-.781,3.073-.781c.791,0,1.529,.126,2.214,.379,.685,.252,1.283,.631,1.796,1.136,.513,.506,.913,1.14,1.199,1.902,.287,.763,.43,1.654,.43,2.674v.914h-10.129v-2.062h6.998c0-.479-.104-.903-.312-1.273-.208-.369-.496-.659-.863-.87-.367-.211-.792-.316-1.276-.316-.505,0-.952,.116-1.339,.348-.388,.231-.691,.541-.91,.929-.218,.389-.331,.819-.335,1.293v1.96c0,.594,.11,1.106,.332,1.538,.221,.433,.535,.766,.941,1,.406,.234,.887,.352,1.444,.352,.37,0,.708-.052,1.016-.156,.307-.104,.57-.261,.789-.469s.385-.463,.5-.766l3.077,.203c-.156,.739-.475,1.384-.957,1.934-.482,.549-1.101,.976-1.859,1.28-.757,.305-1.631,.457-2.62,.457Z"/>
    <path d="M400.72,211.868l-3.264-11.995h3.366l1.858,8.06h.109l1.937-8.06h3.303l1.968,8.013h.102l1.828-8.013h3.358l-3.256,11.995h-3.522l-2.062-7.544h-.148l-2.062,7.544h-3.514Z"/>
    <path d="M420.469,212.094c-.765,0-1.447-.134-2.046-.402-.599-.268-1.071-.666-1.417-1.194s-.52-1.188-.52-1.98c0-.666,.123-1.226,.367-1.679s.578-.817,1-1.094c.422-.275,.902-.483,1.441-.624,.539-.141,1.105-.239,1.699-.297,.697-.073,1.26-.142,1.687-.207s.737-.163,.93-.293c.192-.13,.289-.322,.289-.578v-.047c0-.494-.155-.877-.464-1.147-.31-.271-.749-.406-1.316-.406-.599,0-1.075,.132-1.429,.395s-.588,.592-.703,.987l-3.077-.249c.156-.729,.463-1.36,.921-1.895,.458-.533,1.05-.944,1.777-1.233,.726-.289,1.568-.434,2.526-.434,.666,0,1.305,.078,1.917,.234s1.156,.398,1.632,.727c.476,.327,.853,.748,1.128,1.261s.414,1.126,.414,1.839v8.091h-3.155v-1.663h-.094c-.192,.375-.45,.704-.773,.987-.323,.284-.711,.505-1.164,.664-.453,.159-.976,.238-1.57,.238Zm.953-2.296c.489,0,.922-.098,1.296-.293,.375-.195,.669-.459,.883-.793,.213-.333,.32-.71,.32-1.132v-1.273c-.104,.068-.246,.129-.425,.184s-.382,.104-.605,.148-.448,.083-.671,.117c-.224,.034-.427,.063-.609,.09-.39,.058-.731,.148-1.023,.273s-.518,.293-.679,.504c-.162,.211-.242,.473-.242,.784,0,.453,.165,.798,.496,1.035s.751,.355,1.261,.355Z"/>
    <path d="M429.809,211.868v-11.995h3.225v2.093h.125c.219-.744,.586-1.308,1.101-1.69,.516-.383,1.109-.574,1.781-.574,.167,0,.346,.011,.539,.031,.193,.021,.362,.05,.508,.086v2.952c-.156-.047-.372-.089-.648-.125-.276-.036-.529-.055-.758-.055-.489,0-.925,.105-1.308,.316-.382,.211-.685,.503-.906,.878s-.332,.808-.332,1.297v6.786h-3.327Z"/>
    <path d="M443.702,212.102c-1.234,0-2.294-.251-3.182-.754-.888-.502-1.571-1.216-2.05-2.14s-.719-2.019-.719-3.284c0-1.233,.24-2.316,.719-3.248s1.154-1.658,2.026-2.179,1.896-.781,3.073-.781c.791,0,1.529,.126,2.214,.379,.685,.252,1.283,.631,1.796,1.136,.513,.506,.913,1.14,1.199,1.902,.287,.763,.43,1.654,.43,2.674v.914h-10.129v-2.062h6.998c0-.479-.104-.903-.312-1.273-.208-.369-.496-.659-.863-.87-.367-.211-.792-.316-1.276-.316-.505,0-.952,.116-1.339,.348-.388,.231-.691,.541-.91,.929-.218,.389-.331,.819-.335,1.293v1.96c0,.594,.11,1.106,.332,1.538,.221,.433,.535,.766,.941,1,.406,.234,.887,.352,1.444,.352,.37,0,.708-.052,1.016-.156,.307-.104,.57-.261,.789-.469s.385-.463,.5-.766l3.077,.203c-.156,.739-.475,1.384-.957,1.934-.482,.549-1.101,.976-1.859,1.28-.757,.305-1.631,.457-2.62,.457Z"/>
    <path d="M453.323,212.071c-.515,0-.957-.184-1.324-.551-.367-.367-.55-.809-.55-1.323,0-.511,.184-.948,.55-1.312,.367-.364,.809-.547,1.324-.547,.5,0,.938,.183,1.312,.547,.375,.364,.562,.802,.562,1.312,0,.344-.087,.657-.262,.94-.174,.284-.402,.511-.683,.68-.281,.169-.591,.254-.93,.254Z"/>
    <path d="M457.923,199.873h3.327v12.589c0,.927-.182,1.676-.546,2.249-.365,.572-.887,.991-1.566,1.257-.68,.266-1.49,.398-2.433,.398-.114,0-.225,0-.332-.004-.106-.003-.22-.007-.34-.012v-2.601c.089,.005,.166,.009,.23,.012,.065,.003,.134,.004,.207,.004,.536,0,.913-.113,1.128-.34,.216-.227,.324-.565,.324-1.019v-12.534Zm1.656-1.546c-.49,0-.911-.166-1.265-.496-.354-.331-.531-.728-.531-1.191,0-.458,.177-.853,.531-1.183,.354-.331,.775-.496,1.265-.496,.5,0,.925,.165,1.277,.496,.351,.33,.527,.725,.527,1.183,0,.464-.176,.86-.527,1.191-.352,.33-.777,.496-1.277,.496Z"/>
    <path d="M473.885,203.292l-3.046,.188c-.052-.26-.164-.495-.335-.706-.172-.211-.397-.38-.676-.508s-.61-.191-.996-.191c-.516,0-.95,.108-1.304,.324s-.531,.504-.531,.863c0,.286,.115,.528,.344,.726,.229,.198,.622,.356,1.179,.477l2.171,.438c1.167,.239,2.036,.625,2.608,1.155,.573,.531,.859,1.229,.859,2.094,0,.786-.23,1.476-.691,2.069-.46,.593-1.091,1.056-1.89,1.386-.799,.331-1.72,.496-2.761,.496-1.588,0-2.852-.332-3.792-.996-.94-.663-1.49-1.568-1.652-2.714l3.272-.172c.099,.484,.338,.854,.718,1.105,.38,.253,.867,.379,1.46,.379,.583,0,1.053-.113,1.41-.34,.356-.227,.538-.52,.542-.879-.005-.302-.133-.55-.382-.745-.25-.195-.635-.345-1.156-.449l-2.078-.414c-1.171-.234-2.042-.641-2.612-1.218-.57-.578-.855-1.315-.855-2.211,0-.771,.209-1.434,.629-1.991,.419-.557,1.01-.986,1.772-1.288s1.657-.453,2.683-.453c1.515,0,2.708,.32,3.581,.961,.872,.64,1.381,1.512,1.527,2.615Z"/>
  </g>
  <rect class="cls-12" x="662.603" y="642.949" width="196.56" height="58.612" rx="7.751" ry="7.751"/>
  <g class="cls-10">
    <path d="M685.159,667.515v-2.787h13.136v2.787h-4.896v13.206h-3.343v-13.206h-4.896Z"/>
    <path d="M699.153,680.721v-11.995h3.225v2.093h.125c.219-.744,.586-1.308,1.101-1.69,.516-.383,1.109-.574,1.781-.574,.167,0,.346,.011,.539,.031,.193,.021,.362,.05,.508,.086v2.952c-.156-.047-.372-.089-.648-.125-.276-.036-.529-.055-.758-.055-.489,0-.925,.105-1.308,.316-.382,.211-.685,.503-.906,.878s-.332,.808-.332,1.297v6.786h-3.327Z"/>
    <path d="M711.227,680.948c-.765,0-1.447-.134-2.046-.402-.599-.268-1.071-.666-1.417-1.194s-.52-1.188-.52-1.98c0-.666,.123-1.226,.367-1.679s.578-.817,1-1.094c.422-.275,.902-.483,1.441-.624,.539-.141,1.105-.239,1.699-.297,.697-.073,1.26-.142,1.687-.207s.737-.163,.93-.293c.192-.13,.289-.322,.289-.578v-.047c0-.494-.155-.877-.464-1.147-.31-.271-.749-.406-1.316-.406-.599,0-1.075,.132-1.429,.395s-.588,.592-.703,.987l-3.077-.249c.156-.729,.463-1.36,.921-1.895,.458-.533,1.05-.944,1.777-1.233,.726-.289,1.568-.434,2.526-.434,.666,0,1.305,.078,1.917,.234s1.156,.398,1.632,.727c.476,.327,.853,.748,1.128,1.261s.414,1.126,.414,1.839v8.091h-3.155v-1.663h-.094c-.192,.375-.45,.704-.773,.987-.323,.284-.711,.505-1.164,.664-.453,.159-.976,.238-1.57,.238Zm.953-2.296c.489,0,.922-.098,1.296-.293,.375-.195,.669-.459,.883-.793,.213-.333,.32-.71,.32-1.132v-1.273c-.104,.068-.246,.129-.425,.184s-.382,.104-.605,.148-.448,.083-.671,.117c-.224,.034-.427,.063-.609,.09-.39,.058-.731,.148-1.023,.273s-.518,.293-.679,.504c-.162,.211-.242,.473-.242,.784,0,.453,.165,.798,.496,1.035s.751,.355,1.261,.355Z"/>
    <path d="M725.986,680.956c-1.229,0-2.285-.262-3.167-.785s-1.559-1.251-2.03-2.183-.707-2.004-.707-3.218c0-1.229,.238-2.308,.715-3.236,.476-.93,1.154-1.656,2.034-2.179,.88-.523,1.926-.785,3.14-.785,1.046,0,1.962,.19,2.749,.57s1.408,.913,1.867,1.601c.458,.688,.71,1.494,.757,2.421h-3.139c-.089-.599-.322-1.081-.699-1.448s-.871-.551-1.48-.551c-.515,0-.964,.14-1.347,.418-.383,.278-.681,.683-.895,1.214s-.32,1.175-.32,1.929c0,.766,.105,1.417,.316,1.953s.509,.944,.895,1.226c.385,.281,.835,.422,1.351,.422,.38,0,.723-.078,1.027-.234,.304-.156,.557-.384,.757-.684,.2-.299,.332-.659,.395-1.081h3.139c-.052,.916-.301,1.722-.746,2.417-.445,.695-1.058,1.237-1.839,1.628-.781,.391-1.705,.586-2.772,.586Z"/>
    <path d="M733.483,680.721v-15.993h3.327v15.993h-3.327Zm3.014-3.452l.008-3.99h.484l3.842-4.553h3.819l-5.162,6.028h-.789l-2.203,2.515Zm4.483,3.452l-3.53-5.225,2.218-2.351,5.209,7.575h-3.897Z"/>
    <path d="M751.242,680.956c-1.234,0-2.294-.251-3.182-.754-.888-.502-1.571-1.216-2.05-2.14s-.719-2.019-.719-3.284c0-1.233,.24-2.316,.719-3.248s1.154-1.658,2.026-2.179,1.896-.781,3.073-.781c.791,0,1.529,.126,2.214,.379,.685,.252,1.283,.631,1.796,1.136,.513,.506,.913,1.14,1.199,1.902,.287,.763,.43,1.654,.43,2.674v.914h-10.129v-2.062h6.998c0-.479-.104-.903-.312-1.273-.208-.369-.496-.659-.863-.87-.367-.211-.792-.316-1.276-.316-.505,0-.952,.116-1.339,.348-.388,.231-.691,.541-.91,.929-.218,.389-.331,.819-.335,1.293v1.96c0,.594,.11,1.106,.332,1.538,.221,.433,.535,.766,.941,1,.406,.234,.887,.352,1.444,.352,.37,0,.708-.052,1.016-.156,.307-.104,.57-.261,.789-.469s.385-.463,.5-.766l3.077,.203c-.156,.739-.475,1.384-.957,1.934-.482,.549-1.101,.976-1.859,1.28-.757,.305-1.631,.457-2.62,.457Z"/>
    <path d="M758.918,680.721v-11.995h3.225v2.093h.125c.219-.744,.586-1.308,1.101-1.69,.516-.383,1.109-.574,1.781-.574,.167,0,.346,.011,.539,.031,.193,.021,.362,.05,.508,.086v2.952c-.156-.047-.372-.089-.648-.125-.276-.036-.529-.055-.758-.055-.489,0-.925,.105-1.308,.316-.382,.211-.685,.503-.906,.878s-.332,.808-.332,1.297v6.786h-3.327Z"/>
    <path d="M771.233,664.728v15.993h-3.327v-15.993h3.327Z"/>
    <path d="M773.888,680.721v-11.995h3.17v2.116h.141c.25-.703,.667-1.257,1.25-1.663s1.281-.609,2.093-.609c.823,0,1.523,.204,2.101,.613,.578,.408,.963,.962,1.156,1.659h.125c.245-.688,.688-1.237,1.332-1.651,.643-.414,1.404-.621,2.284-.621,1.119,0,2.029,.355,2.729,1.066,.7,.71,1.05,1.717,1.05,3.018v8.067h-3.319v-7.411c0-.666-.177-1.166-.531-1.499s-.797-.5-1.328-.5c-.604,0-1.075,.191-1.414,.574-.338,.382-.508,.886-.508,1.511v7.325h-3.225v-7.481c0-.588-.168-1.057-.503-1.405-.336-.349-.777-.523-1.324-.523-.37,0-.702,.093-.996,.277-.294,.185-.527,.442-.699,.772-.172,.331-.258,.718-.258,1.16v7.2h-3.327Z"/>
    <path d="M793.943,685.219v-16.493h3.28v2.015h.148c.146-.322,.358-.652,.637-.988,.278-.335,.643-.616,1.093-.843,.45-.227,1.011-.34,1.683-.34,.875,0,1.682,.228,2.421,.684,.739,.455,1.331,1.14,1.773,2.054,.442,.913,.664,2.058,.664,3.432,0,1.339-.214,2.467-.644,3.386s-1.013,1.614-1.75,2.085c-.737,.472-1.561,.707-2.472,.707-.646,0-1.193-.106-1.644-.32-.451-.213-.819-.482-1.105-.809-.287-.325-.505-.654-.656-.987h-.102v6.419h-3.327Zm3.256-10.496c0,.714,.099,1.336,.297,1.867,.198,.53,.484,.943,.859,1.237,.375,.294,.831,.441,1.367,.441,.542,0,1-.149,1.375-.449,.375-.299,.66-.716,.855-1.249,.195-.534,.293-1.149,.293-1.848,0-.692-.096-1.301-.289-1.827-.192-.525-.476-.937-.851-1.233s-.835-.445-1.382-.445c-.542,0-.998,.144-1.371,.43-.372,.286-.657,.692-.855,1.218-.198,.526-.297,1.146-.297,1.858Z"/>
    <path d="M811.178,664.728v15.993h-3.327v-15.993h3.327Z"/>
    <path d="M815.777,680.924c-.515,0-.957-.184-1.324-.551-.367-.367-.55-.809-.55-1.323,0-.511,.184-.948,.55-1.312,.367-.364,.809-.547,1.324-.547,.5,0,.938,.183,1.312,.547,.375,.364,.562,.802,.562,1.312,0,.344-.087,.657-.262,.94-.174,.284-.402,.511-.683,.68-.281,.169-.591,.254-.93,.254Z"/>
    <path d="M820.377,668.726h3.327v12.589c0,.927-.183,1.676-.547,2.249-.364,.572-.887,.991-1.565,1.257-.68,.266-1.49,.398-2.433,.398-.114,0-.226,0-.333-.004-.106-.003-.22-.007-.34-.012v-2.601c.089,.005,.166,.009,.23,.012,.065,.003,.134,.004,.207,.004,.537,0,.913-.113,1.128-.34,.217-.227,.324-.565,.324-1.019v-12.534Zm1.656-1.546c-.49,0-.911-.166-1.266-.496-.354-.331-.531-.728-.531-1.191,0-.458,.177-.853,.531-1.183,.354-.331,.775-.496,1.266-.496,.499,0,.925,.165,1.276,.496,.352,.33,.527,.725,.527,1.183,0,.464-.176,.86-.527,1.191-.352,.33-.777,.496-1.276,.496Z"/>
    <path d="M836.339,672.146l-3.045,.188c-.053-.26-.164-.495-.336-.706s-.397-.38-.676-.508-.61-.191-.995-.191c-.517,0-.951,.108-1.305,.324-.354,.216-.531,.504-.531,.863,0,.286,.114,.528,.344,.726,.229,.198,.622,.356,1.179,.477l2.172,.438c1.166,.239,2.035,.625,2.608,1.155,.572,.531,.858,1.229,.858,2.094,0,.786-.23,1.476-.69,2.069-.461,.593-1.091,1.056-1.891,1.386-.799,.331-1.719,.496-2.76,.496-1.589,0-2.853-.332-3.792-.996-.94-.663-1.49-1.568-1.652-2.714l3.272-.172c.099,.484,.339,.854,.719,1.105,.38,.253,.866,.379,1.461,.379,.582,0,1.053-.113,1.409-.34s.537-.52,.543-.879c-.006-.302-.133-.55-.383-.745s-.636-.345-1.155-.449l-2.078-.414c-1.172-.234-2.042-.641-2.612-1.218-.57-.578-.855-1.315-.855-2.211,0-.771,.21-1.434,.629-1.991,.419-.557,1.01-.986,1.772-1.288s1.657-.453,2.684-.453c1.515,0,2.708,.32,3.58,.961,.872,.64,1.381,1.512,1.526,2.615Z"/>
  </g>
  <rect class="cls-11" x="988.671" y="642.949" width="237.389" height="58.612" rx="7.751" ry="7.751"/>
  <g>
    <path class="cls-3" d="M1012.492,680.721v-15.993h6.311c1.208,0,2.24,.214,3.097,.644s1.51,1.036,1.96,1.82c.45,.783,.676,1.703,.676,2.76,0,1.062-.229,1.975-.688,2.737s-1.121,1.348-1.987,1.754c-.867,.405-1.915,.608-3.144,.608h-4.225v-2.718h3.678c.646,0,1.182-.088,1.608-.265,.428-.178,.746-.443,.957-.797,.211-.354,.316-.794,.316-1.32,0-.53-.105-.979-.316-1.343s-.531-.642-.961-.832c-.429-.189-.97-.285-1.62-.285h-2.28v13.229h-3.382Zm8.638-7.278l3.975,7.278h-3.732l-3.89-7.278h3.647Z"/>
    <path class="cls-3" d="M1032.125,680.956c-1.233,0-2.295-.251-3.182-.754-.888-.502-1.571-1.216-2.051-2.14-.479-.924-.718-2.019-.718-3.284,0-1.233,.239-2.316,.718-3.248,.479-.932,1.155-1.658,2.027-2.179,.871-.521,1.896-.781,3.072-.781,.792,0,1.529,.126,2.214,.379,.685,.252,1.283,.631,1.797,1.136,.513,.506,.912,1.14,1.198,1.902s.43,1.654,.43,2.674v.914h-10.129v-2.062h6.997c0-.479-.104-.903-.312-1.273-.208-.369-.495-.659-.862-.87s-.793-.316-1.277-.316c-.505,0-.951,.116-1.339,.348s-.691,.541-.91,.929c-.219,.389-.33,.819-.336,1.293v1.96c0,.594,.111,1.106,.332,1.538,.222,.433,.535,.766,.941,1s.888,.352,1.444,.352c.37,0,.708-.052,1.016-.156,.307-.104,.57-.261,.788-.469,.219-.208,.386-.463,.5-.766l3.077,.203c-.156,.739-.476,1.384-.957,1.934-.481,.549-1.101,.976-1.858,1.28s-1.631,.457-2.62,.457Z"/>
    <path class="cls-3" d="M1045.222,680.956c-1.229,0-2.284-.262-3.166-.785-.883-.523-1.56-1.251-2.031-2.183-.471-.932-.706-2.004-.706-3.218,0-1.229,.238-2.308,.714-3.236,.477-.93,1.155-1.656,2.035-2.179,.879-.523,1.926-.785,3.139-.785,1.047,0,1.963,.19,2.749,.57s1.408,.913,1.866,1.601,.711,1.494,.758,2.421h-3.14c-.088-.599-.321-1.081-.698-1.448-.378-.367-.871-.551-1.48-.551-.516,0-.964,.14-1.347,.418s-.681,.683-.895,1.214-.32,1.175-.32,1.929c0,.766,.105,1.417,.316,1.953s.509,.944,.895,1.226c.385,.281,.835,.422,1.351,.422,.38,0,.723-.078,1.027-.234s.557-.384,.758-.684c.2-.299,.331-.659,.394-1.081h3.14c-.052,.916-.301,1.722-.746,2.417-.444,.695-1.058,1.237-1.839,1.628s-1.705,.586-2.772,.586Z"/>
    <path class="cls-3" d="M1058.139,680.956c-1.213,0-2.261-.259-3.143-.777-.883-.518-1.563-1.241-2.043-2.171-.479-.93-.718-2.008-.718-3.237,0-1.238,.239-2.323,.718-3.252,.479-.93,1.16-1.653,2.043-2.171,.882-.519,1.93-.777,3.143-.777s2.261,.259,3.144,.777c.883,.518,1.563,1.241,2.042,2.171,.479,.929,.719,2.014,.719,3.252,0,1.229-.239,2.308-.719,3.237-.479,.93-1.159,1.653-2.042,2.171-.883,.519-1.931,.777-3.144,.777Zm.016-2.577c.552,0,1.013-.157,1.383-.473,.369-.314,.649-.746,.839-1.292,.19-.547,.285-1.169,.285-1.867s-.095-1.319-.285-1.866c-.189-.547-.47-.979-.839-1.296-.37-.317-.831-.477-1.383-.477-.557,0-1.024,.159-1.401,.477-.378,.317-.661,.749-.852,1.296s-.285,1.169-.285,1.866,.095,1.32,.285,1.867c.19,.546,.474,.978,.852,1.292,.377,.315,.845,.473,1.401,.473Z"/>
    <path class="cls-3" d="M1066.213,680.721v-11.995h3.226v2.093h.125c.219-.744,.586-1.308,1.102-1.69,.515-.383,1.108-.574,1.78-.574,.166,0,.346,.011,.539,.031,.192,.021,.361,.05,.507,.086v2.952c-.155-.047-.372-.089-.647-.125-.276-.036-.528-.055-.758-.055-.489,0-.926,.105-1.308,.316-.383,.211-.685,.503-.906,.878s-.332,.808-.332,1.297v6.786h-3.327Z"/>
    <path class="cls-3" d="M1079.06,680.917c-.911,0-1.735-.235-2.472-.707-.737-.471-1.32-1.166-1.75-2.085-.429-.919-.644-2.047-.644-3.386,0-1.374,.221-2.519,.663-3.432,.442-.914,1.032-1.599,1.77-2.054,.736-.456,1.545-.684,2.425-.684,.671,0,1.232,.113,1.683,.34s.814,.508,1.094,.843c.278,.336,.49,.666,.636,.988h.102v-6.013h3.319v15.993h-3.28v-1.921h-.141c-.156,.333-.376,.662-.659,.987-.284,.326-.651,.596-1.102,.809-.45,.214-.998,.32-1.644,.32Zm1.054-2.647c.536,0,.99-.147,1.363-.441,.372-.294,.658-.707,.858-1.237,.2-.531,.301-1.153,.301-1.867s-.099-1.332-.297-1.858c-.197-.525-.483-.932-.858-1.218s-.831-.43-1.367-.43c-.547,0-1.007,.148-1.382,.445s-.659,.708-.852,1.233c-.192,.526-.289,1.135-.289,1.827,0,.698,.098,1.313,.293,1.848,.195,.533,.479,.95,.852,1.249,.372,.3,.831,.449,1.378,.449Z"/>
    <path class="cls-3" d="M1090.281,667.18c-.495,0-.918-.164-1.27-.492s-.526-.724-.526-1.188,.177-.86,.53-1.19c.354-.331,.776-.496,1.266-.496,.494,0,.917,.164,1.269,.492s.527,.724,.527,1.187-.176,.86-.527,1.191c-.352,.33-.774,.496-1.269,.496Zm-1.672,13.541v-11.995h3.327v11.995h-3.327Z"/>
    <path class="cls-3" d="M1097.919,673.787v6.935h-3.327v-11.995h3.171v2.116h.141c.266-.697,.711-1.251,1.336-1.659,.624-.409,1.382-.613,2.272-.613,.833,0,1.559,.183,2.179,.547,.619,.364,1.101,.884,1.444,1.558,.344,.675,.516,1.478,.516,2.409v7.638h-3.327v-7.044c.006-.734-.182-1.309-.562-1.722-.381-.414-.903-.621-1.57-.621-.447,0-.842,.097-1.183,.289-.342,.192-.606,.473-.797,.839-.19,.367-.288,.809-.293,1.324Z"/>
    <path class="cls-3" d="M1113.67,685.469c-1.077,0-2-.147-2.769-.441-.768-.294-1.378-.693-1.831-1.198s-.747-1.073-.883-1.703l3.077-.413c.094,.239,.242,.463,.445,.671s.473,.376,.809,.504,.745,.191,1.229,.191c.724,0,1.321-.176,1.792-.527,.472-.352,.707-.938,.707-1.761v-2.194h-.141c-.146,.333-.364,.648-.655,.944-.292,.297-.667,.539-1.125,.727s-1.005,.281-1.64,.281c-.901,0-1.72-.209-2.456-.629-.737-.419-1.323-1.062-1.758-1.929s-.651-1.964-.651-3.292c0-1.358,.221-2.493,.663-3.404s1.032-1.594,1.77-2.046c.736-.453,1.545-.68,2.425-.68,.671,0,1.233,.113,1.687,.34s.818,.508,1.098,.843c.278,.336,.493,.666,.644,.988h.125v-2.015h3.304v12.112c0,1.021-.25,1.874-.75,2.562s-1.19,1.204-2.073,1.55c-.883,.347-1.896,.52-3.042,.52Zm.07-7.419c.536,0,.99-.134,1.363-.402,.372-.268,.658-.653,.858-1.155,.2-.503,.301-1.105,.301-1.809s-.099-1.312-.297-1.831c-.197-.518-.483-.92-.858-1.206s-.831-.43-1.367-.43c-.547,0-1.007,.147-1.382,.441s-.659,.701-.852,1.222-.289,1.122-.289,1.804c0,.693,.098,1.29,.293,1.793,.195,.502,.479,.89,.852,1.163s.831,.41,1.378,.41Z"/>
    <path class="cls-3" d="M1130.929,669.328c-.062-.63-.331-1.12-.805-1.469s-1.116-.523-1.929-.523c-.552,0-1.018,.077-1.397,.23-.381,.154-.671,.366-.871,.637s-.301,.578-.301,.922c-.011,.286,.051,.536,.184,.749,.133,.214,.316,.397,.551,.551,.234,.154,.505,.286,.812,.398,.308,.112,.636,.207,.984,.285l1.437,.344c.698,.156,1.339,.364,1.922,.625,.583,.26,1.088,.58,1.515,.96s.759,.828,.996,1.344c.236,.515,.357,1.106,.362,1.772-.005,.979-.253,1.826-.745,2.542s-1.2,1.271-2.124,1.663c-.925,.394-2.037,.59-3.339,.59-1.291,0-2.414-.198-3.37-.594-.955-.396-1.699-.982-2.233-1.761-.533-.778-.813-1.743-.839-2.894h3.271c.037,.536,.191,.982,.465,1.34,.273,.356,.641,.624,1.102,.804,.46,.18,.982,.27,1.565,.27,.572,0,1.071-.083,1.495-.25,.425-.166,.754-.398,.988-.695,.234-.296,.352-.638,.352-1.022,0-.359-.105-.661-.316-.906-.211-.244-.519-.453-.922-.625-.403-.171-.896-.327-1.479-.468l-1.741-.438c-1.349-.328-2.413-.841-3.194-1.539-.781-.697-1.169-1.637-1.164-2.818-.005-.969,.254-1.814,.777-2.538s1.243-1.289,2.159-1.695c.917-.405,1.958-.608,3.124-.608,1.188,0,2.225,.203,3.112,.608,.888,.406,1.578,.972,2.073,1.695,.494,.724,.75,1.562,.766,2.515h-3.241Z"/>
    <path class="cls-3" d="M1142.971,668.726v2.499h-7.224v-2.499h7.224Zm-5.584-2.874h3.327v11.184c0,.307,.047,.545,.141,.714,.094,.17,.225,.288,.395,.355,.169,.067,.365,.102,.589,.102,.156,0,.312-.015,.469-.043s.276-.051,.359-.066l.523,2.476c-.167,.052-.401,.113-.703,.184s-.669,.113-1.101,.129c-.803,.031-1.504-.075-2.105-.32-.601-.244-1.068-.625-1.401-1.14-.333-.516-.497-1.167-.492-1.953v-11.62Z"/>
    <path class="cls-3" d="M1150.429,680.956c-1.213,0-2.261-.259-3.143-.777-.883-.518-1.563-1.241-2.043-2.171-.479-.93-.718-2.008-.718-3.237,0-1.238,.239-2.323,.718-3.252,.479-.93,1.16-1.653,2.043-2.171,.882-.519,1.93-.777,3.143-.777s2.261,.259,3.144,.777c.883,.518,1.563,1.241,2.042,2.171,.479,.929,.719,2.014,.719,3.252,0,1.229-.239,2.308-.719,3.237-.479,.93-1.159,1.653-2.042,2.171-.883,.519-1.931,.777-3.144,.777Zm.016-2.577c.552,0,1.013-.157,1.383-.473,.369-.314,.649-.746,.839-1.292,.19-.547,.285-1.169,.285-1.867s-.095-1.319-.285-1.866c-.189-.547-.47-.979-.839-1.296-.37-.317-.831-.477-1.383-.477-.557,0-1.024,.159-1.401,.477-.378,.317-.661,.749-.852,1.296s-.285,1.169-.285,1.866,.095,1.32,.285,1.867c.19,.546,.474,.978,.852,1.292,.377,.315,.845,.473,1.401,.473Z"/>
    <path class="cls-3" d="M1158.503,680.721v-11.995h3.226v2.093h.125c.219-.744,.586-1.308,1.102-1.69,.515-.383,1.108-.574,1.78-.574,.166,0,.346,.011,.539,.031,.192,.021,.361,.05,.507,.086v2.952c-.155-.047-.372-.089-.647-.125-.276-.036-.528-.055-.758-.055-.489,0-.926,.105-1.308,.316-.383,.211-.685,.503-.906,.878s-.332,.808-.332,1.297v6.786h-3.327Z"/>
    <path class="cls-3" d="M1172.396,680.956c-1.233,0-2.295-.251-3.182-.754-.888-.502-1.571-1.216-2.051-2.14-.479-.924-.718-2.019-.718-3.284,0-1.233,.239-2.316,.718-3.248,.479-.932,1.155-1.658,2.027-2.179,.871-.521,1.896-.781,3.072-.781,.792,0,1.529,.126,2.214,.379,.685,.252,1.283,.631,1.797,1.136,.513,.506,.912,1.14,1.198,1.902s.43,1.654,.43,2.674v.914h-10.129v-2.062h6.997c0-.479-.104-.903-.312-1.273-.208-.369-.495-.659-.862-.87s-.793-.316-1.277-.316c-.505,0-.951,.116-1.339,.348s-.691,.541-.91,.929c-.219,.389-.33,.819-.336,1.293v1.96c0,.594,.111,1.106,.332,1.538,.222,.433,.535,.766,.941,1s.888,.352,1.444,.352c.37,0,.708-.052,1.016-.156,.307-.104,.57-.261,.788-.469,.219-.208,.386-.463,.5-.766l3.077,.203c-.156,.739-.476,1.384-.957,1.934-.481,.549-1.101,.976-1.858,1.28s-1.631,.457-2.62,.457Z"/>
    <path class="cls-3" d="M1182.018,680.924c-.516,0-.957-.184-1.324-.551s-.551-.809-.551-1.323c0-.511,.184-.948,.551-1.312s.809-.547,1.324-.547c.499,0,.937,.183,1.312,.547s.562,.802,.562,1.312c0,.344-.087,.657-.262,.94-.175,.284-.402,.511-.684,.68s-.591,.254-.929,.254Z"/>
    <path class="cls-3" d="M1186.616,668.726h3.327v12.589c0,.927-.183,1.676-.547,2.249-.364,.572-.886,.991-1.565,1.257s-1.49,.398-2.433,.398c-.114,0-.226,0-.332-.004s-.22-.007-.34-.012v-2.601c.089,.005,.166,.009,.23,.012,.065,.003,.134,.004,.207,.004,.536,0,.912-.113,1.129-.34,.216-.227,.323-.565,.323-1.019v-12.534Zm1.656-1.546c-.489,0-.911-.166-1.266-.496-.354-.331-.53-.728-.53-1.191,0-.458,.177-.853,.53-1.183,.354-.331,.776-.496,1.266-.496,.5,0,.925,.165,1.276,.496,.352,.33,.527,.725,.527,1.183,0,.464-.176,.86-.527,1.191-.352,.33-.776,.496-1.276,.496Z"/>
    <path class="cls-3" d="M1202.578,672.146l-3.045,.188c-.053-.26-.164-.495-.336-.706s-.397-.38-.676-.508-.61-.191-.996-.191c-.515,0-.95,.108-1.304,.324-.354,.216-.531,.504-.531,.863,0,.286,.114,.528,.344,.726,.229,.198,.622,.356,1.18,.477l2.171,.438c1.166,.239,2.035,.625,2.608,1.155,.572,.531,.858,1.229,.858,2.094,0,.786-.23,1.476-.69,2.069-.461,.593-1.091,1.056-1.891,1.386-.799,.331-1.719,.496-2.761,.496-1.588,0-2.852-.332-3.791-.996-.939-.663-1.49-1.568-1.651-2.714l3.271-.172c.1,.484,.339,.854,.719,1.105,.38,.253,.867,.379,1.46,.379,.583,0,1.054-.113,1.41-.34s.537-.52,.543-.879c-.006-.302-.133-.55-.383-.745s-.636-.345-1.156-.449l-2.077-.414c-1.171-.234-2.042-.641-2.612-1.218-.57-.578-.854-1.315-.854-2.211,0-.771,.209-1.434,.628-1.991,.419-.557,1.011-.986,1.773-1.288s1.656-.453,2.682-.453c1.516,0,2.709,.32,3.581,.961,.872,.64,1.381,1.512,1.526,2.615Z"/>
  </g>
  <rect class="cls-13" x="874.199" y="746.147" width="180.439" height="58.612" rx="7.751" ry="7.751"/>
  <g class="cls-10">
    <path d="M904.649,784.153c-1.229,0-2.284-.262-3.166-.785-.883-.523-1.56-1.251-2.031-2.183-.471-.932-.706-2.004-.706-3.218,0-1.229,.238-2.308,.714-3.236,.477-.93,1.155-1.656,2.035-2.179,.879-.523,1.926-.785,3.139-.785,1.047,0,1.963,.19,2.749,.57s1.408,.913,1.866,1.601,.711,1.494,.758,2.421h-3.14c-.088-.599-.321-1.081-.698-1.448-.378-.367-.871-.551-1.48-.551-.516,0-.964,.14-1.347,.418s-.681,.683-.895,1.214-.32,1.175-.32,1.929c0,.766,.105,1.417,.316,1.953s.509,.944,.895,1.226c.385,.281,.835,.422,1.351,.422,.38,0,.723-.078,1.027-.234s.557-.384,.758-.684c.2-.299,.331-.659,.394-1.081h3.14c-.052,.916-.301,1.722-.746,2.417-.444,.695-1.058,1.237-1.839,1.628s-1.705,.586-2.772,.586Z"/>
    <path d="M917.566,784.153c-1.213,0-2.261-.259-3.143-.777-.883-.518-1.563-1.241-2.043-2.171-.479-.93-.718-2.008-.718-3.237,0-1.238,.239-2.323,.718-3.252,.479-.93,1.16-1.653,2.043-2.171,.882-.519,1.93-.777,3.143-.777s2.261,.259,3.144,.777c.883,.518,1.563,1.241,2.042,2.171,.479,.929,.719,2.014,.719,3.252,0,1.229-.239,2.308-.719,3.237-.479,.93-1.159,1.653-2.042,2.171-.883,.519-1.931,.777-3.144,.777Zm.016-2.577c.552,0,1.013-.157,1.383-.473,.369-.314,.649-.746,.839-1.292,.19-.547,.285-1.169,.285-1.867s-.095-1.319-.285-1.866c-.189-.547-.47-.979-.839-1.296-.37-.317-.831-.477-1.383-.477-.557,0-1.024,.159-1.401,.477-.378,.317-.661,.749-.852,1.296s-.285,1.169-.285,1.866,.095,1.32,.285,1.867c.19,.546,.474,.978,.852,1.292,.377,.315,.845,.473,1.401,.473Z"/>
    <path d="M928.968,776.984v6.935h-3.327v-11.995h3.171v2.116h.141c.266-.697,.711-1.251,1.336-1.659,.624-.409,1.382-.613,2.272-.613,.833,0,1.559,.183,2.179,.547,.619,.364,1.101,.884,1.444,1.558,.344,.675,.516,1.478,.516,2.409v7.638h-3.327v-7.044c.006-.734-.182-1.309-.562-1.722-.381-.414-.903-.621-1.57-.621-.447,0-.842,.097-1.183,.289-.342,.192-.606,.473-.797,.839-.19,.367-.288,.809-.293,1.324Z"/>
    <path d="M949.295,775.343l-3.045,.188c-.053-.26-.164-.495-.336-.706s-.397-.38-.676-.508-.61-.191-.996-.191c-.515,0-.95,.108-1.304,.324-.354,.216-.531,.504-.531,.863,0,.286,.114,.528,.344,.726,.229,.198,.622,.356,1.18,.477l2.171,.438c1.166,.239,2.035,.625,2.608,1.155,.572,.531,.858,1.229,.858,2.094,0,.786-.23,1.476-.69,2.069-.461,.593-1.091,1.056-1.891,1.386-.799,.331-1.719,.496-2.761,.496-1.588,0-2.852-.332-3.791-.996-.939-.663-1.49-1.568-1.651-2.714l3.271-.172c.1,.484,.339,.854,.719,1.105,.38,.253,.867,.379,1.46,.379,.583,0,1.054-.113,1.41-.34s.537-.52,.543-.879c-.006-.302-.133-.55-.383-.745s-.636-.345-1.156-.449l-2.077-.414c-1.171-.234-2.042-.641-2.612-1.218-.57-.578-.854-1.315-.854-2.211,0-.771,.209-1.434,.628-1.991,.419-.557,1.011-.986,1.773-1.288s1.656-.453,2.682-.453c1.516,0,2.709,.32,3.581,.961,.872,.64,1.381,1.512,1.526,2.615Z"/>
    <path d="M958.05,771.923v2.499h-7.224v-2.499h7.224Zm-5.584-2.874h3.327v11.184c0,.307,.047,.545,.141,.714,.094,.17,.225,.288,.395,.355,.169,.067,.365,.102,.589,.102,.156,0,.312-.015,.469-.043s.276-.051,.359-.066l.523,2.476c-.167,.052-.401,.113-.703,.184s-.669,.113-1.101,.129c-.803,.031-1.504-.075-2.105-.32-.601-.244-1.068-.625-1.401-1.14-.333-.516-.497-1.167-.492-1.953v-11.62Z"/>
    <path d="M963.634,784.145c-.766,0-1.447-.134-2.046-.402-.599-.268-1.071-.666-1.418-1.194-.346-.528-.519-1.188-.519-1.98,0-.666,.122-1.226,.367-1.679,.244-.453,.577-.817,.999-1.094,.422-.275,.902-.483,1.441-.624,.538-.141,1.104-.239,1.698-.297,.697-.073,1.26-.142,1.687-.207s.736-.163,.93-.293c.192-.13,.289-.322,.289-.578v-.047c0-.494-.155-.877-.465-1.147s-.749-.406-1.316-.406c-.599,0-1.075,.132-1.429,.395-.354,.263-.589,.592-.703,.987l-3.076-.249c.155-.729,.463-1.36,.921-1.895,.458-.533,1.051-.944,1.776-1.233,.727-.289,1.568-.434,2.526-.434,.667,0,1.306,.078,1.918,.234,.611,.156,1.155,.398,1.632,.727,.477,.327,.853,.748,1.128,1.261,.276,.513,.414,1.126,.414,1.839v8.091h-3.154v-1.663h-.094c-.193,.375-.451,.704-.773,.987-.323,.284-.711,.505-1.164,.664-.452,.159-.976,.238-1.569,.238Zm.953-2.296c.489,0,.921-.098,1.296-.293s.669-.459,.883-.793c.213-.333,.32-.71,.32-1.132v-1.273c-.104,.068-.246,.129-.426,.184s-.382,.104-.605,.148-.447,.083-.672,.117c-.224,.034-.427,.063-.608,.09-.391,.058-.731,.148-1.023,.273s-.519,.293-.68,.504-.242,.473-.242,.784c0,.453,.166,.798,.496,1.035,.331,.237,.751,.355,1.262,.355Z"/>
    <path d="M976.3,776.984v6.935h-3.327v-11.995h3.171v2.116h.141c.266-.697,.711-1.251,1.336-1.659,.624-.409,1.382-.613,2.272-.613,.833,0,1.559,.183,2.179,.547,.619,.364,1.101,.884,1.444,1.558,.344,.675,.516,1.478,.516,2.409v7.638h-3.327v-7.044c.006-.734-.182-1.309-.562-1.722-.381-.414-.903-.621-1.57-.621-.447,0-.842,.097-1.183,.289-.342,.192-.606,.473-.797,.839-.19,.367-.288,.809-.293,1.324Z"/>
    <path d="M993.027,771.923v2.499h-7.224v-2.499h7.224Zm-5.584-2.874h3.327v11.184c0,.307,.047,.545,.141,.714,.094,.17,.225,.288,.395,.355,.169,.067,.365,.102,.589,.102,.156,0,.312-.015,.469-.043s.276-.051,.359-.066l.523,2.476c-.167,.052-.401,.113-.703,.184s-.669,.113-1.101,.129c-.803,.031-1.504-.075-2.105-.32-.601-.244-1.068-.625-1.401-1.14-.333-.516-.497-1.167-.492-1.953v-11.62Z"/>
    <path d="M1005.007,775.343l-3.045,.188c-.053-.26-.164-.495-.336-.706s-.397-.38-.676-.508-.61-.191-.996-.191c-.515,0-.95,.108-1.304,.324-.354,.216-.531,.504-.531,.863,0,.286,.114,.528,.344,.726,.229,.198,.622,.356,1.18,.477l2.171,.438c1.166,.239,2.035,.625,2.608,1.155,.572,.531,.858,1.229,.858,2.094,0,.786-.23,1.476-.69,2.069-.461,.593-1.091,1.056-1.891,1.386-.799,.331-1.719,.496-2.761,.496-1.588,0-2.852-.332-3.791-.996-.939-.663-1.49-1.568-1.651-2.714l3.271-.172c.1,.484,.339,.854,.719,1.105,.38,.253,.867,.379,1.46,.379,.583,0,1.054-.113,1.41-.34s.537-.52,.543-.879c-.006-.302-.133-.55-.383-.745s-.636-.345-1.156-.449l-2.077-.414c-1.171-.234-2.042-.641-2.612-1.218-.57-.578-.854-1.315-.854-2.211,0-.771,.209-1.434,.628-1.991,.419-.557,1.011-.986,1.773-1.288s1.656-.453,2.682-.453c1.516,0,2.709,.32,3.581,.961,.872,.64,1.381,1.512,1.526,2.615Z"/>
    <path d="M1009.326,784.122c-.516,0-.957-.184-1.324-.551s-.551-.809-.551-1.323c0-.511,.184-.948,.551-1.312s.809-.547,1.324-.547c.499,0,.937,.183,1.312,.547s.562,.802,.562,1.312c0,.344-.087,.657-.262,.94-.175,.284-.402,.511-.684,.68s-.591,.254-.929,.254Z"/>
    <path d="M1013.925,771.923h3.327v12.589c0,.927-.183,1.676-.547,2.249-.364,.572-.886,.991-1.565,1.257s-1.49,.398-2.433,.398c-.114,0-.226,0-.332-.004s-.22-.007-.34-.012v-2.601c.089,.005,.166,.009,.23,.012,.065,.003,.134,.004,.207,.004,.536,0,.912-.113,1.129-.34,.216-.227,.323-.565,.323-1.019v-12.534Zm1.656-1.546c-.489,0-.911-.166-1.266-.496-.354-.331-.53-.728-.53-1.191,0-.458,.177-.853,.53-1.183,.354-.331,.776-.496,1.266-.496,.5,0,.925,.165,1.276,.496,.352,.33,.527,.725,.527,1.183,0,.464-.176,.86-.527,1.191-.352,.33-.776,.496-1.276,.496Z"/>
    <path d="M1029.887,775.343l-3.045,.188c-.053-.26-.164-.495-.336-.706s-.397-.38-.676-.508-.61-.191-.996-.191c-.515,0-.95,.108-1.304,.324-.354,.216-.531,.504-.531,.863,0,.286,.114,.528,.344,.726,.229,.198,.622,.356,1.18,.477l2.171,.438c1.166,.239,2.035,.625,2.608,1.155,.572,.531,.858,1.229,.858,2.094,0,.786-.23,1.476-.69,2.069-.461,.593-1.091,1.056-1.891,1.386-.799,.331-1.719,.496-2.761,.496-1.588,0-2.852-.332-3.791-.996-.939-.663-1.49-1.568-1.651-2.714l3.271-.172c.1,.484,.339,.854,.719,1.105,.38,.253,.867,.379,1.46,.379,.583,0,1.054-.113,1.41-.34s.537-.52,.543-.879c-.006-.302-.133-.55-.383-.745s-.636-.345-1.156-.449l-2.077-.414c-1.171-.234-2.042-.641-2.612-1.218-.57-.578-.854-1.315-.854-2.211,0-.771,.209-1.434,.628-1.991,.419-.557,1.011-.986,1.773-1.288s1.656-.453,2.682-.453c1.516,0,2.709,.32,3.581,.961,.872,.64,1.381,1.512,1.526,2.615Z"/>
  </g>
  <rect class="cls-4" x="874.199" y="841.737" width="145.747" height="58.612" rx="7.751" ry="7.751"/>
  <g class="cls-10">
    <path d="M899.268,879.509v-15.993h10.777v2.787h-7.396v3.812h6.841v2.788h-6.841v3.818h7.427v2.788h-10.809Z"/>
    <path d="M923.859,867.514l-4.193,11.995h-3.749l-4.193-11.995h3.514l2.491,8.582h.125l2.483-8.582h3.522Z"/>
    <path d="M930.631,879.744c-1.233,0-2.295-.251-3.182-.754-.888-.502-1.571-1.216-2.051-2.14-.479-.924-.718-2.019-.718-3.284,0-1.233,.239-2.316,.718-3.248,.479-.932,1.155-1.658,2.027-2.179,.871-.521,1.896-.781,3.072-.781,.792,0,1.529,.126,2.214,.379,.685,.252,1.283,.631,1.797,1.136,.513,.506,.912,1.14,1.198,1.902s.43,1.654,.43,2.674v.914h-10.129v-2.062h6.997c0-.479-.104-.903-.312-1.273-.208-.369-.495-.659-.862-.87s-.793-.316-1.277-.316c-.505,0-.951,.116-1.339,.348s-.691,.541-.91,.929c-.219,.389-.33,.819-.336,1.293v1.96c0,.594,.111,1.106,.332,1.538,.222,.433,.535,.766,.941,1s.888,.352,1.444,.352c.37,0,.708-.052,1.016-.156,.307-.104,.57-.261,.788-.469,.219-.208,.386-.463,.5-.766l3.077,.203c-.156,.739-.476,1.384-.957,1.934-.481,.549-1.101,.976-1.858,1.28s-1.631,.457-2.62,.457Z"/>
    <path d="M941.634,872.575v6.935h-3.327v-11.995h3.171v2.116h.141c.266-.697,.711-1.251,1.336-1.659,.624-.409,1.382-.613,2.272-.613,.833,0,1.559,.183,2.179,.547,.619,.364,1.101,.884,1.444,1.558,.344,.675,.516,1.478,.516,2.409v7.638h-3.327v-7.044c.006-.734-.182-1.309-.562-1.722-.381-.414-.903-.621-1.57-.621-.447,0-.842,.097-1.183,.289-.342,.192-.606,.473-.797,.839-.19,.367-.288,.809-.293,1.324Z"/>
    <path d="M958.361,867.514v2.499h-7.224v-2.499h7.224Zm-5.584-2.874h3.327v11.184c0,.307,.047,.545,.141,.714,.094,.17,.225,.288,.395,.355,.169,.067,.365,.102,.589,.102,.156,0,.312-.015,.469-.043s.276-.051,.359-.066l.523,2.476c-.167,.052-.401,.113-.703,.184s-.669,.113-1.101,.129c-.803,.031-1.504-.075-2.105-.32-.601-.244-1.068-.625-1.401-1.14-.333-.516-.497-1.167-.492-1.953v-11.62Z"/>
    <path d="M970.341,870.934l-3.045,.188c-.053-.26-.164-.495-.336-.706s-.397-.38-.676-.508-.61-.191-.996-.191c-.515,0-.95,.108-1.304,.324-.354,.216-.531,.504-.531,.863,0,.286,.114,.528,.344,.726,.229,.198,.622,.356,1.18,.477l2.171,.438c1.166,.239,2.035,.625,2.608,1.155,.572,.531,.858,1.229,.858,2.094,0,.786-.23,1.476-.69,2.069-.461,.593-1.091,1.056-1.891,1.386-.799,.331-1.719,.496-2.761,.496-1.588,0-2.852-.332-3.791-.996-.939-.663-1.49-1.568-1.651-2.714l3.271-.172c.1,.484,.339,.854,.719,1.105,.38,.253,.867,.379,1.46,.379,.583,0,1.054-.113,1.41-.34s.537-.52,.543-.879c-.006-.302-.133-.55-.383-.745s-.636-.345-1.156-.449l-2.077-.414c-1.171-.234-2.042-.641-2.612-1.218-.57-.578-.854-1.315-.854-2.211,0-.771,.209-1.434,.628-1.991,.419-.557,1.011-.986,1.773-1.288s1.656-.453,2.682-.453c1.516,0,2.709,.32,3.581,.961,.872,.64,1.381,1.512,1.526,2.615Z"/>
    <path d="M974.66,879.712c-.516,0-.957-.184-1.324-.551s-.551-.809-.551-1.323c0-.511,.184-.948,.551-1.312s.809-.547,1.324-.547c.499,0,.937,.183,1.312,.547s.562,.802,.562,1.312c0,.344-.087,.657-.262,.94-.175,.284-.402,.511-.684,.68s-.591,.254-.929,.254Z"/>
    <path d="M979.259,867.514h3.327v12.589c0,.927-.183,1.676-.547,2.249-.364,.572-.886,.991-1.565,1.257s-1.49,.398-2.433,.398c-.114,0-.226,0-.332-.004s-.22-.007-.34-.012v-2.601c.089,.005,.166,.009,.23,.012,.065,.003,.134,.004,.207,.004,.536,0,.912-.113,1.129-.34,.216-.227,.323-.565,.323-1.019v-12.534Zm1.656-1.546c-.489,0-.911-.166-1.266-.496-.354-.331-.53-.728-.53-1.191,0-.458,.177-.853,.53-1.183,.354-.331,.776-.496,1.266-.496,.5,0,.925,.165,1.276,.496,.352,.33,.527,.725,.527,1.183,0,.464-.176,.86-.527,1.191-.352,.33-.776,.496-1.276,.496Z"/>
    <path d="M995.221,870.934l-3.045,.188c-.053-.26-.164-.495-.336-.706s-.397-.38-.676-.508-.61-.191-.996-.191c-.515,0-.95,.108-1.304,.324-.354,.216-.531,.504-.531,.863,0,.286,.114,.528,.344,.726,.229,.198,.622,.356,1.18,.477l2.171,.438c1.166,.239,2.035,.625,2.608,1.155,.572,.531,.858,1.229,.858,2.094,0,.786-.23,1.476-.69,2.069-.461,.593-1.091,1.056-1.891,1.386-.799,.331-1.719,.496-2.761,.496-1.588,0-2.852-.332-3.791-.996-.939-.663-1.49-1.568-1.651-2.714l3.271-.172c.1,.484,.339,.854,.719,1.105,.38,.253,.867,.379,1.46,.379,.583,0,1.054-.113,1.41-.34s.537-.52,.543-.879c-.006-.302-.133-.55-.383-.745s-.636-.345-1.156-.449l-2.077-.414c-1.171-.234-2.042-.641-2.612-1.218-.57-.578-.854-1.315-.854-2.211,0-.771,.209-1.434,.628-1.991,.419-.557,1.011-.986,1.773-1.288s1.656-.453,2.682-.453c1.516,0,2.709,.32,3.581,.961,.872,.64,1.381,1.512,1.526,2.615Z"/>
  </g>
  <rect class="cls-15" x="854.814" y="423.043" width="251.055" height="129.373" rx="7.147" ry="7.147"/>
  <g class="cls-10">
    <path d="M912.5,460.816v-11.995h3.226v2.093h.125c.219-.744,.586-1.308,1.102-1.69,.515-.383,1.108-.574,1.78-.574,.166,0,.346,.011,.539,.031,.192,.021,.361,.05,.507,.086v2.952c-.155-.047-.372-.089-.647-.125-.276-.036-.528-.055-.758-.055-.489,0-.926,.105-1.308,.316-.383,.211-.685,.503-.906,.878s-.332,.808-.332,1.297v6.786h-3.327Z"/>
    <path d="M926.393,461.05c-1.233,0-2.295-.251-3.182-.754-.888-.502-1.571-1.216-2.051-2.14-.479-.924-.718-2.019-.718-3.284,0-1.233,.239-2.316,.718-3.248,.479-.932,1.155-1.658,2.027-2.179,.871-.521,1.896-.781,3.072-.781,.792,0,1.529,.126,2.214,.379,.685,.252,1.283,.631,1.797,1.136,.513,.506,.912,1.14,1.198,1.902s.43,1.654,.43,2.674v.914h-10.129v-2.062h6.997c0-.479-.104-.903-.312-1.273-.208-.369-.495-.659-.862-.87s-.793-.316-1.277-.316c-.505,0-.951,.116-1.339,.348s-.691,.541-.91,.929c-.219,.389-.33,.819-.336,1.293v1.96c0,.594,.111,1.106,.332,1.538,.222,.433,.535,.766,.941,1s.888,.352,1.444,.352c.37,0,.708-.052,1.016-.156,.307-.104,.57-.261,.788-.469,.219-.208,.386-.463,.5-.766l3.077,.203c-.156,.739-.476,1.384-.957,1.934-.481,.549-1.101,.976-1.858,1.28s-1.631,.457-2.62,.457Z"/>
    <path d="M937.49,461.042c-.766,0-1.447-.134-2.046-.402-.599-.268-1.071-.666-1.418-1.194-.346-.528-.519-1.188-.519-1.98,0-.666,.122-1.226,.367-1.679,.244-.453,.577-.817,.999-1.094,.422-.275,.902-.483,1.441-.624,.538-.141,1.104-.239,1.698-.297,.697-.073,1.26-.142,1.687-.207s.736-.163,.93-.293c.192-.13,.289-.322,.289-.578v-.047c0-.494-.155-.877-.465-1.147s-.749-.406-1.316-.406c-.599,0-1.075,.132-1.429,.395-.354,.263-.589,.592-.703,.987l-3.076-.249c.155-.729,.463-1.36,.921-1.895,.458-.533,1.051-.944,1.776-1.233,.727-.289,1.568-.434,2.526-.434,.667,0,1.306,.078,1.918,.234,.611,.156,1.155,.398,1.632,.727,.477,.327,.853,.748,1.128,1.261,.276,.513,.414,1.126,.414,1.839v8.091h-3.154v-1.663h-.094c-.193,.375-.451,.704-.773,.987-.323,.284-.711,.505-1.164,.664-.452,.159-.976,.238-1.569,.238Zm.953-2.296c.489,0,.921-.098,1.296-.293s.669-.459,.883-.793c.213-.333,.32-.71,.32-1.132v-1.273c-.104,.068-.246,.129-.426,.184s-.382,.104-.605,.148-.447,.083-.672,.117c-.224,.034-.427,.063-.608,.09-.391,.058-.731,.148-1.023,.273s-.519,.293-.68,.504-.242,.473-.242,.784c0,.453,.166,.798,.496,1.035,.331,.237,.751,.355,1.262,.355Z"/>
    <path d="M952.25,461.05c-1.229,0-2.284-.262-3.166-.785-.883-.523-1.56-1.251-2.031-2.183-.471-.932-.706-2.004-.706-3.218,0-1.229,.238-2.308,.714-3.236,.477-.93,1.155-1.656,2.035-2.179,.879-.523,1.926-.785,3.139-.785,1.047,0,1.963,.19,2.749,.57s1.408,.913,1.866,1.601,.711,1.494,.758,2.421h-3.14c-.088-.599-.321-1.081-.698-1.448-.378-.367-.871-.551-1.48-.551-.516,0-.964,.14-1.347,.418s-.681,.683-.895,1.214-.32,1.175-.32,1.929c0,.766,.105,1.417,.316,1.953s.509,.944,.895,1.226c.385,.281,.835,.422,1.351,.422,.38,0,.723-.078,1.027-.234s.557-.384,.758-.684c.2-.299,.331-.659,.394-1.081h3.14c-.052,.916-.301,1.722-.746,2.417-.444,.695-1.058,1.237-1.839,1.628s-1.705,.586-2.772,.586Z"/>
    <path d="M966.127,448.821v2.499h-7.224v-2.499h7.224Zm-5.584-2.874h3.327v11.184c0,.307,.047,.545,.141,.714,.094,.17,.225,.288,.395,.355,.169,.067,.365,.102,.589,.102,.156,0,.312-.015,.469-.043s.276-.051,.359-.066l.523,2.476c-.167,.052-.401,.113-.703,.184s-.669,.113-1.101,.129c-.803,.031-1.504-.075-2.105-.32-.601-.244-1.068-.625-1.401-1.14-.333-.516-.497-1.167-.492-1.953v-11.62Z"/>
    <path d="M975.404,452.928v2.64h-7.294v-2.64h7.294Z"/>
    <path d="M982.66,461.011c-.911,0-1.735-.235-2.472-.707-.737-.471-1.32-1.166-1.75-2.085-.429-.919-.644-2.047-.644-3.386,0-1.374,.221-2.519,.663-3.432,.442-.914,1.032-1.599,1.77-2.054,.736-.456,1.545-.684,2.425-.684,.671,0,1.232,.113,1.683,.34s.814,.508,1.094,.843c.278,.336,.49,.666,.636,.988h.102v-6.013h3.319v15.993h-3.28v-1.921h-.141c-.156,.333-.376,.662-.659,.987-.284,.326-.651,.596-1.102,.809-.45,.214-.998,.32-1.644,.32Zm1.054-2.647c.536,0,.99-.147,1.363-.441,.372-.294,.658-.707,.858-1.237,.2-.531,.301-1.153,.301-1.867s-.099-1.332-.297-1.858c-.197-.525-.483-.932-.858-1.218s-.831-.43-1.367-.43c-.547,0-1.007,.148-1.382,.445s-.659,.708-.852,1.233c-.192,.526-.289,1.135-.289,1.827,0,.698,.098,1.313,.293,1.848,.195,.533,.479,.95,.852,1.249,.372,.3,.831,.449,1.378,.449Z"/>
    <path d="M997.677,461.05c-1.233,0-2.295-.251-3.182-.754-.888-.502-1.571-1.216-2.051-2.14-.479-.924-.718-2.019-.718-3.284,0-1.233,.239-2.316,.718-3.248,.479-.932,1.155-1.658,2.027-2.179,.871-.521,1.896-.781,3.072-.781,.792,0,1.529,.126,2.214,.379,.685,.252,1.283,.631,1.797,1.136,.513,.506,.912,1.14,1.198,1.902s.43,1.654,.43,2.674v.914h-10.129v-2.062h6.997c0-.479-.104-.903-.312-1.273-.208-.369-.495-.659-.862-.87s-.793-.316-1.277-.316c-.505,0-.951,.116-1.339,.348s-.691,.541-.91,.929c-.219,.389-.33,.819-.336,1.293v1.96c0,.594,.111,1.106,.332,1.538,.222,.433,.535,.766,.941,1s.888,.352,1.444,.352c.37,0,.708-.052,1.016-.156,.307-.104,.57-.261,.788-.469,.219-.208,.386-.463,.5-.766l3.077,.203c-.156,.739-.476,1.384-.957,1.934-.481,.549-1.101,.976-1.858,1.28s-1.631,.457-2.62,.457Z"/>
    <path d="M1016.201,448.821l-4.193,11.995h-3.749l-4.193-11.995h3.514l2.491,8.582h.125l2.483-8.582h3.522Z"/>
    <path d="M1025.377,452.928v2.64h-7.294v-2.64h7.294Z"/>
    <path d="M1034.593,448.821v2.499h-7.224v-2.499h7.224Zm-5.584-2.874h3.327v11.184c0,.307,.047,.545,.141,.714,.094,.17,.225,.288,.395,.355,.169,.067,.365,.102,.589,.102,.156,0,.312-.015,.469-.043s.276-.051,.359-.066l.523,2.476c-.167,.052-.401,.113-.703,.184s-.669,.113-1.101,.129c-.803,.031-1.504-.075-2.105-.32-.601-.244-1.068-.625-1.401-1.14-.333-.516-.497-1.167-.492-1.953v-11.62Z"/>
    <path d="M1042.05,461.05c-1.213,0-2.261-.259-3.143-.777-.883-.518-1.563-1.241-2.043-2.171-.479-.93-.718-2.008-.718-3.237,0-1.238,.239-2.323,.718-3.252,.479-.93,1.16-1.653,2.043-2.171,.882-.519,1.93-.777,3.143-.777s2.261,.259,3.144,.777c.883,.518,1.563,1.241,2.042,2.171,.479,.929,.719,2.014,.719,3.252,0,1.229-.239,2.308-.719,3.237-.479,.93-1.159,1.653-2.042,2.171-.883,.519-1.931,.777-3.144,.777Zm.016-2.577c.552,0,1.013-.157,1.383-.473,.369-.314,.649-.746,.839-1.292,.19-.547,.285-1.169,.285-1.867s-.095-1.319-.285-1.866c-.189-.547-.47-.979-.839-1.296-.37-.317-.831-.477-1.383-.477-.557,0-1.024,.159-1.401,.477-.378,.317-.661,.749-.852,1.296s-.285,1.169-.285,1.866,.095,1.32,.285,1.867c.19,.546,.474,.978,.852,1.292,.377,.315,.845,.473,1.401,.473Z"/>
    <path d="M1055.544,461.05c-1.213,0-2.261-.259-3.143-.777-.883-.518-1.563-1.241-2.043-2.171-.479-.93-.718-2.008-.718-3.237,0-1.238,.239-2.323,.718-3.252,.479-.93,1.16-1.653,2.043-2.171,.882-.519,1.93-.777,3.143-.777s2.261,.259,3.144,.777c.883,.518,1.563,1.241,2.042,2.171,.479,.929,.719,2.014,.719,3.252,0,1.229-.239,2.308-.719,3.237-.479,.93-1.159,1.653-2.042,2.171-.883,.519-1.931,.777-3.144,.777Zm.016-2.577c.552,0,1.013-.157,1.383-.473,.369-.314,.649-.746,.839-1.292,.19-.547,.285-1.169,.285-1.867s-.095-1.319-.285-1.866c-.189-.547-.47-.979-.839-1.296-.37-.317-.831-.477-1.383-.477-.557,0-1.024,.159-1.401,.477-.378,.317-.661,.749-.852,1.296s-.285,1.169-.285,1.866,.095,1.32,.285,1.867c.19,.546,.474,.978,.852,1.292,.377,.315,.845,.473,1.401,.473Z"/>
    <path d="M1066.946,444.823v15.993h-3.327v-15.993h3.327Z"/>
    <path d="M1079.581,452.241l-3.045,.188c-.053-.26-.164-.495-.336-.706s-.397-.38-.676-.508-.61-.191-.996-.191c-.515,0-.95,.108-1.304,.324-.354,.216-.531,.504-.531,.863,0,.286,.114,.528,.344,.726,.229,.198,.622,.356,1.18,.477l2.171,.438c1.166,.239,2.035,.625,2.608,1.155,.572,.531,.858,1.229,.858,2.094,0,.786-.23,1.476-.69,2.069-.461,.593-1.091,1.056-1.891,1.386-.799,.331-1.719,.496-2.761,.496-1.588,0-2.852-.332-3.791-.996-.939-.663-1.49-1.568-1.651-2.714l3.271-.172c.1,.484,.339,.854,.719,1.105,.38,.253,.867,.379,1.46,.379,.583,0,1.054-.113,1.41-.34s.537-.52,.543-.879c-.006-.302-.133-.55-.383-.745s-.636-.345-1.156-.449l-2.077-.414c-1.171-.234-2.042-.641-2.612-1.218-.57-.578-.854-1.315-.854-2.211,0-.771,.209-1.434,.628-1.991,.419-.557,1.011-.986,1.773-1.288s1.656-.453,2.682-.453c1.516,0,2.709,.32,3.581,.961,.872,.64,1.381,1.512,1.526,2.615Z"/>
  </g>
  <rect class="cls-1" x="876.087" y="443.633" width="21.513" height="21.513" rx="2.099" ry="2.099" transform="translate(432.454 1341.233) rotate(-90)"/>
  <polyline class="cls-8" points="884.65 458.888 889.111 454.427 884.576 449.892"/>
  <g class="cls-10">
    <path d="M878.441,501.374h-1.844l5.334-14.525h1.815l5.333,14.525h-1.844l-4.341-12.228h-.113l-4.341,12.228Zm.681-5.674h7.434v1.561h-7.434v-1.561Z"/>
    <path d="M894.737,501.6c-.907,0-1.709-.23-2.404-.691s-1.239-1.113-1.631-1.957c-.393-.845-.589-1.843-.589-2.997,0-1.144,.196-2.137,.589-2.979,.392-.842,.938-1.492,1.638-1.95,.7-.459,1.509-.688,2.426-.688,.709,0,1.271,.117,1.685,.352,.414,.233,.73,.499,.95,.794,.22,.296,.392,.538,.515,.728h.142v-5.362h1.674v14.525h-1.617v-1.674h-.198c-.123,.198-.298,.448-.525,.748-.227,.301-.551,.567-.972,.802s-.98,.351-1.681,.351Zm.228-1.503c.671,0,1.238-.177,1.702-.528,.463-.353,.815-.842,1.057-1.469,.241-.626,.361-1.351,.361-2.174,0-.813-.118-1.525-.354-2.139-.236-.612-.586-1.089-1.05-1.433-.463-.343-1.035-.514-1.716-.514-.71,0-1.3,.181-1.77,.542-.471,.362-.823,.852-1.058,1.469-.233,.617-.351,1.309-.351,2.074,0,.775,.119,1.479,.358,2.11,.238,.631,.593,1.133,1.063,1.504s1.056,.557,1.756,.557Z"/>
    <path d="M906.636,501.6c-.907,0-1.709-.23-2.404-.691s-1.239-1.113-1.631-1.957c-.393-.845-.589-1.843-.589-2.997,0-1.144,.196-2.137,.589-2.979,.392-.842,.938-1.492,1.638-1.95,.7-.459,1.509-.688,2.426-.688,.709,0,1.271,.117,1.685,.352,.414,.233,.73,.499,.95,.794,.22,.296,.392,.538,.515,.728h.142v-5.362h1.674v14.525h-1.617v-1.674h-.198c-.123,.198-.298,.448-.525,.748-.227,.301-.551,.567-.972,.802s-.98,.351-1.681,.351Zm.228-1.503c.671,0,1.238-.177,1.702-.528,.463-.353,.815-.842,1.057-1.469,.241-.626,.361-1.351,.361-2.174,0-.813-.118-1.525-.354-2.139-.236-.612-.586-1.089-1.05-1.433-.463-.343-1.035-.514-1.716-.514-.71,0-1.3,.181-1.77,.542-.471,.362-.823,.852-1.058,1.469-.233,.617-.351,1.309-.351,2.074,0,.775,.119,1.479,.358,2.11,.238,.631,.593,1.133,1.063,1.504s1.056,.557,1.756,.557Z"/>
    <path d="M922.744,501.628c-.69,0-1.317-.131-1.88-.394-.562-.262-1.01-.643-1.341-1.142s-.496-1.103-.496-1.812c0-.624,.123-1.131,.369-1.521,.245-.391,.574-.696,.985-.919,.411-.222,.866-.389,1.365-.5s1.001-.199,1.507-.266c.662-.085,1.2-.15,1.614-.195,.413-.045,.716-.122,.907-.23s.287-.298,.287-.567v-.057c0-.7-.189-1.244-.57-1.632s-.956-.581-1.728-.581c-.799,0-1.425,.175-1.879,.524-.454,.351-.773,.724-.958,1.121l-1.589-.567c.284-.662,.663-1.179,1.139-1.55s.995-.632,1.561-.78c.564-.149,1.122-.224,1.67-.224,.351,0,.753,.042,1.21,.124,.456,.083,.897,.252,1.326,.508,.428,.255,.783,.641,1.067,1.155,.283,.516,.426,1.206,.426,2.071v7.178h-1.675v-1.476h-.085c-.113,.237-.303,.489-.567,.759s-.617,.499-1.057,.688-.977,.283-1.609,.283Zm.255-1.503c.662,0,1.221-.13,1.678-.391,.456-.26,.801-.596,1.035-1.007s.351-.844,.351-1.298v-1.532c-.07,.085-.226,.162-.464,.23-.239,.068-.514,.128-.823,.178s-.609,.092-.9,.127c-.291,.036-.526,.065-.706,.089-.435,.057-.84,.148-1.216,.273s-.679,.312-.908,.561c-.229,.248-.344,.585-.344,1.011,0,.581,.216,1.02,.648,1.315,.433,.295,.982,.443,1.649,.443Z"/>
    <path d="M931.976,494.82v6.554h-1.674v-10.895h1.617v1.702h.142c.255-.553,.643-.998,1.163-1.337,.521-.338,1.191-.507,2.015-.507,.737,0,1.383,.15,1.936,.45,.554,.301,.983,.755,1.291,1.362s.461,1.375,.461,2.302v6.922h-1.674v-6.809c0-.856-.222-1.523-.666-2.004-.445-.479-1.055-.72-1.83-.72-.534,0-1.011,.116-1.43,.348-.418,.231-.748,.569-.989,1.014s-.361,.983-.361,1.617Z"/>
    <path d="M942.172,505.458c-.284,0-.537-.022-.759-.067-.223-.045-.376-.088-.461-.131l.425-1.476c.407,.104,.767,.143,1.078,.114,.312-.029,.59-.167,.834-.415,.243-.249,.467-.649,.67-1.202l.312-.852-4.028-10.951h1.815l3.008,8.682h.113l3.008-8.682h1.815l-4.625,12.483c-.208,.562-.465,1.029-.772,1.4s-.663,.646-1.067,.826-.859,.27-1.365,.27Z"/>
    <path d="M957.06,501.374v-14.525h4.908c1.135,0,2.066,.192,2.795,.578,.728,.385,1.267,.914,1.616,1.585,.351,.672,.525,1.436,.525,2.291s-.175,1.614-.525,2.276c-.35,.662-.886,1.181-1.609,1.557s-1.648,.564-2.773,.564h-3.972v-1.589h3.915c.775,0,1.4-.113,1.876-.341,.476-.227,.82-.55,1.035-.968,.216-.419,.323-.919,.323-1.5s-.109-1.09-.326-1.525c-.218-.435-.565-.771-1.043-1.011-.478-.238-1.108-.357-1.894-.357h-3.093v12.965h-1.759Zm6.837-6.525l3.575,6.525h-2.043l-3.518-6.525h1.985Z"/>
    <path d="M973.555,501.6c-1.05,0-1.954-.232-2.713-.698s-1.343-1.118-1.752-1.957c-.409-.84-.613-1.817-.613-2.934s.204-2.101,.613-2.954,.981-1.52,1.717-2c.734-.479,1.595-.72,2.578-.72,.567,0,1.127,.095,1.681,.284,.553,.188,1.057,.495,1.511,.918,.454,.424,.815,.982,1.085,1.678s.404,1.551,.404,2.567v.709h-8.397v-1.446h6.695c0-.615-.122-1.163-.365-1.646s-.589-.863-1.035-1.143c-.447-.278-.974-.418-1.578-.418-.667,0-1.243,.164-1.728,.493-.484,.328-.856,.755-1.117,1.28-.26,.524-.39,1.087-.39,1.688v.965c0,.822,.143,1.519,.429,2.089,.286,.569,.685,1.002,1.195,1.298,.511,.295,1.104,.443,1.78,.443,.439,0,.838-.062,1.195-.188,.356-.125,.665-.314,.926-.567,.26-.253,.461-.568,.603-.946l1.617,.453c-.171,.549-.457,1.03-.858,1.443-.402,.414-.898,.735-1.489,.965s-1.256,.344-1.993,.344Z"/>
    <path d="M983.325,501.628c-.69,0-1.317-.131-1.88-.394-.562-.262-1.01-.643-1.341-1.142s-.496-1.103-.496-1.812c0-.624,.123-1.131,.369-1.521,.245-.391,.574-.696,.985-.919,.411-.222,.866-.389,1.365-.5s1.001-.199,1.507-.266c.662-.085,1.2-.15,1.614-.195,.413-.045,.716-.122,.907-.23s.287-.298,.287-.567v-.057c0-.7-.189-1.244-.57-1.632s-.956-.581-1.728-.581c-.799,0-1.425,.175-1.879,.524-.454,.351-.773,.724-.958,1.121l-1.589-.567c.284-.662,.663-1.179,1.139-1.55s.995-.632,1.561-.78c.564-.149,1.122-.224,1.67-.224,.351,0,.753,.042,1.21,.124,.456,.083,.897,.252,1.326,.508,.428,.255,.783,.641,1.067,1.155,.283,.516,.426,1.206,.426,2.071v7.178h-1.675v-1.476h-.085c-.113,.237-.303,.489-.567,.759s-.617,.499-1.057,.688-.977,.283-1.609,.283Zm.255-1.503c.662,0,1.221-.13,1.678-.391,.456-.26,.801-.596,1.035-1.007s.351-.844,.351-1.298v-1.532c-.07,.085-.226,.162-.464,.23-.239,.068-.514,.128-.823,.178s-.609,.092-.9,.127c-.291,.036-.526,.065-.706,.089-.435,.057-.84,.148-1.216,.273s-.679,.312-.908,.561c-.229,.248-.344,.585-.344,1.011,0,.581,.216,1.02,.648,1.315,.433,.295,.982,.443,1.649,.443Z"/>
    <path d="M995.309,501.6c-1.021,0-1.901-.241-2.639-.723-.737-.482-1.305-1.146-1.702-1.993s-.596-1.813-.596-2.901c0-1.106,.204-2.084,.613-2.933s.981-1.513,1.717-1.993c.734-.479,1.595-.72,2.578-.72,.766,0,1.456,.142,2.07,.426,.615,.283,1.118,.681,1.511,1.191s.637,1.106,.73,1.787h-1.674c-.127-.496-.41-.938-.847-1.322-.438-.386-1.025-.578-1.763-.578-.652,0-1.224,.169-1.713,.507s-.87,.813-1.143,1.426c-.271,.612-.407,1.33-.407,2.152,0,.842,.134,1.575,.4,2.199,.268,.624,.646,1.108,1.135,1.454,.489,.345,1.065,.518,1.728,.518,.435,0,.829-.076,1.185-.228,.354-.151,.654-.368,.9-.652,.246-.283,.421-.624,.524-1.021h1.674c-.094,.644-.327,1.222-.698,1.734s-.86,.92-1.468,1.22c-.608,.301-1.313,.45-2.117,.45Z"/>
    <path d="M1006.271,490.479v1.419h-5.646v-1.419h5.646Zm-4-2.609h1.674v10.383c0,.474,.069,.826,.209,1.061s.319,.391,.539,.469c.22,.077,.453,.116,.699,.116,.185,0,.335-.011,.454-.031,.117-.021,.212-.039,.283-.054l.341,1.504c-.114,.042-.272,.086-.476,.131s-.461,.067-.773,.067c-.473,0-.935-.102-1.386-.305-.452-.203-.825-.513-1.121-.929s-.443-.941-.443-1.575v-10.837Z"/>
    <path d="M1015.088,486.848v14.525h-1.674v-14.525h1.674Z"/>
    <path d="M1018.503,488.664c-.326,0-.606-.111-.84-.333-.234-.223-.352-.489-.352-.802s.117-.579,.352-.802c.233-.222,.514-.333,.84-.333s.606,.111,.841,.333c.234,.223,.351,.49,.351,.802s-.116,.579-.351,.802c-.234,.222-.515,.333-.841,.333Zm-.851,12.71v-10.895h1.674v10.895h-1.674Z"/>
    <path d="M1022.118,501.374v-14.525h1.674v5.362h.142c.123-.189,.295-.432,.515-.728,.22-.295,.536-.561,.95-.794,.414-.234,.976-.352,1.685-.352,.917,0,1.726,.229,2.426,.688,.699,.458,1.246,1.108,1.639,1.95,.392,.842,.588,1.835,.588,2.979,0,1.154-.196,2.152-.588,2.997-.393,.844-.937,1.496-1.632,1.957s-1.496,.691-2.404,.691c-.699,0-1.26-.116-1.681-.351s-.745-.501-.972-.802c-.228-.3-.402-.55-.525-.748h-.198v1.674h-1.617Zm1.646-5.447c0,.823,.121,1.548,.362,2.174,.24,.627,.593,1.116,1.057,1.469,.463,.352,1.03,.528,1.702,.528,.699,0,1.284-.186,1.755-.557s.825-.873,1.064-1.504c.238-.632,.357-1.335,.357-2.11,0-.766-.116-1.457-.351-2.074s-.586-1.106-1.057-1.469c-.471-.361-1.061-.542-1.77-.542-.681,0-1.253,.171-1.717,.514-.463,.344-.813,.82-1.05,1.433-.236,.613-.354,1.325-.354,2.139Z"/>
    <path d="M1033.789,501.374v-10.895h1.617v1.646h.113c.198-.539,.558-.976,1.078-1.312,.52-.336,1.106-.504,1.759-.504,.123,0,.276,.003,.461,.007,.185,.005,.324,.012,.419,.021v1.702c-.058-.014-.187-.036-.387-.067-.201-.03-.413-.046-.635-.046-.53,0-1.002,.11-1.415,.33-.414,.22-.74,.522-.979,.907-.239,.386-.358,.824-.358,1.316v6.894h-1.674Z"/>
    <path d="M1043.929,501.628c-.69,0-1.317-.131-1.88-.394-.562-.262-1.01-.643-1.341-1.142s-.496-1.103-.496-1.812c0-.624,.123-1.131,.369-1.521,.245-.391,.574-.696,.985-.919,.411-.222,.866-.389,1.365-.5s1.001-.199,1.507-.266c.662-.085,1.2-.15,1.614-.195,.413-.045,.716-.122,.907-.23s.287-.298,.287-.567v-.057c0-.7-.189-1.244-.57-1.632s-.956-.581-1.728-.581c-.799,0-1.425,.175-1.879,.524-.454,.351-.773,.724-.958,1.121l-1.589-.567c.284-.662,.663-1.179,1.139-1.55s.995-.632,1.561-.78c.564-.149,1.122-.224,1.67-.224,.351,0,.753,.042,1.21,.124,.456,.083,.897,.252,1.326,.508,.428,.255,.783,.641,1.067,1.155,.283,.516,.426,1.206,.426,2.071v7.178h-1.675v-1.476h-.085c-.113,.237-.303,.489-.567,.759s-.617,.499-1.057,.688-.977,.283-1.609,.283Zm.255-1.503c.662,0,1.221-.13,1.678-.391,.456-.26,.801-.596,1.035-1.007s.351-.844,.351-1.298v-1.532c-.07,.085-.226,.162-.464,.23-.239,.068-.514,.128-.823,.178s-.609,.092-.9,.127c-.291,.036-.526,.065-.706,.089-.435,.057-.84,.148-1.216,.273s-.679,.312-.908,.561c-.229,.248-.344,.585-.344,1.011,0,.581,.216,1.02,.648,1.315,.433,.295,.982,.443,1.649,.443Z"/>
    <path d="M1051.486,501.374v-10.895h1.617v1.646h.113c.198-.539,.558-.976,1.078-1.312,.52-.336,1.106-.504,1.759-.504,.123,0,.276,.003,.461,.007,.185,.005,.324,.012,.419,.021v1.702c-.058-.014-.187-.036-.387-.067-.201-.03-.413-.046-.635-.046-.53,0-1.002,.11-1.415,.33-.414,.22-.74,.522-.979,.907-.239,.386-.358,.824-.358,1.316v6.894h-1.674Z"/>
    <path d="M1059.271,488.664c-.326,0-.606-.111-.84-.333-.234-.223-.352-.489-.352-.802s.117-.579,.352-.802c.233-.222,.514-.333,.84-.333s.606,.111,.841,.333c.234,.223,.351,.49,.351,.802s-.116,.579-.351,.802c-.234,.222-.515,.333-.841,.333Zm-.851,12.71v-10.895h1.674v10.895h-1.674Z"/>
    <path d="M1067.226,501.6c-1.05,0-1.954-.232-2.713-.698s-1.343-1.118-1.752-1.957c-.409-.84-.613-1.817-.613-2.934s.204-2.101,.613-2.954,.981-1.52,1.717-2c.734-.479,1.595-.72,2.578-.72,.567,0,1.127,.095,1.681,.284,.553,.188,1.057,.495,1.511,.918,.454,.424,.815,.982,1.085,1.678s.404,1.551,.404,2.567v.709h-8.397v-1.446h6.695c0-.615-.122-1.163-.365-1.646s-.589-.863-1.035-1.143c-.447-.278-.974-.418-1.578-.418-.667,0-1.243,.164-1.728,.493-.484,.328-.856,.755-1.117,1.28-.26,.524-.39,1.087-.39,1.688v.965c0,.822,.143,1.519,.429,2.089,.286,.569,.685,1.002,1.195,1.298,.511,.295,1.104,.443,1.78,.443,.439,0,.838-.062,1.195-.188,.356-.125,.665-.314,.926-.567,.26-.253,.461-.568,.603-.946l1.617,.453c-.171,.549-.457,1.03-.858,1.443-.402,.414-.898,.735-1.489,.965s-1.256,.344-1.993,.344Z"/>
    <path d="M1081.508,492.919l-1.504,.426c-.095-.251-.233-.496-.415-.734-.182-.239-.429-.437-.741-.593-.312-.155-.712-.233-1.198-.233-.667,0-1.222,.152-1.663,.457-.442,.305-.663,.691-.663,1.16,0,.416,.15,.744,.453,.985s.775,.442,1.419,.604l1.617,.396c.974,.236,1.699,.598,2.177,1.082s.717,1.107,.717,1.869c0,.624-.179,1.182-.535,1.674-.357,.491-.855,.879-1.493,1.163-.639,.283-1.381,.425-2.228,.425-1.111,0-2.03-.241-2.759-.723-.729-.482-1.189-1.188-1.383-2.114l1.589-.396c.151,.586,.438,1.025,.861,1.318,.423,.294,.978,.44,1.663,.44,.78,0,1.401-.167,1.862-.5,.461-.334,.691-.734,.691-1.202,0-.379-.133-.696-.397-.954s-.671-.45-1.22-.578l-1.815-.426c-.998-.236-1.729-.604-2.195-1.103s-.698-1.124-.698-1.876c0-.615,.173-1.158,.521-1.632,.348-.473,.823-.844,1.426-1.113s1.287-.404,2.054-.404c1.078,0,1.926,.236,2.542,.709,.617,.474,1.056,1.098,1.316,1.873Z"/>
    <path d="M879.293,518.917v6.554h-1.674v-10.895h1.617v1.702h.142c.255-.553,.643-.998,1.163-1.337,.521-.338,1.191-.507,2.015-.507,.737,0,1.383,.15,1.936,.45,.554,.301,.983,.755,1.291,1.362s.461,1.375,.461,2.302v6.922h-1.674v-6.809c0-.856-.222-1.523-.666-2.004-.445-.479-1.055-.72-1.83-.72-.534,0-1.011,.116-1.43,.348-.418,.231-.748,.569-.989,1.014s-.361,.983-.361,1.617Z"/>
    <path d="M893.376,525.698c-1.05,0-1.954-.232-2.713-.698s-1.343-1.118-1.752-1.957c-.409-.84-.613-1.817-.613-2.934s.204-2.101,.613-2.954,.981-1.52,1.717-2c.734-.479,1.595-.72,2.578-.72,.567,0,1.127,.095,1.681,.284,.553,.188,1.057,.495,1.511,.918,.454,.424,.815,.982,1.085,1.678s.404,1.551,.404,2.567v.709h-8.397v-1.446h6.695c0-.615-.122-1.163-.365-1.646s-.589-.863-1.035-1.143c-.447-.278-.974-.418-1.578-.418-.667,0-1.243,.164-1.728,.493-.484,.328-.856,.755-1.117,1.28-.26,.524-.39,1.087-.39,1.688v.965c0,.822,.143,1.519,.429,2.089,.286,.569,.685,1.002,1.195,1.298,.511,.295,1.104,.443,1.78,.443,.439,0,.838-.062,1.195-.188,.356-.125,.665-.314,.926-.567,.26-.253,.461-.568,.603-.946l1.617,.453c-.171,.549-.457,1.03-.858,1.443-.402,.414-.898,.735-1.489,.965s-1.256,.344-1.993,.344Z"/>
    <path d="M904.508,525.698c-1.05,0-1.954-.232-2.713-.698s-1.343-1.118-1.752-1.957c-.409-.84-.613-1.817-.613-2.934s.204-2.101,.613-2.954,.981-1.52,1.717-2c.734-.479,1.595-.72,2.578-.72,.567,0,1.127,.095,1.681,.284,.553,.188,1.057,.495,1.511,.918,.454,.424,.815,.982,1.085,1.678s.404,1.551,.404,2.567v.709h-8.397v-1.446h6.695c0-.615-.122-1.163-.365-1.646s-.589-.863-1.035-1.143c-.447-.278-.974-.418-1.578-.418-.667,0-1.243,.164-1.728,.493-.484,.328-.856,.755-1.117,1.28-.26,.524-.39,1.087-.39,1.688v.965c0,.822,.143,1.519,.429,2.089,.286,.569,.685,1.002,1.195,1.298,.511,.295,1.104,.443,1.78,.443,.439,0,.838-.062,1.195-.188,.356-.125,.665-.314,.926-.567,.26-.253,.461-.568,.603-.946l1.617,.453c-.171,.549-.457,1.03-.858,1.443-.402,.414-.898,.735-1.489,.965s-1.256,.344-1.993,.344Z"/>
    <path d="M915.187,525.698c-.907,0-1.709-.23-2.404-.691s-1.239-1.113-1.631-1.957c-.393-.845-.589-1.843-.589-2.997,0-1.144,.196-2.137,.589-2.979,.392-.842,.938-1.492,1.638-1.95,.7-.459,1.509-.688,2.426-.688,.709,0,1.271,.117,1.685,.352,.414,.233,.73,.499,.95,.794,.22,.296,.392,.538,.515,.728h.142v-5.362h1.674v14.525h-1.617v-1.674h-.198c-.123,.198-.298,.448-.525,.748-.227,.301-.551,.567-.972,.802s-.98,.351-1.681,.351Zm.228-1.503c.671,0,1.238-.177,1.702-.528,.463-.353,.815-.842,1.057-1.469,.241-.626,.361-1.351,.361-2.174,0-.813-.118-1.525-.354-2.139-.236-.612-.586-1.089-1.05-1.433-.463-.343-1.035-.514-1.716-.514-.71,0-1.3,.181-1.77,.542-.471,.362-.823,.852-1.058,1.469-.233,.617-.351,1.309-.351,2.074,0,.775,.119,1.479,.358,2.11,.238,.631,.593,1.133,1.063,1.504s1.056,.557,1.756,.557Z"/>
    <path d="M927.538,525.698c-1.05,0-1.954-.232-2.713-.698s-1.343-1.118-1.752-1.957c-.409-.84-.613-1.817-.613-2.934s.204-2.101,.613-2.954,.981-1.52,1.717-2c.734-.479,1.595-.72,2.578-.72,.567,0,1.127,.095,1.681,.284,.553,.188,1.057,.495,1.511,.918,.454,.424,.815,.982,1.085,1.678s.404,1.551,.404,2.567v.709h-8.397v-1.446h6.695c0-.615-.122-1.163-.365-1.646s-.589-.863-1.035-1.143c-.447-.278-.974-.418-1.578-.418-.667,0-1.243,.164-1.728,.493-.484,.328-.856,.755-1.117,1.28-.26,.524-.39,1.087-.39,1.688v.965c0,.822,.143,1.519,.429,2.089,.286,.569,.685,1.002,1.195,1.298,.511,.295,1.104,.443,1.78,.443,.439,0,.838-.062,1.195-.188,.356-.125,.665-.314,.926-.567,.26-.253,.461-.568,.603-.946l1.617,.453c-.171,.549-.457,1.03-.858,1.443-.402,.414-.898,.735-1.489,.965s-1.256,.344-1.993,.344Z"/>
    <path d="M938.217,525.698c-.907,0-1.709-.23-2.404-.691s-1.239-1.113-1.631-1.957c-.393-.845-.589-1.843-.589-2.997,0-1.144,.196-2.137,.589-2.979,.392-.842,.938-1.492,1.638-1.95,.7-.459,1.509-.688,2.426-.688,.709,0,1.271,.117,1.685,.352,.414,.233,.73,.499,.95,.794,.22,.296,.392,.538,.515,.728h.142v-5.362h1.674v14.525h-1.617v-1.674h-.198c-.123,.198-.298,.448-.525,.748-.227,.301-.551,.567-.972,.802s-.98,.351-1.681,.351Zm.228-1.503c.671,0,1.238-.177,1.702-.528,.463-.353,.815-.842,1.057-1.469,.241-.626,.361-1.351,.361-2.174,0-.813-.118-1.525-.354-2.139-.236-.612-.586-1.089-1.05-1.433-.463-.343-1.035-.514-1.716-.514-.71,0-1.3,.181-1.77,.542-.471,.362-.823,.852-1.058,1.469-.233,.617-.351,1.309-.351,2.074,0,.775,.119,1.479,.358,2.11,.238,.631,.593,1.133,1.063,1.504s1.056,.557,1.756,.557Z"/>
    <path d="M955.857,514.577v1.419h-5.646v-1.419h5.646Zm-4-2.609h1.674v10.383c0,.474,.069,.826,.209,1.061s.319,.391,.539,.469c.22,.077,.453,.116,.699,.116,.185,0,.335-.011,.454-.031,.117-.021,.212-.039,.283-.054l.341,1.504c-.114,.042-.272,.086-.476,.131s-.461,.067-.773,.067c-.473,0-.935-.102-1.386-.305-.452-.203-.825-.513-1.121-.929s-.443-.941-.443-1.575v-10.837Z"/>
    <path d="M962.195,525.698c-.983,0-1.846-.233-2.586-.702-.739-.468-1.316-1.123-1.73-1.964-.413-.842-.62-1.825-.62-2.951,0-1.135,.207-2.125,.62-2.972,.414-.846,.991-1.504,1.73-1.972,.74-.468,1.603-.702,2.586-.702s1.845,.234,2.585,.702,1.316,1.126,1.73,1.972c.414,.847,.621,1.837,.621,2.972,0,1.126-.207,2.109-.621,2.951-.414,.841-.99,1.496-1.73,1.964-.74,.469-1.602,.702-2.585,.702Zm0-1.503c.747,0,1.361-.191,1.844-.575,.482-.383,.839-.886,1.071-1.511,.231-.624,.348-1.3,.348-2.028s-.116-1.406-.348-2.035c-.232-.629-.589-1.138-1.071-1.525s-1.097-.581-1.844-.581-1.362,.193-1.845,.581c-.481,.388-.839,.896-1.07,1.525-.232,.629-.348,1.308-.348,2.035s.115,1.404,.348,2.028c.231,.625,.589,1.128,1.07,1.511,.482,.384,1.098,.575,1.845,.575Z"/>
    <path d="M979.041,514.577v1.419h-5.646v-1.419h5.646Zm-4-2.609h1.674v10.383c0,.474,.069,.826,.209,1.061s.319,.391,.539,.469c.22,.077,.453,.116,.699,.116,.185,0,.335-.011,.454-.031,.117-.021,.212-.039,.283-.054l.341,1.504c-.114,.042-.272,.086-.476,.131s-.461,.067-.773,.067c-.473,0-.935-.102-1.386-.305-.452-.203-.825-.513-1.121-.929s-.443-.941-.443-1.575v-10.837Z"/>
    <path d="M982.968,518.917v6.554h-1.674v-14.525h1.674v5.333h.142c.255-.562,.64-1.01,1.152-1.344,.514-.333,1.197-.5,2.054-.5,.742,0,1.393,.148,1.95,.443,.558,.296,.992,.747,1.302,1.354s.464,1.38,.464,2.316v6.922h-1.674v-6.809c0-.865-.223-1.536-.67-2.011-.446-.476-1.065-.713-1.854-.713-.549,0-1.039,.116-1.472,.348s-.773,.569-1.021,1.014-.372,.983-.372,1.617Z"/>
    <path d="M993.447,512.761c-.326,0-.606-.111-.84-.333-.234-.223-.352-.489-.352-.802s.117-.579,.352-.802c.233-.222,.514-.333,.84-.333s.606,.111,.841,.333c.234,.223,.351,.49,.351,.802s-.116,.579-.351,.802c-.234,.222-.515,.333-.841,.333Zm-.851,12.71v-10.895h1.674v10.895h-1.674Z"/>
    <path d="M1004.552,517.017l-1.504,.426c-.095-.251-.233-.496-.415-.734-.182-.239-.429-.437-.741-.593-.312-.155-.712-.233-1.198-.233-.667,0-1.222,.152-1.663,.457-.442,.305-.663,.691-.663,1.16,0,.416,.15,.744,.453,.985s.775,.442,1.419,.604l1.617,.396c.974,.236,1.699,.598,2.177,1.082s.717,1.107,.717,1.869c0,.624-.179,1.182-.535,1.674-.357,.491-.855,.879-1.493,1.163-.639,.283-1.381,.425-2.228,.425-1.111,0-2.03-.241-2.759-.723-.729-.482-1.189-1.188-1.383-2.114l1.589-.396c.151,.586,.438,1.025,.861,1.318,.423,.294,.978,.44,1.663,.44,.78,0,1.401-.167,1.862-.5,.461-.334,.691-.734,.691-1.202,0-.379-.133-.696-.397-.954s-.671-.45-1.22-.578l-1.815-.426c-.998-.236-1.729-.604-2.195-1.103s-.698-1.124-.698-1.876c0-.615,.173-1.158,.521-1.632,.348-.473,.823-.844,1.426-1.113s1.287-.404,2.054-.404c1.078,0,1.926,.236,2.542,.709,.617,.474,1.056,1.098,1.316,1.873Z"/>
    <path d="M1016.744,514.577v1.419h-5.872v-1.419h5.872Zm-4.113,10.895v-12.397c0-.624,.146-1.145,.439-1.561,.294-.416,.674-.729,1.143-.937,.468-.208,.962-.312,1.482-.312,.411,0,.747,.033,1.007,.099,.26,.066,.454,.128,.581,.185l-.481,1.447c-.086-.028-.202-.064-.352-.106-.148-.043-.344-.064-.585-.064-.554,0-.952,.14-1.195,.419s-.365,.688-.365,1.227v12.001h-1.674Z"/>
    <path d="M1022.572,525.698c-.983,0-1.846-.233-2.586-.702-.739-.468-1.316-1.123-1.73-1.964-.413-.842-.62-1.825-.62-2.951,0-1.135,.207-2.125,.62-2.972,.414-.846,.991-1.504,1.73-1.972,.74-.468,1.603-.702,2.586-.702s1.845,.234,2.585,.702,1.316,1.126,1.73,1.972c.414,.847,.621,1.837,.621,2.972,0,1.126-.207,2.109-.621,2.951-.414,.841-.99,1.496-1.73,1.964-.74,.469-1.602,.702-2.585,.702Zm0-1.503c.747,0,1.361-.191,1.844-.575,.482-.383,.839-.886,1.071-1.511,.231-.624,.348-1.3,.348-2.028s-.116-1.406-.348-2.035c-.232-.629-.589-1.138-1.071-1.525s-1.097-.581-1.844-.581-1.362,.193-1.845,.581c-.481,.388-.839,.896-1.07,1.525-.232,.629-.348,1.308-.348,2.035s.115,1.404,.348,2.028c.231,.625,.589,1.128,1.07,1.511,.482,.384,1.098,.575,1.845,.575Z"/>
    <path d="M1031.236,510.946v14.525h-1.674v-14.525h1.674Z"/>
    <path d="M1037.914,525.698c-.907,0-1.709-.23-2.404-.691s-1.239-1.113-1.631-1.957c-.393-.845-.589-1.843-.589-2.997,0-1.144,.196-2.137,.589-2.979,.392-.842,.938-1.492,1.638-1.95,.7-.459,1.509-.688,2.426-.688,.709,0,1.271,.117,1.685,.352,.414,.233,.73,.499,.95,.794,.22,.296,.392,.538,.515,.728h.142v-5.362h1.674v14.525h-1.617v-1.674h-.198c-.123,.198-.298,.448-.525,.748-.227,.301-.551,.567-.972,.802s-.98,.351-1.681,.351Zm.228-1.503c.671,0,1.238-.177,1.702-.528,.463-.353,.815-.842,1.057-1.469,.241-.626,.361-1.351,.361-2.174,0-.813-.118-1.525-.354-2.139-.236-.612-.586-1.089-1.05-1.433-.463-.343-1.035-.514-1.716-.514-.71,0-1.3,.181-1.77,.542-.471,.362-.823,.852-1.058,1.469-.233,.617-.351,1.309-.351,2.074,0,.775,.119,1.479,.358,2.11,.238,.631,.593,1.133,1.063,1.504s1.056,.557,1.756,.557Z"/>
    <path d="M1050.267,525.698c-1.05,0-1.954-.232-2.713-.698s-1.343-1.118-1.752-1.957c-.409-.84-.613-1.817-.613-2.934s.204-2.101,.613-2.954,.981-1.52,1.717-2c.734-.479,1.595-.72,2.578-.72,.567,0,1.127,.095,1.681,.284,.553,.188,1.057,.495,1.511,.918,.454,.424,.815,.982,1.085,1.678s.404,1.551,.404,2.567v.709h-8.397v-1.446h6.695c0-.615-.122-1.163-.365-1.646s-.589-.863-1.035-1.143c-.447-.278-.974-.418-1.578-.418-.667,0-1.243,.164-1.728,.493-.484,.328-.856,.755-1.117,1.28-.26,.524-.39,1.087-.39,1.688v.965c0,.822,.143,1.519,.429,2.089,.286,.569,.685,1.002,1.195,1.298,.511,.295,1.104,.443,1.78,.443,.439,0,.838-.062,1.195-.188,.356-.125,.665-.314,.926-.567,.26-.253,.461-.568,.603-.946l1.617,.453c-.171,.549-.457,1.03-.858,1.443-.402,.414-.898,.735-1.489,.965s-1.256,.344-1.993,.344Z"/>
    <path d="M1056.831,525.471v-10.895h1.617v1.646h.113c.198-.539,.558-.976,1.078-1.312,.52-.336,1.106-.504,1.759-.504,.123,0,.276,.003,.461,.007,.185,.005,.324,.012,.419,.021v1.702c-.058-.014-.187-.036-.387-.067-.201-.03-.413-.046-.635-.046-.53,0-1.002,.11-1.415,.33-.414,.22-.74,.522-.979,.907-.239,.386-.358,.824-.358,1.316v6.894h-1.674Z"/>
  </g>
  <rect class="cls-5" x="656.628" y="161.566" width="251.055" height="225.162" rx="9.428" ry="9.428"/>
  <g class="cls-10">
    <path d="M747.896,192.551l-3.046,.188c-.052-.26-.164-.495-.335-.706-.172-.211-.397-.38-.676-.508s-.61-.191-.996-.191c-.516,0-.95,.108-1.304,.324s-.531,.504-.531,.863c0,.286,.115,.528,.344,.726,.229,.198,.622,.356,1.179,.477l2.171,.438c1.167,.239,2.036,.625,2.608,1.155,.573,.531,.859,1.229,.859,2.094,0,.786-.23,1.476-.691,2.069-.46,.593-1.091,1.056-1.89,1.386-.799,.331-1.72,.496-2.761,.496-1.588,0-2.852-.332-3.792-.996-.94-.663-1.49-1.568-1.652-2.714l3.272-.172c.099,.484,.338,.854,.718,1.105,.38,.253,.867,.379,1.46,.379,.583,0,1.053-.113,1.41-.34,.356-.227,.538-.52,.542-.879-.005-.302-.133-.55-.382-.745-.25-.195-.635-.345-1.156-.449l-2.078-.414c-1.171-.234-2.042-.641-2.612-1.218-.57-.578-.855-1.315-.855-2.211,0-.771,.209-1.434,.629-1.991,.419-.557,1.01-.986,1.772-1.288s1.657-.453,2.683-.453c1.515,0,2.708,.32,3.581,.961,.872,.64,1.381,1.512,1.527,2.615Z"/>
    <path d="M755.736,201.361c-1.234,0-2.294-.251-3.182-.754-.888-.502-1.571-1.216-2.05-2.14s-.719-2.019-.719-3.284c0-1.233,.24-2.316,.719-3.248s1.154-1.658,2.026-2.179,1.896-.781,3.073-.781c.791,0,1.529,.126,2.214,.379,.685,.252,1.283,.631,1.796,1.136,.513,.506,.913,1.14,1.199,1.902,.287,.763,.43,1.654,.43,2.674v.914h-10.129v-2.062h6.998c0-.479-.104-.903-.312-1.273-.208-.369-.496-.659-.863-.87-.367-.211-.792-.316-1.276-.316-.505,0-.952,.116-1.339,.348-.388,.231-.691,.541-.91,.929-.218,.389-.331,.819-.335,1.293v1.96c0,.594,.11,1.106,.332,1.538,.221,.433,.535,.766,.941,1,.406,.234,.887,.352,1.444,.352,.37,0,.708-.052,1.016-.156,.307-.104,.57-.261,.789-.469s.385-.463,.5-.766l3.077,.203c-.156,.739-.475,1.384-.957,1.934-.482,.549-1.101,.976-1.859,1.28-.757,.305-1.631,.457-2.62,.457Z"/>
    <path d="M763.413,201.126v-11.995h3.225v2.093h.125c.219-.744,.586-1.308,1.101-1.69,.516-.383,1.109-.574,1.781-.574,.167,0,.346,.011,.539,.031,.193,.021,.362,.05,.508,.086v2.952c-.156-.047-.372-.089-.648-.125-.276-.036-.529-.055-.758-.055-.489,0-.925,.105-1.308,.316-.382,.211-.685,.503-.906,.878s-.332,.808-.332,1.297v6.786h-3.327Z"/>
    <path d="M774.073,187.585c-.495,0-.918-.164-1.269-.492-.352-.328-.527-.724-.527-1.188s.177-.86,.531-1.19c.354-.331,.775-.496,1.265-.496,.494,0,.917,.164,1.269,.492,.351,.328,.527,.724,.527,1.187s-.176,.86-.527,1.191c-.352,.33-.775,.496-1.269,.496Zm-1.671,13.541v-11.995h3.327v11.995h-3.327Z"/>
    <path d="M781.803,201.353c-.765,0-1.447-.134-2.046-.402-.599-.268-1.071-.666-1.417-1.194s-.52-1.188-.52-1.98c0-.666,.123-1.226,.367-1.679s.578-.817,1-1.094c.422-.275,.902-.483,1.441-.624,.539-.141,1.105-.239,1.699-.297,.697-.073,1.26-.142,1.687-.207s.737-.163,.93-.293c.192-.13,.289-.322,.289-.578v-.047c0-.494-.155-.877-.464-1.147-.31-.271-.749-.406-1.316-.406-.599,0-1.075,.132-1.429,.395s-.588,.592-.703,.987l-3.077-.249c.156-.729,.463-1.36,.921-1.895,.458-.533,1.05-.944,1.777-1.233,.726-.289,1.568-.434,2.526-.434,.666,0,1.305,.078,1.917,.234s1.156,.398,1.632,.727c.476,.327,.853,.748,1.128,1.261s.414,1.126,.414,1.839v8.091h-3.155v-1.663h-.094c-.192,.375-.45,.704-.773,.987-.323,.284-.711,.505-1.164,.664-.453,.159-.976,.238-1.57,.238Zm.953-2.296c.489,0,.922-.098,1.296-.293,.375-.195,.669-.459,.883-.793,.213-.333,.32-.71,.32-1.132v-1.273c-.104,.068-.246,.129-.425,.184s-.382,.104-.605,.148-.448,.083-.671,.117c-.224,.034-.427,.063-.609,.09-.39,.058-.731,.148-1.023,.273s-.518,.293-.679,.504c-.162,.211-.242,.473-.242,.784,0,.453,.165,.798,.496,1.035s.751,.355,1.261,.355Z"/>
    <path d="M794.47,185.133v15.993h-3.327v-15.993h3.327Z"/>
    <path d="M798.796,187.585c-.495,0-.918-.164-1.269-.492-.352-.328-.527-.724-.527-1.188s.177-.86,.531-1.19c.354-.331,.775-.496,1.265-.496,.494,0,.917,.164,1.269,.492,.351,.328,.527,.724,.527,1.187s-.176,.86-.527,1.191c-.352,.33-.775,.496-1.269,.496Zm-1.671,13.541v-11.995h3.327v11.995h-3.327Z"/>
    <path d="M803.044,201.126v-1.983l5.873-7.271v-.086h-5.669v-2.655h9.676v2.163l-5.514,7.091v.086h5.717v2.655h-10.082Z"/>
    <path d="M820.803,201.361c-1.233,0-2.294-.251-3.182-.754-.888-.502-1.571-1.216-2.05-2.14s-.719-2.019-.719-3.284c0-1.233,.24-2.316,.719-3.248s1.154-1.658,2.026-2.179,1.897-.781,3.074-.781c.791,0,1.529,.126,2.214,.379,.685,.252,1.283,.631,1.797,1.136,.512,.506,.912,1.14,1.197,1.902,.287,.763,.43,1.654,.43,2.674v.914h-10.129v-2.062h6.998c0-.479-.104-.903-.312-1.273-.209-.369-.496-.659-.863-.87s-.793-.316-1.276-.316c-.506,0-.952,.116-1.34,.348-.388,.231-.691,.541-.91,.929-.218,.389-.331,.819-.335,1.293v1.96c0,.594,.11,1.106,.332,1.538,.221,.433,.535,.766,.941,1s.888,.352,1.444,.352c.37,0,.708-.052,1.016-.156s.57-.261,.789-.469,.385-.463,.5-.766l3.076,.203c-.156,.739-.475,1.384-.957,1.934-.48,.549-1.1,.976-1.857,1.28s-1.632,.457-2.621,.457Z"/>
  </g>
  <rect class="cls-2" x="677.901" y="183.944" width="21.513" height="21.513" rx="2.099" ry="2.099"/>
  <polyline class="cls-8" points="684.16 192.507 688.621 196.968 693.156 192.434"/>
  <rect class="cls-7" x="708.58" y="221.553" width="131.316" height="58.612" rx="7.751" ry="7.751"/>
  <g class="cls-10">
    <path d="M735.203,245.785c-.495,0-.918-.164-1.269-.492-.352-.328-.527-.724-.527-1.188s.177-.86,.531-1.19c.354-.331,.775-.496,1.265-.496,.494,0,.917,.164,1.269,.492,.351,.328,.527,.724,.527,1.187s-.176,.86-.527,1.191c-.352,.33-.775,.496-1.269,.496Zm-1.671,13.541v-11.995h3.327v11.995h-3.327Z"/>
    <path d="M742.84,252.391v6.935h-3.327v-11.995h3.17v2.116h.141c.266-.697,.711-1.251,1.335-1.659,.625-.409,1.382-.613,2.272-.613,.833,0,1.56,.183,2.179,.547,.619,.364,1.101,.884,1.444,1.558,.344,.675,.516,1.478,.516,2.409v7.638h-3.327v-7.044c.005-.734-.183-1.309-.562-1.722-.38-.414-.903-.621-1.57-.621-.448,0-.842,.097-1.183,.289-.341,.192-.606,.473-.796,.839-.19,.367-.288,.809-.293,1.324Z"/>
    <path d="M757.607,259.521c-.911,0-1.735-.235-2.472-.707-.737-.471-1.32-1.166-1.749-2.085-.43-.919-.645-2.047-.645-3.386,0-1.374,.221-2.519,.664-3.432,.442-.914,1.032-1.599,1.769-2.054,.737-.456,1.545-.684,2.425-.684,.672,0,1.233,.113,1.683,.34s.815,.508,1.093,.843c.278,.336,.491,.666,.637,.988h.101v-6.013h3.319v15.993h-3.28v-1.921h-.14c-.156,.333-.376,.662-.66,.987-.284,.326-.651,.596-1.101,.809-.45,.214-.999,.32-1.644,.32Zm1.054-2.647c.537,0,.991-.147,1.363-.441,.373-.294,.659-.707,.859-1.237,.2-.531,.3-1.153,.3-1.867s-.099-1.332-.296-1.858c-.198-.525-.484-.932-.859-1.218-.375-.286-.83-.43-1.367-.43-.546,0-1.007,.148-1.382,.445-.375,.297-.659,.708-.852,1.233-.192,.526-.289,1.135-.289,1.827,0,.698,.097,1.313,.292,1.848,.195,.533,.479,.95,.852,1.249,.372,.3,.832,.449,1.378,.449Z"/>
    <path d="M772.625,259.56c-1.234,0-2.294-.251-3.182-.754-.888-.502-1.571-1.216-2.05-2.14s-.719-2.019-.719-3.284c0-1.233,.24-2.316,.719-3.248s1.154-1.658,2.026-2.179,1.896-.781,3.073-.781c.791,0,1.529,.126,2.214,.379,.685,.252,1.283,.631,1.796,1.136,.513,.506,.913,1.14,1.199,1.902,.287,.763,.43,1.654,.43,2.674v.914h-10.129v-2.062h6.998c0-.479-.104-.903-.312-1.273-.208-.369-.496-.659-.863-.87-.367-.211-.792-.316-1.276-.316-.505,0-.952,.116-1.339,.348-.388,.231-.691,.541-.91,.929-.218,.389-.331,.819-.335,1.293v1.96c0,.594,.11,1.106,.332,1.538,.221,.433,.535,.766,.941,1,.406,.234,.887,.352,1.444,.352,.37,0,.708-.052,1.016-.156,.307-.104,.57-.261,.789-.469s.385-.463,.5-.766l3.077,.203c-.156,.739-.475,1.384-.957,1.934-.482,.549-1.101,.976-1.859,1.28-.757,.305-1.631,.457-2.62,.457Z"/>
    <path d="M782.879,247.331l2.202,4.193,2.257-4.193h3.413l-3.475,5.997,3.569,5.998h-3.397l-2.366-4.146-2.327,4.146h-3.436l3.561-5.998-3.437-5.997h3.437Z"/>
    <path d="M794.663,259.529c-.515,0-.957-.184-1.324-.551-.367-.367-.55-.809-.55-1.323,0-.511,.184-.948,.55-1.312,.367-.364,.809-.547,1.324-.547,.5,0,.938,.183,1.312,.547,.375,.364,.562,.802,.562,1.312,0,.344-.087,.657-.262,.94-.174,.284-.402,.511-.683,.68-.281,.169-.591,.254-.93,.254Z"/>
    <path d="M799.262,247.331h3.327v12.589c0,.927-.182,1.676-.546,2.249-.365,.572-.887,.991-1.566,1.257-.68,.266-1.49,.398-2.433,.398-.114,0-.225,0-.332-.004-.106-.003-.22-.007-.34-.012v-2.601c.089,.005,.166,.009,.23,.012,.065,.003,.134,.004,.207,.004,.536,0,.913-.113,1.128-.34,.216-.227,.324-.565,.324-1.019v-12.534Zm1.656-1.546c-.49,0-.911-.166-1.265-.496-.354-.331-.531-.728-.531-1.191,0-.458,.177-.853,.531-1.183,.354-.331,.775-.496,1.265-.496,.5,0,.925,.165,1.277,.496,.351,.33,.527,.725,.527,1.183,0,.464-.176,.86-.527,1.191-.352,.33-.777,.496-1.277,.496Z"/>
    <path d="M815.225,250.75l-3.046,.188c-.052-.26-.164-.495-.335-.706-.172-.211-.397-.38-.676-.508s-.61-.191-.996-.191c-.516,0-.95,.108-1.304,.324s-.531,.504-.531,.863c0,.286,.115,.528,.344,.726,.229,.198,.622,.356,1.179,.477l2.171,.438c1.167,.239,2.036,.625,2.608,1.155,.573,.531,.859,1.229,.859,2.094,0,.786-.23,1.476-.691,2.069-.46,.593-1.091,1.056-1.89,1.386-.799,.331-1.72,.496-2.761,.496-1.588,0-2.852-.332-3.792-.996-.94-.663-1.49-1.568-1.652-2.714l3.272-.172c.099,.484,.338,.854,.718,1.105,.38,.253,.867,.379,1.46,.379,.583,0,1.053-.113,1.41-.34,.356-.227,.538-.52,.542-.879-.005-.302-.133-.55-.382-.745-.25-.195-.635-.345-1.156-.449l-2.078-.414c-1.171-.234-2.042-.641-2.612-1.218-.57-.578-.855-1.315-.855-2.211,0-.771,.209-1.434,.629-1.991,.419-.557,1.01-.986,1.772-1.288s1.657-.453,2.683-.453c1.515,0,2.708,.32,3.581,.961,.872,.64,1.381,1.512,1.527,2.615Z"/>
  </g>
  <rect class="cls-7" x="716.513" y="300.9" width="115.45" height="58.612" rx="7.268" ry="7.268"/>
  <g class="cls-10">
    <path d="M749.947,330.096l-3.046,.188c-.052-.26-.164-.495-.335-.706-.172-.211-.397-.38-.676-.508s-.61-.191-.996-.191c-.516,0-.95,.108-1.304,.324s-.531,.504-.531,.863c0,.286,.115,.528,.344,.726,.229,.198,.622,.356,1.179,.477l2.171,.438c1.167,.239,2.036,.625,2.608,1.155,.573,.531,.859,1.229,.859,2.094,0,.786-.23,1.476-.691,2.069-.46,.593-1.091,1.056-1.89,1.386-.799,.331-1.72,.496-2.761,.496-1.588,0-2.852-.332-3.792-.996-.94-.663-1.49-1.568-1.652-2.714l3.272-.172c.099,.484,.338,.854,.718,1.105,.38,.253,.867,.379,1.46,.379,.583,0,1.053-.113,1.41-.34,.356-.227,.538-.52,.542-.879-.005-.302-.133-.55-.382-.745-.25-.195-.635-.345-1.156-.449l-2.078-.414c-1.171-.234-2.042-.641-2.612-1.218-.57-.578-.855-1.315-.855-2.211,0-.771,.209-1.434,.629-1.991,.419-.557,1.01-.986,1.772-1.288s1.657-.453,2.683-.453c1.515,0,2.708,.32,3.581,.961,.872,.64,1.381,1.512,1.527,2.615Z"/>
    <path d="M755.741,338.898c-.765,0-1.447-.134-2.046-.402-.599-.268-1.071-.666-1.417-1.194s-.52-1.188-.52-1.98c0-.666,.123-1.226,.367-1.679s.578-.817,1-1.094c.422-.275,.902-.483,1.441-.624,.539-.141,1.105-.239,1.699-.297,.697-.073,1.26-.142,1.687-.207s.737-.163,.93-.293c.192-.13,.289-.322,.289-.578v-.047c0-.494-.155-.877-.464-1.147-.31-.271-.749-.406-1.316-.406-.599,0-1.075,.132-1.429,.395s-.588,.592-.703,.987l-3.077-.249c.156-.729,.463-1.36,.921-1.895,.458-.533,1.05-.944,1.777-1.233,.726-.289,1.568-.434,2.526-.434,.666,0,1.305,.078,1.917,.234s1.156,.398,1.632,.727c.476,.327,.853,.748,1.128,1.261s.414,1.126,.414,1.839v8.091h-3.155v-1.663h-.094c-.192,.375-.45,.704-.773,.987-.323,.284-.711,.505-1.164,.664-.453,.159-.976,.238-1.57,.238Zm.953-2.296c.489,0,.922-.098,1.296-.293,.375-.195,.669-.459,.883-.793,.213-.333,.32-.71,.32-1.132v-1.273c-.104,.068-.246,.129-.425,.184s-.382,.104-.605,.148-.448,.083-.671,.117c-.224,.034-.427,.063-.609,.09-.39,.058-.731,.148-1.023,.273s-.518,.293-.679,.504c-.162,.211-.242,.473-.242,.784,0,.453,.165,.798,.496,1.035s.751,.355,1.261,.355Z"/>
    <path d="M771.532,326.676v2.499h-7.403v-2.499h7.403Zm-5.709,11.995v-12.862c0-.869,.17-1.59,.512-2.163,.341-.572,.808-1.002,1.402-1.288,.593-.286,1.268-.43,2.022-.43,.51,0,.978,.039,1.402,.117s.741,.148,.949,.211l-.593,2.499c-.13-.042-.291-.081-.48-.117-.19-.037-.384-.055-.582-.055-.49,0-.831,.113-1.023,.34-.192,.227-.289,.542-.289,.948v12.8h-3.319Z"/>
    <path d="M778.607,338.906c-1.234,0-2.294-.251-3.182-.754-.888-.502-1.571-1.216-2.05-2.14s-.719-2.019-.719-3.284c0-1.233,.24-2.316,.719-3.248s1.154-1.658,2.026-2.179,1.896-.781,3.073-.781c.791,0,1.529,.126,2.214,.379,.685,.252,1.283,.631,1.796,1.136,.513,.506,.913,1.14,1.199,1.902,.287,.763,.43,1.654,.43,2.674v.914h-10.129v-2.062h6.998c0-.479-.104-.903-.312-1.273-.208-.369-.496-.659-.863-.87-.367-.211-.792-.316-1.276-.316-.505,0-.952,.116-1.339,.348-.388,.231-.691,.541-.91,.929-.218,.389-.331,.819-.335,1.293v1.96c0,.594,.11,1.106,.332,1.538,.221,.433,.535,.766,.941,1,.406,.234,.887,.352,1.444,.352,.37,0,.708-.052,1.016-.156,.307-.104,.57-.261,.789-.469s.385-.463,.5-.766l3.077,.203c-.156,.739-.475,1.384-.957,1.934-.482,.549-1.101,.976-1.859,1.28-.757,.305-1.631,.457-2.62,.457Z"/>
    <path d="M788.228,338.875c-.515,0-.957-.184-1.324-.551-.367-.367-.55-.809-.55-1.323,0-.511,.184-.948,.55-1.312,.367-.364,.809-.547,1.324-.547,.5,0,.938,.183,1.312,.547,.375,.364,.562,.802,.562,1.312,0,.344-.087,.657-.262,.94-.174,.284-.402,.511-.683,.68-.281,.169-.591,.254-.93,.254Z"/>
    <path d="M792.828,326.676h3.327v12.589c0,.927-.182,1.676-.546,2.249-.365,.572-.887,.991-1.566,1.257-.68,.266-1.49,.398-2.433,.398-.114,0-.225,0-.332-.004-.106-.003-.22-.007-.34-.012v-2.601c.089,.005,.166,.009,.23,.012,.065,.003,.134,.004,.207,.004,.536,0,.913-.113,1.128-.34,.216-.227,.324-.565,.324-1.019v-12.534Zm1.656-1.546c-.49,0-.911-.166-1.265-.496-.354-.331-.531-.728-.531-1.191,0-.458,.177-.853,.531-1.183,.354-.331,.775-.496,1.265-.496,.5,0,.925,.165,1.277,.496,.351,.33,.527,.725,.527,1.183,0,.464-.176,.86-.527,1.191-.352,.33-.777,.496-1.277,.496Z"/>
    <path d="M808.79,330.096l-3.046,.188c-.052-.26-.164-.495-.335-.706-.172-.211-.397-.38-.676-.508s-.61-.191-.996-.191c-.516,0-.95,.108-1.304,.324s-.531,.504-.531,.863c0,.286,.115,.528,.344,.726,.229,.198,.622,.356,1.179,.477l2.171,.438c1.167,.239,2.036,.625,2.608,1.155,.573,.531,.859,1.229,.859,2.094,0,.786-.23,1.476-.691,2.069-.46,.593-1.091,1.056-1.89,1.386-.799,.331-1.72,.496-2.761,.496-1.588,0-2.852-.332-3.792-.996-.94-.663-1.49-1.568-1.652-2.714l3.272-.172c.099,.484,.338,.854,.718,1.105,.38,.253,.867,.379,1.46,.379,.583,0,1.053-.113,1.41-.34,.356-.227,.538-.52,.542-.879-.005-.302-.133-.55-.382-.745-.25-.195-.635-.345-1.156-.449l-2.078-.414c-1.171-.234-2.042-.641-2.612-1.218-.57-.578-.855-1.315-.855-2.211,0-.771,.209-1.434,.629-1.991,.419-.557,1.01-.986,1.772-1.288s1.657-.453,2.683-.453c1.515,0,2.708,.32,3.581,.961,.872,.64,1.381,1.512,1.527,2.615Z"/>
  </g>
  <g>
    <path class="cls-9" d="M380.061,403.943c-7.501-1.428,78.121-173.065,244.002-174.998"/>
    <polygon class="cls-3" points="620.269 241.254 641.688 229.375 620.693 216.762 620.269 241.254"/>
  </g>
  <g>
    <path class="cls-9" d="M534.376,533.488c-17.535-148.806,35.595-252.998,89.682-262.895"/>
    <polygon class="cls-3" points="620.715 283.432 641.688 270.783 620.249 258.942 620.715 283.432"/>
  </g>
  <g>
    <path class="cls-9" d="M564.693,536.838c-11.949-28.294-2.807-195.186,59.373-207.236"/>
    <polygon class="cls-3" points="620.488 342.47 641.688 330.206 620.469 317.975 620.488 342.47"/>
  </g>
  <rect class="cls-16" x="269.359" y="400.837" width="131.316" height="58.612" rx="7.751" ry="7.751"/>
  <g class="cls-10">
    <path d="M294.783,425.068c-.495,0-.918-.164-1.269-.492-.352-.328-.527-.724-.527-1.188s.177-.86,.531-1.19c.354-.331,.775-.496,1.265-.496,.494,0,.917,.164,1.269,.492,.351,.328,.527,.724,.527,1.187s-.176,.86-.527,1.191c-.352,.33-.775,.496-1.269,.496Zm-1.671,13.541v-11.995h3.327v11.995h-3.327Z"/>
    <path d="M302.419,431.674v6.935h-3.327v-11.995h3.17v2.116h.141c.266-.697,.711-1.251,1.335-1.659,.625-.409,1.382-.613,2.272-.613,.833,0,1.56,.183,2.179,.547,.619,.364,1.101,.884,1.444,1.558,.344,.675,.516,1.478,.516,2.409v7.638h-3.327v-7.044c.005-.734-.183-1.309-.562-1.722-.38-.414-.903-.621-1.57-.621-.448,0-.842,.097-1.183,.289-.341,.192-.606,.473-.796,.839-.19,.367-.288,.809-.293,1.324Z"/>
    <path d="M317.187,438.804c-.911,0-1.735-.235-2.472-.707-.737-.471-1.32-1.166-1.749-2.085-.43-.919-.645-2.047-.645-3.386,0-1.374,.221-2.519,.664-3.432,.442-.914,1.032-1.599,1.769-2.054,.737-.456,1.545-.684,2.425-.684,.672,0,1.233,.113,1.683,.34s.815,.508,1.093,.843c.278,.336,.491,.666,.637,.988h.101v-6.013h3.319v15.993h-3.28v-1.921h-.14c-.156,.333-.376,.662-.66,.987-.284,.326-.651,.596-1.101,.809-.45,.214-.999,.32-1.644,.32Zm1.054-2.647c.537,0,.991-.147,1.363-.441,.373-.294,.659-.707,.859-1.237,.2-.531,.3-1.153,.3-1.867s-.099-1.332-.296-1.858c-.198-.525-.484-.932-.859-1.218-.375-.286-.83-.43-1.367-.43-.546,0-1.007,.148-1.382,.445-.375,.297-.659,.708-.852,1.233-.192,.526-.289,1.135-.289,1.827,0,.698,.097,1.313,.292,1.848,.195,.533,.479,.95,.852,1.249,.372,.3,.832,.449,1.378,.449Z"/>
    <path d="M332.204,438.843c-1.234,0-2.294-.251-3.182-.754-.888-.502-1.571-1.216-2.05-2.14s-.719-2.019-.719-3.284c0-1.233,.24-2.316,.719-3.248s1.154-1.658,2.026-2.179,1.896-.781,3.073-.781c.791,0,1.529,.126,2.214,.379,.685,.252,1.283,.631,1.796,1.136,.513,.506,.913,1.14,1.199,1.902,.287,.763,.43,1.654,.43,2.674v.914h-10.129v-2.062h6.998c0-.479-.104-.903-.312-1.273-.208-.369-.496-.659-.863-.87-.367-.211-.792-.316-1.276-.316-.505,0-.952,.116-1.339,.348-.388,.231-.691,.541-.91,.929-.218,.389-.331,.819-.335,1.293v1.96c0,.594,.11,1.106,.332,1.538,.221,.433,.535,.766,.941,1,.406,.234,.887,.352,1.444,.352,.37,0,.708-.052,1.016-.156,.307-.104,.57-.261,.789-.469s.385-.463,.5-.766l3.077,.203c-.156,.739-.475,1.384-.957,1.934-.482,.549-1.101,.976-1.859,1.28-.757,.305-1.631,.457-2.62,.457Z"/>
    <path d="M342.458,426.614l2.202,4.193,2.257-4.193h3.413l-3.475,5.997,3.569,5.998h-3.397l-2.366-4.146-2.327,4.146h-3.436l3.561-5.998-3.437-5.997h3.437Z"/>
    <path d="M354.242,438.812c-.515,0-.957-.184-1.324-.551-.367-.367-.55-.809-.55-1.323,0-.511,.184-.948,.55-1.312,.367-.364,.809-.547,1.324-.547,.5,0,.938,.183,1.312,.547,.375,.364,.562,.802,.562,1.312,0,.344-.087,.657-.262,.94-.174,.284-.402,.511-.683,.68-.281,.169-.591,.254-.93,.254Z"/>
    <path d="M358.842,426.614h3.327v12.589c0,.927-.182,1.676-.546,2.249-.365,.572-.887,.991-1.566,1.257-.68,.266-1.49,.398-2.433,.398-.114,0-.225,0-.332-.004-.106-.003-.22-.007-.34-.012v-2.601c.089,.005,.166,.009,.23,.012,.065,.003,.134,.004,.207,.004,.536,0,.913-.113,1.128-.34,.216-.227,.324-.565,.324-1.019v-12.534Zm1.656-1.546c-.49,0-.911-.166-1.265-.496-.354-.331-.531-.728-.531-1.191,0-.458,.177-.853,.531-1.183,.354-.331,.775-.496,1.265-.496,.5,0,.925,.165,1.277,.496,.351,.33,.527,.725,.527,1.183,0,.464-.176,.86-.527,1.191-.352,.33-.777,.496-1.277,.496Z"/>
    <path d="M374.804,430.034l-3.046,.188c-.052-.26-.164-.495-.335-.706-.172-.211-.397-.38-.676-.508s-.61-.191-.996-.191c-.516,0-.95,.108-1.304,.324s-.531,.504-.531,.863c0,.286,.115,.528,.344,.726,.229,.198,.622,.356,1.179,.477l2.171,.438c1.167,.239,2.036,.625,2.608,1.155,.573,.531,.859,1.229,.859,2.094,0,.786-.23,1.476-.691,2.069-.46,.593-1.091,1.056-1.89,1.386-.799,.331-1.72,.496-2.761,.496-1.588,0-2.852-.332-3.792-.996-.94-.663-1.49-1.568-1.652-2.714l3.272-.172c.099,.484,.338,.854,.718,1.105,.38,.253,.867,.379,1.46,.379,.583,0,1.053-.113,1.41-.34,.356-.227,.538-.52,.542-.879-.005-.302-.133-.55-.382-.745-.25-.195-.635-.345-1.156-.449l-2.078-.414c-1.171-.234-2.042-.641-2.612-1.218-.57-.578-.855-1.315-.855-2.211,0-.771,.209-1.434,.629-1.991,.419-.557,1.01-.986,1.772-1.288s1.657-.453,2.683-.453c1.515,0,2.708,.32,3.581,.961,.872,.64,1.381,1.512,1.527,2.615Z"/>
  </g>
  <rect class="cls-14" x="479.924" y="531.093" width="149.434" height="58.612" rx="7.751" ry="7.751"/>
  <g class="cls-10">
    <path d="M502.568,555.658v-2.787h13.136v2.787h-4.896v13.206h-3.343v-13.206h-4.896Z"/>
    <path d="M516.563,568.864v-11.995h3.225v2.093h.125c.219-.744,.586-1.308,1.101-1.69,.516-.383,1.109-.574,1.781-.574,.167,0,.346,.011,.539,.031,.193,.021,.362,.05,.508,.086v2.952c-.156-.047-.372-.089-.648-.125-.276-.036-.529-.055-.758-.055-.489,0-.925,.105-1.308,.316-.382,.211-.685,.503-.906,.878s-.332,.808-.332,1.297v6.786h-3.327Z"/>
    <path d="M528.636,569.09c-.765,0-1.447-.134-2.046-.402-.599-.268-1.071-.666-1.417-1.194s-.52-1.188-.52-1.98c0-.666,.123-1.226,.367-1.679s.578-.817,1-1.094c.422-.275,.902-.483,1.441-.624,.539-.141,1.105-.239,1.699-.297,.697-.073,1.26-.142,1.687-.207s.737-.163,.93-.293c.192-.13,.289-.322,.289-.578v-.047c0-.494-.155-.877-.464-1.147-.31-.271-.749-.406-1.316-.406-.599,0-1.075,.132-1.429,.395s-.588,.592-.703,.987l-3.077-.249c.156-.729,.463-1.36,.921-1.895,.458-.533,1.05-.944,1.777-1.233,.726-.289,1.568-.434,2.526-.434,.666,0,1.305,.078,1.917,.234s1.156,.398,1.632,.727c.476,.327,.853,.748,1.128,1.261s.414,1.126,.414,1.839v8.091h-3.155v-1.663h-.094c-.192,.375-.45,.704-.773,.987-.323,.284-.711,.505-1.164,.664-.453,.159-.976,.238-1.57,.238Zm.953-2.296c.489,0,.922-.098,1.296-.293,.375-.195,.669-.459,.883-.793,.213-.333,.32-.71,.32-1.132v-1.273c-.104,.068-.246,.129-.425,.184s-.382,.104-.605,.148-.448,.083-.671,.117c-.224,.034-.427,.063-.609,.09-.39,.058-.731,.148-1.023,.273s-.518,.293-.679,.504c-.162,.211-.242,.473-.242,.784,0,.453,.165,.798,.496,1.035s.751,.355,1.261,.355Z"/>
    <path d="M543.396,569.098c-1.229,0-2.285-.262-3.167-.785s-1.559-1.251-2.03-2.183-.707-2.004-.707-3.218c0-1.229,.238-2.308,.715-3.236,.476-.93,1.154-1.656,2.034-2.179,.88-.523,1.926-.785,3.14-.785,1.046,0,1.962,.19,2.749,.57s1.408,.913,1.867,1.601c.458,.688,.71,1.494,.757,2.421h-3.139c-.089-.599-.322-1.081-.699-1.448s-.871-.551-1.48-.551c-.515,0-.964,.14-1.347,.418-.383,.278-.681,.683-.895,1.214s-.32,1.175-.32,1.929c0,.766,.105,1.417,.316,1.953s.509,.944,.895,1.226c.385,.281,.835,.422,1.351,.422,.38,0,.723-.078,1.027-.234,.304-.156,.557-.384,.757-.684,.2-.299,.332-.659,.395-1.081h3.139c-.052,.916-.301,1.722-.746,2.417-.445,.695-1.058,1.237-1.839,1.628-.781,.391-1.705,.586-2.772,.586Z"/>
    <path d="M550.893,568.864v-15.993h3.327v15.993h-3.327Zm3.014-3.452l.008-3.99h.484l3.842-4.553h3.819l-5.162,6.028h-.789l-2.203,2.515Zm4.483,3.452l-3.53-5.225,2.218-2.351,5.209,7.575h-3.897Z"/>
    <path d="M568.651,569.098c-1.234,0-2.294-.251-3.182-.754-.888-.502-1.571-1.216-2.05-2.14s-.719-2.019-.719-3.284c0-1.233,.24-2.316,.719-3.248s1.154-1.658,2.026-2.179,1.896-.781,3.073-.781c.791,0,1.529,.126,2.214,.379,.685,.252,1.283,.631,1.796,1.136,.513,.506,.913,1.14,1.199,1.902,.287,.763,.43,1.654,.43,2.674v.914h-10.129v-2.062h6.998c0-.479-.104-.903-.312-1.273-.208-.369-.496-.659-.863-.87-.367-.211-.792-.316-1.276-.316-.505,0-.952,.116-1.339,.348-.388,.231-.691,.541-.91,.929-.218,.389-.331,.819-.335,1.293v1.96c0,.594,.11,1.106,.332,1.538,.221,.433,.535,.766,.941,1,.406,.234,.887,.352,1.444,.352,.37,0,.708-.052,1.016-.156,.307-.104,.57-.261,.789-.469s.385-.463,.5-.766l3.077,.203c-.156,.739-.475,1.384-.957,1.934-.482,.549-1.101,.976-1.859,1.28-.757,.305-1.631,.457-2.62,.457Z"/>
    <path d="M576.328,568.864v-11.995h3.225v2.093h.125c.219-.744,.586-1.308,1.101-1.69,.516-.383,1.109-.574,1.781-.574,.167,0,.346,.011,.539,.031,.193,.021,.362,.05,.508,.086v2.952c-.156-.047-.372-.089-.648-.125-.276-.036-.529-.055-.758-.055-.489,0-.925,.105-1.308,.316-.382,.211-.685,.503-.906,.878s-.332,.808-.332,1.297v6.786h-3.327Z"/>
    <path d="M585.886,569.067c-.515,0-.957-.184-1.324-.551-.367-.367-.55-.809-.55-1.323,0-.511,.184-.948,.55-1.312,.367-.364,.809-.547,1.324-.547,.5,0,.938,.183,1.312,.547,.375,.364,.562,.802,.562,1.312,0,.344-.087,.657-.262,.94-.174,.284-.402,.511-.683,.68-.281,.169-.591,.254-.93,.254Z"/>
    <path d="M590.486,556.869h3.327v12.589c0,.927-.182,1.676-.546,2.249-.365,.572-.887,.991-1.566,1.257-.68,.266-1.49,.398-2.433,.398-.114,0-.225,0-.332-.004-.106-.003-.22-.007-.34-.012v-2.601c.089,.005,.166,.009,.23,.012,.065,.003,.134,.004,.207,.004,.536,0,.913-.113,1.128-.34,.216-.227,.324-.565,.324-1.019v-12.534Zm1.656-1.546c-.49,0-.911-.166-1.265-.496-.354-.331-.531-.728-.531-1.191,0-.458,.177-.853,.531-1.183,.354-.331,.775-.496,1.265-.496,.5,0,.925,.165,1.277,.496,.351,.33,.527,.725,.527,1.183,0,.464-.176,.86-.527,1.191-.352,.33-.777,.496-1.277,.496Z"/>
    <path d="M606.448,560.289l-3.046,.188c-.052-.26-.164-.495-.335-.706-.172-.211-.397-.38-.676-.508s-.61-.191-.996-.191c-.516,0-.95,.108-1.304,.324s-.531,.504-.531,.863c0,.286,.115,.528,.344,.726,.229,.198,.622,.356,1.179,.477l2.171,.438c1.167,.239,2.036,.625,2.608,1.155,.573,.531,.859,1.229,.859,2.094,0,.786-.23,1.476-.691,2.069-.46,.593-1.091,1.056-1.89,1.386-.799,.331-1.72,.496-2.761,.496-1.588,0-2.852-.332-3.792-.996-.94-.663-1.49-1.568-1.652-2.714l3.272-.172c.099,.484,.338,.854,.718,1.105,.38,.253,.867,.379,1.46,.379,.583,0,1.053-.113,1.41-.34,.356-.227,.538-.52,.542-.879-.005-.302-.133-.55-.382-.745-.25-.195-.635-.345-1.156-.449l-2.078-.414c-1.171-.234-2.042-.641-2.612-1.218-.57-.578-.855-1.315-.855-2.211,0-.771,.209-1.434,.629-1.991,.419-.557,1.01-.986,1.772-1.288s1.657-.453,2.683-.453c1.515,0,2.708,.32,3.581,.961,.872,.64,1.381,1.512,1.527,2.615Z"/>
  </g>
  <g>
    <path class="cls-9" d="M760.883,642.949s.718-125.511,.132-217.6"/>
    <polygon class="cls-3" points="773.173 428.946 760.883 407.761 748.678 428.995 773.173 428.946"/>
  </g>
</svg>